<svg width="125" height="107" viewBox="0 0 125 107" fill="none" xmlns="http://www.w3.org/2000/svg">
<path fill-rule="evenodd" clip-rule="evenodd" d="M91.7132 34.4389C91.5326 34.3929 91.4758 34.3178 91.4708 34.134C91.3729 30.5679 91.2685 27.0015 91.1655 23.4358C91.0506 19.4568 88.4763 18.5136 85.0585 17.5978C78.1496 15.7512 71.2365 13.9195 64.3148 12.1207C61.4769 11.3832 58.6102 12.6053 57.0723 15.0674C55.7524 17.1795 54.4681 19.3139 53.1709 21.4413C52.7512 22.1299 52.3381 22.8242 51.9215 23.5156C51.8902 23.5681 51.8554 23.6179 51.808 23.6908L68.2305 38.65L91.7132 34.4389Z" fill="#FF854A"/>
<path fill-rule="evenodd" clip-rule="evenodd" d="M57.554 24.9551C57.5883 24.9022 57.6144 24.8647 57.6377 24.8266C57.9453 24.3155 58.2506 23.8023 58.5604 23.2938C59.5183 21.7233 60.4672 20.1462 61.442 18.5867C62.6103 16.7173 64.6524 15.8557 66.7904 16.4104C71.5726 17.6511 76.3512 18.9117 81.1235 20.1904C82.3461 20.518 83.8629 20.8012 84.9893 21.4139C86.347 22.1524 86.579 23.2829 86.6217 24.7665C86.6973 27.4003 86.7748 30.0346 86.8474 32.6687C86.8504 32.8042 86.8923 32.8601 87.0257 32.8939" fill="#FFA4AD"/>
<path fill-rule="evenodd" clip-rule="evenodd" d="M46.5594 17.5315L43.4708 16.7039C42.3635 16.4072 41.2004 17.1621 40.8715 18.3894L40.5489 19.5937C40.22 20.821 40.8497 22.0568 41.957 22.3535L45.0456 23.181C46.1523 23.4776 47.3159 22.7224 47.6448 21.4951L47.9675 20.2908C48.2963 19.0635 47.6661 17.828 46.5594 17.5315Z" fill="#FFD548"/>
<path fill-rule="evenodd" clip-rule="evenodd" d="M108.662 34.0427L97.8924 31.157C96.786 30.8605 95.6248 31.6047 95.2998 32.8177L94.932 34.1905C94.6068 35.4041 95.2403 36.6289 96.3468 36.9254L107.116 39.8111C108.222 40.1075 109.383 39.363 109.708 38.1497L110.076 36.7769C110.401 35.564 109.768 34.3391 108.662 34.0427Z" fill="#FFD548"/>
<path fill-rule="evenodd" clip-rule="evenodd" d="M100.497 90.105C99.6466 92.5975 96.8082 94.0428 94.1571 93.3324C68.6576 86.4998 43.158 79.6672 17.6585 72.8347C15.0073 72.1247 13.2719 69.4535 13.7815 66.8697C16.8439 51.4646 19.9054 36.0592 22.967 20.6543C23.4765 18.0707 26.2238 16.6008 29.1027 17.3722C56.7277 24.7743 84.3524 32.1763 111.977 39.5782C114.856 40.3498 116.5 42.9963 115.65 45.4887C110.599 60.3606 105.548 75.2328 100.497 90.105Z" fill="#FF854A"/>
<path fill-rule="evenodd" clip-rule="evenodd" d="M85.5538 61.192C82.2673 73.4574 69.6596 80.7375 57.3936 77.4508C45.1276 74.1641 37.8495 61.5557 41.136 49.2903C44.4223 37.0255 57.0296 29.7462 69.2954 33.0328C81.5611 36.3194 88.8401 48.9272 85.5538 61.192Z" fill="#004587"/>
<path fill-rule="evenodd" clip-rule="evenodd" d="M81.8223 60.1941C79.088 70.3987 68.598 76.4551 58.393 73.7207C48.1881 70.9863 42.1321 60.4962 44.8664 50.2918C47.6009 40.0865 58.0906 34.0302 68.2954 36.7646C78.5003 39.499 84.5568 49.9888 81.8223 60.1941Z" fill="#A989E7"/>
<path fill-rule="evenodd" clip-rule="evenodd" d="M109.139 46.3595C106.219 46.5748 89.5176 42.2368 87.1328 40.7643C89.478 40.3268 105.609 44.8791 109.139 46.3595Z" fill="#004587"/>
<path fill-rule="evenodd" clip-rule="evenodd" d="M49.4177 30.3545C46.4976 30.5698 29.7962 26.2318 27.4118 24.7594C29.7565 24.3218 45.8879 28.8742 49.4177 30.3545Z" fill="#004587"/>
<path fill-rule="evenodd" clip-rule="evenodd" d="M41.5823 73.7909C38.662 74.0062 21.9608 69.6682 19.5764 68.1969C21.9218 67.7581 38.0523 72.3106 41.5823 73.7909Z" fill="#004587"/>
<path fill-rule="evenodd" clip-rule="evenodd" d="M83.456 24.5223C80.9386 24.8421 66.7451 21.1575 64.7501 19.786C66.7814 19.2671 80.4769 23.1851 83.456 24.5223Z" fill="#004587"/>
<path fill-rule="evenodd" clip-rule="evenodd" d="M82.542 27.936C80.0247 28.2554 65.8313 24.5708 63.836 23.2001C65.8677 22.6799 79.5631 26.598 82.542 27.936Z" fill="#004587"/>
<path fill-rule="evenodd" clip-rule="evenodd" d="M78.4552 55.302C78.4216 63.6475 71.6296 70.3856 63.2843 70.352C54.939 70.3189 48.201 63.5272 48.2342 55.1818C48.2677 46.8368 55.0595 40.0984 63.4049 40.132C71.75 40.1656 78.488 46.9573 78.4552 55.302Z" fill="#FFD548"/>
<path fill-rule="evenodd" clip-rule="evenodd" d="M63.3857 44.87C57.6577 44.8471 52.9957 49.4728 52.9728 55.2008C52.9498 60.9287 57.5747 65.5919 63.3031 65.6138C69.0313 65.6367 73.6939 61.0116 73.7166 55.2831C73.7396 49.5547 69.1141 44.8938 63.3857 44.87ZM63.3071 64.5872C58.1465 64.5665 53.9789 60.3662 53.9998 55.205C54.02 50.0444 58.2205 45.8768 63.3819 45.8977C68.5427 45.9173 72.7101 50.1182 72.6892 55.2798C72.6688 60.4405 68.4681 64.6071 63.3071 64.5872Z" fill="#FF6086"/>
<path fill-rule="evenodd" clip-rule="evenodd" d="M67.8475 55.2619C67.8376 57.7478 65.8135 59.7561 63.3265 59.7467C60.8398 59.7364 58.8313 57.7118 58.841 55.2256C58.8515 52.7383 60.875 50.7299 63.362 50.7399C65.8488 50.7498 67.8578 52.7745 67.8475 55.2619Z" fill="#004587"/>
<path d="M20.7498 63.9391C22.0991 57.3452 23.4471 50.7507 24.7955 44.1585C25.1726 42.3112 22.4608 41.9461 22.0848 43.7802C20.7365 50.372 19.3881 56.9673 18.0396 63.559C17.6616 65.4071 20.375 65.7727 20.7498 63.9391Z" fill="white"/>
<path fill-rule="evenodd" clip-rule="evenodd" d="M54.6919 69.9521C52.3486 69.0935 50.1706 66.6758 49.1751 64.4318C48.9732 63.976 48.3063 64.3676 48.5063 64.8186C49.5914 67.263 51.9531 69.7689 54.4918 70.6987C54.9603 70.87 55.1559 70.122 54.6919 69.9521Z" fill="white"/>
<path fill-rule="evenodd" clip-rule="evenodd" d="M100.797 33.1129C99.546 32.7615 96.6711 31.527 96.4832 33.743C96.4403 34.2385 97.2141 34.2305 97.2556 33.7374C97.3584 32.5286 99.9588 33.6799 100.597 33.8587C101.077 33.9938 101.276 33.2476 100.797 33.1129Z" fill="white"/>
<path fill-rule="evenodd" clip-rule="evenodd" d="M103.205 33.6786L103.131 33.6587C102.927 33.6041 102.712 33.7282 102.657 33.932C102.603 34.1357 102.727 34.3501 102.931 34.4047L103.005 34.4246C103.209 34.4791 103.424 34.3557 103.478 34.152C103.533 33.9482 103.408 33.7331 103.205 33.6786Z" fill="white"/>
<path fill-rule="evenodd" clip-rule="evenodd" d="M80.4551 47.6966C79.3403 45.305 77.6134 42.7809 75.207 41.5487C74.7652 41.3226 74.3727 41.9885 74.8158 42.2149C77.1126 43.3914 78.7223 45.8023 79.7861 48.0834C79.9966 48.5355 80.664 48.145 80.4551 47.6966Z" fill="white"/>
<path fill-rule="evenodd" clip-rule="evenodd" d="M80.7506 49.4199C80.2697 49.291 80.0697 50.0374 80.5506 50.1663C81.0319 50.2954 81.2319 49.5489 80.7506 49.4199Z" fill="white"/>
<path fill-rule="evenodd" clip-rule="evenodd" d="M48.1147 62.8584C47.6333 62.7295 47.4333 63.4759 47.9147 63.6048C48.3962 63.7339 48.5962 62.9875 48.1147 62.8584Z" fill="white"/>
<path fill-rule="evenodd" clip-rule="evenodd" d="M41.75 36.0136C41.6978 36.3684 41.3117 36.6053 40.8877 36.5432L16.9141 33.0123C16.49 32.9497 16.1885 32.6114 16.2405 32.2565L20.4885 3.41639C20.5408 3.06154 20.9271 2.82386 21.351 2.88621L45.3248 6.41709C45.749 6.4795 46.0503 6.81795 45.9978 7.17361L41.75 36.0136Z" fill="#00AFFF"/>
<path fill-rule="evenodd" clip-rule="evenodd" d="M40.1703 32.7169C40.129 33.0003 39.8169 33.1901 39.4735 33.1394L20.0781 30.2836C19.7353 30.233 19.4908 29.961 19.5326 29.6775L22.9303 6.60637C22.9721 6.32308 23.2842 6.13385 23.6273 6.18385L43.0228 9.04059C43.3663 9.09089 43.6105 9.36132 43.5684 9.64602L40.1703 32.7169Z" fill="#00EEE4"/>
<path fill-rule="evenodd" clip-rule="evenodd" d="M73.3049 94.7527C73.1511 95.1128 73.3786 95.5331 73.8128 95.6927L98.3759 104.733C98.8104 104.893 99.2872 104.731 99.4411 104.371L111.95 75.1778C112.103 74.8177 111.876 74.396 111.442 74.2368L86.879 65.1965C86.4447 65.0373 85.9674 65.1991 85.8138 65.5577L73.3049 94.7527Z" fill="#FFA4AD"/>
<path fill-rule="evenodd" clip-rule="evenodd" d="M77.2273 92.2624C77.1111 92.5474 77.3007 92.8874 77.6511 93.0231L97.4785 100.643C97.8287 100.778 98.207 100.656 98.3241 100.371L107.793 77.219C107.91 76.9335 107.72 76.594 107.369 76.4579L87.5425 68.8385C87.1918 68.7029 86.8128 68.8255 86.6965 69.1104L77.2273 92.2624Z" fill="#FF6086"/>
<path d="M39.9204 15.92C41.8564 16.1628 42.8474 17.7728 42.687 19.643C42.6056 20.5998 41.1157 20.5482 41.1983 19.5864C41.2885 18.5381 40.9845 17.6889 39.9031 17.4234C38.7154 17.1322 37.9837 17.9305 37.9903 19.0652C37.9963 20.0291 36.5068 19.9677 36.5017 19.009C36.4899 17.0502 37.97 15.6745 39.9204 15.92Z" fill="#004587"/>
<path d="M24.5613 13.8022C26.488 14.1001 27.4338 15.7383 27.2198 17.6031C27.1114 18.558 25.6246 18.4625 25.7341 17.5034C25.8532 16.4594 25.5739 15.6013 24.5007 15.3044C23.322 14.9797 22.5678 15.757 22.5425 16.8921C22.5208 17.856 21.0347 17.7522 21.0565 16.7929C21.1003 14.8339 22.6187 13.5013 24.5613 13.8022Z" fill="#004587"/>
<path d="M29.1524 18.9264C29.1803 18.5202 29.403 18.1605 29.8484 18.1289C30.214 18.1025 30.6678 18.4133 30.6392 18.8208C30.599 19.4074 30.5365 20.4259 31.1545 20.7508C32.0299 21.2076 32.6633 20.1549 32.8485 19.4636C33.0957 18.5365 34.5576 18.8234 34.308 19.7573C33.8936 21.3029 32.7191 22.5942 31.0079 22.2606C29.4663 21.9598 29.0593 20.2871 29.1524 18.9264Z" fill="#004587"/>
<path d="M101.356 81.3709C103.201 82.003 103.844 83.7812 103.306 85.5789C103.031 86.5 101.584 86.1454 101.86 85.2208C102.162 84.213 102.038 83.3197 101.033 82.8394C99.9292 82.3115 99.0506 82.9446 98.8255 84.0574C98.6352 85.0023 97.1896 84.6394 97.3797 83.699C97.7675 81.7783 99.4967 80.7334 101.356 81.3709Z" fill="#004587"/>
<path d="M86.7507 76.1669C88.5759 76.8521 89.1686 78.6474 88.5792 80.4299C88.2785 81.3433 86.8418 80.9469 87.1445 80.0304C87.4746 79.0315 87.3755 78.1351 86.3854 77.6264C85.2976 77.0675 84.4007 77.6753 84.145 78.7811C83.9267 79.7208 82.4938 79.3161 82.71 78.3818C83.1519 76.4726 84.9098 75.4773 86.7507 76.1669Z" fill="#004587"/>
<path d="M90.2011 82.1189C90.3114 81.7266 90.6031 81.4193 91.0453 81.4787C91.4088 81.5279 91.7895 81.925 91.6786 82.3187C91.52 82.8839 91.2508 83.8684 91.79 84.3115C92.5543 84.9377 93.3887 84.0361 93.711 83.3966C94.1412 82.5398 95.5141 83.1176 95.0801 83.9823C94.3594 85.4099 92.9465 86.4347 91.3393 85.7602C89.8918 85.1511 89.8335 83.432 90.2011 82.1189Z" fill="#004587"/>
<path d="M32.6234 47.0347C32.4045 47.8517 31.5658 48.3366 30.7488 48.1176C29.9321 47.8988 29.4474 47.0593 29.6663 46.2423C29.885 45.4261 30.7246 44.9411 31.5414 45.1599C32.3584 45.3788 32.8421 46.2185 32.6234 47.0347Z" fill="white"/>
<path d="M93.161 48.479C92.9422 49.2956 92.103 49.7808 91.2862 49.5619C90.4697 49.3431 89.9851 48.5033 90.2039 47.6867C90.4226 46.8705 91.2622 46.3854 92.0788 46.6042C92.8956 46.8229 93.3798 47.6626 93.161 48.479Z" fill="white"/>
<path d="M40.3147 41.3878C40.1791 41.894 39.6588 42.1937 39.1526 42.0581C38.6467 41.9225 38.3462 41.4028 38.4818 40.8967C38.6174 40.3908 39.1376 40.0904 39.6435 40.226C40.1496 40.3618 40.4502 40.8819 40.3147 41.3878Z" fill="white"/>
<path d="M32.4397 55.0518C32.3042 55.5578 31.7844 55.8587 31.2781 55.723C30.7719 55.5874 30.4715 55.0667 30.607 54.5608C30.7425 54.0552 31.2631 53.7545 31.7692 53.8901C32.2755 54.026 32.5752 54.5463 32.4397 55.0518Z" fill="white"/>
<path d="M84.277 37.3512C84.1416 37.8567 83.6214 38.1575 83.1151 38.0219C82.6091 37.8863 82.309 37.3659 82.4445 36.8602C82.5801 36.3542 83.0998 36.0542 83.606 36.1898C84.1121 36.3256 84.4126 36.8453 84.277 37.3512Z" fill="white"/>
<path d="M55.4941 29.8104C56.0001 29.946 56.5202 29.6457 56.6558 29.1397C56.7914 28.6337 56.4911 28.1135 55.9851 27.9779C55.4791 27.8423 54.9589 28.1426 54.8233 28.6487C54.6878 29.1547 54.9881 29.6748 55.4941 29.8104Z" fill="white"/>
<path d="M39.3371 67.976C39.2015 68.4822 38.6817 68.7824 38.1752 68.6467C37.669 68.5111 37.369 67.9911 37.5046 67.485C37.6402 66.9791 38.1602 66.6782 38.6663 66.8138C39.1728 66.9495 39.4727 67.4701 39.3371 67.976Z" fill="white"/>
<path d="M51.0432 78.2725C50.9077 78.7785 50.3876 79.0789 49.8813 78.9432C49.3754 78.8077 49.0749 78.2876 49.2105 77.7815C49.3463 77.2749 49.8662 76.9751 50.3723 77.1107C50.8786 77.2466 51.179 77.766 51.0432 78.2725Z" fill="white"/>
<path d="M70.2337 82.4337C70.0981 82.9396 69.578 83.24 69.0719 83.1044C68.566 82.9689 68.2654 82.4487 68.401 81.9426C68.5366 81.4365 69.057 81.1364 69.5629 81.2719C70.0691 81.4075 70.3693 81.9275 70.2337 82.4337Z" fill="white"/>
<path d="M106.409 42.0184C106.273 42.5246 105.753 42.8249 105.247 42.6891C104.741 42.5536 104.441 42.0337 104.577 41.5275C104.712 41.022 105.232 40.7221 105.738 40.8576C106.244 40.9932 106.544 41.5127 106.409 42.0184Z" fill="white"/>
<path d="M98.1459 94.4013C98.0102 94.9075 97.4904 95.2078 96.9843 95.0721C96.478 94.9365 96.178 94.4165 96.3136 93.9104C96.449 93.4049 96.969 93.104 97.4753 93.2396C97.9812 93.3754 98.2813 93.8958 98.1459 94.4013Z" fill="white"/>
<path d="M90.8763 74.3157C90.7406 74.8222 90.2218 75.1219 89.7149 74.9861C89.209 74.8505 88.9087 74.3314 89.0445 73.8248C89.1798 73.3197 89.6997 73.019 90.2056 73.1546C90.7126 73.2902 91.0117 73.8105 90.8763 74.3157Z" fill="white"/>
<path d="M91.1117 62.6826C90.9759 63.1892 90.4563 63.489 89.9497 63.3533C89.4438 63.2177 89.1435 62.6981 89.2792 62.1916C89.4145 61.6865 89.9345 61.3863 90.4405 61.5218C90.947 61.6575 91.247 62.1775 91.1117 62.6826Z" fill="white"/>
<path d="M38.144 28.1822C38.0084 28.6884 37.4886 28.9886 36.9824 28.853C36.4763 28.7174 36.1759 28.1974 36.3115 27.6912C36.4468 27.1861 36.9672 26.8853 37.4733 27.021C37.9794 27.1568 38.2793 27.6771 38.144 28.1822Z" fill="white"/>
<path d="M85.7717 88.6653C85.6724 88.5001 85.89 86.613 85.6426 86.5624C85.3949 86.5114 84.6992 88.2549 84.5537 88.3428C84.2614 88.5188 82.5426 88.2392 82.4944 88.474C82.4464 88.707 84.0611 89.2566 84.2329 89.5442C84.3289 89.7046 84.1134 91.5975 84.362 91.6485C84.6089 91.6993 85.2987 89.9601 85.4502 89.8699C85.7326 89.6987 87.4668 89.9731 87.5152 89.7378C87.5637 89.5033 85.9365 88.9425 85.7717 88.6653Z" fill="#004587"/>
<path d="M26.0842 24.3048C25.9848 24.139 26.2027 22.2517 25.9553 22.2012C25.7072 22.1509 25.0121 23.8937 24.8663 23.9819C24.5739 24.1583 22.8549 23.8787 22.8069 24.1127C22.759 24.3463 24.3736 24.8953 24.5454 25.1828C24.6416 25.3433 24.426 27.2373 24.6744 27.2876C24.9216 27.3387 25.6114 25.5988 25.7632 25.5076C26.045 25.3378 27.7793 25.6118 27.8283 25.3765C27.8758 25.1421 26.2488 24.5822 26.0842 24.3048Z" fill="#004587"/>
<path d="M37.1331 11.6384C37.0339 11.4737 37.2519 9.58688 37.0041 9.53519C36.7564 9.48503 36.0614 11.2283 35.9153 11.3167C35.623 11.4935 33.904 11.2123 33.8553 11.4473C33.8076 11.681 35.4225 12.2296 35.594 12.5175C35.6902 12.6771 35.4747 14.5709 35.7233 14.6219C35.9704 14.6734 36.6601 12.9339 36.8118 12.8423C37.0939 12.672 38.8284 12.947 38.8768 12.7115C38.9253 12.4767 37.2982 11.9162 37.1331 11.6384Z" fill="white"/>
<path d="M97.8713 76.0603C97.7718 75.8959 97.9901 74.0081 97.7424 73.9571C97.4941 73.9072 96.799 75.6502 96.6536 75.7386C96.3611 75.9145 94.642 75.6352 94.5937 75.8688C94.5458 76.1022 96.1601 76.6524 96.3321 76.94C96.4286 77.0996 96.2133 78.993 96.4612 79.0443C96.7086 79.0948 97.3981 77.356 97.5499 77.265C97.8321 77.0937 99.5664 77.3692 99.6146 77.1337C99.6634 76.8983 98.036 76.3384 97.8713 76.0603Z" fill="white"/>
<path d="M28.6602 62.0446C28.561 61.8799 28.779 59.9924 28.5315 59.9414C28.2834 59.8916 27.5881 61.6339 27.4423 61.7221C27.1501 61.899 25.4311 61.6189 25.3829 61.8533C25.3348 62.0869 26.9496 62.6359 27.1211 62.923C27.2173 63.083 27.0025 64.9765 27.2501 65.0277C27.4974 65.0797 28.1876 63.3395 28.3386 63.2483C28.6211 63.0782 30.3558 63.3532 30.4041 63.1173C30.452 62.8821 28.8251 62.3227 28.6602 62.0446Z" fill="white"/>
<path d="M25.8096 39.5217C26.2186 37.573 23.1948 36.9377 22.7857 38.8875C22.3761 40.8373 25.3997 41.4724 25.8096 39.5217Z" fill="white"/>
<path d="M106.866 63.7415L111.685 50.2716C112.228 48.7568 109.879 47.9164 109.336 49.4318L104.517 62.9008C103.974 64.4164 106.323 65.2569 106.866 63.7415Z" fill="white"/>
<path d="M112.902 46.38C113.443 44.8655 111.094 44.0253 110.553 45.5395C110.011 47.055 112.359 47.8958 112.902 46.38Z" fill="white"/>
<path d="M105.544 67.9321C106.086 66.4173 103.737 65.5764 103.195 67.0923C102.653 68.607 105.002 69.4479 105.544 67.9321Z" fill="white"/>
<path d="M94.2999 54.2801C94.3857 54.0213 95.8941 54.2523 96.7573 54.2609C96.659 53.386 96.2741 51.8892 96.5307 51.7997C96.7486 51.7227 97.3143 52.6725 97.7993 53.3817C98.2218 52.6 98.7671 51.55 98.9953 51.6261C99.2533 51.7115 99.1093 53.1987 99.0623 54.0697C99.9431 53.9349 101.413 53.6351 101.503 53.8898C101.582 54.1165 100.611 54.7605 99.8876 55.2493C100.653 55.6675 101.659 56.1325 101.586 56.351C101.5 56.6102 99.9815 56.3691 99.1206 56.3666C99.2135 57.242 99.6075 58.7402 99.3502 58.8306C99.1331 58.9067 98.5772 57.9645 98.0931 57.2575C97.6719 58.0395 97.1259 59.0832 96.898 59.0075C96.6405 58.9218 96.7872 57.4397 96.8331 56.5683C95.9537 56.7031 94.4718 57.0041 94.3815 56.7473C94.3017 56.5214 95.2777 55.8765 96.0016 55.3882C95.2339 54.9701 94.2271 54.4986 94.2999 54.2801Z" fill="#FFD548"/>
</svg>
