<svg width="133" height="134" viewBox="0 0 133 134" fill="none" xmlns="http://www.w3.org/2000/svg">
<path d="M30.0685 82.4828C30.0685 82.4828 26.1826 83.9579 25.9855 86.9582C25.7884 89.9586 24.5581 94.6065 27.7796 96.2055C31.0011 97.8044 33.8052 94.1773 32.6743 91.4104C31.5433 88.6436 30.0685 82.4828 30.0685 82.4828Z" fill="#599EFC"/>
<path d="M34.912 55.2069C34.912 55.2069 42.0018 70.8429 45.1319 71.365C48.262 71.8871 51.306 71.8783 54.8189 71.3918C58.3317 70.9053 62.296 75.4272 62.296 75.4272L55.7494 80.3407C55.7494 80.3407 69.0828 89.7726 70.4391 90.6423C71.7954 91.512 80.7629 104.265 81.7713 105.934C82.7797 107.604 82.7071 112.577 75.5149 110.301C75.0529 116.929 68.7196 112.427 68.7196 112.427C69.1096 114.364 67.6795 116.69 63.0707 114.995C62.5105 117.718 58.6419 119.583 54.4269 117.23C47.7671 112.794 36.5207 106.31 33.8091 96.8498C32.497 92.2722 29.6703 87.4419 27.102 83.6752C24.3625 79.6575 15.0674 69.702 15.0674 69.702L34.912 55.2069Z" fill="#FFB899"/>
<path d="M82.0916 81.219C82.0916 81.219 73.3273 70.8841 61.3898 73.7187C49.4522 76.5533 47.26 76.3805 45.7103 78.397C44.1607 80.4134 49.1282 83.3652 52.7188 82.7508C56.3095 82.1365 60.1459 83.2313 61.0557 84.1414C61.9655 85.0515 67.1648 92.0955 68.5664 93.6942C69.968 95.293 81.8341 105.958 81.8341 105.958C81.8341 105.958 84.8837 105.86 88.0073 103.5C91.1309 101.139 91.2159 99.747 91.2159 99.747L107.486 97.3584L100.512 75.019L82.0916 81.219Z" fill="#599EFC"/>
<path d="M33.9938 97.3594L35.2021 100.081C35.2021 100.081 38.6009 100.159 39.5397 101.603C40.4786 103.046 39.2147 104.937 39.2147 104.937C39.2147 104.937 42.6579 103.388 44.2316 105.774C45.8052 108.16 43.6163 109.463 43.6163 109.463C43.6163 109.463 45.8912 109.008 47.0592 110.189C48.2272 111.37 47.9565 112.993 47.9565 112.993C47.9565 112.993 44.1992 117.507 40.7213 116.498C37.2434 115.489 38.3394 112.776 38.3394 112.776C38.3394 112.776 34.8874 113.541 33.4182 111.419C31.949 109.297 33.0969 107.559 33.0969 107.559C33.0969 107.559 29.0539 107.045 29.9152 102.524C30.7766 98.0025 33.9938 97.3594 33.9938 97.3594Z" fill="#599EFC"/>
<path d="M10.9827 68.0935C10.0848 69.6487 19.4042 82.3983 23.5173 81.4809C27.6304 80.5634 42.6624 68.5636 43.3198 66.5912C43.9772 64.6189 37.631 51.3446 34.8117 50.8452C32.0002 50.3472 13.1186 60.1221 10.9827 68.0935Z" fill="#FD6B6A"/>
<path d="M94.6472 75.1741C94.6472 75.1741 90.0333 76.0647 89.864 78.5108C89.6947 80.9569 92.9391 99.6921 94.4881 100.715C96.0371 101.738 101.109 100.727 101.109 100.727L94.6472 75.1741Z" fill="white"/>
<path d="M112.123 64.5994C112.123 64.5994 93.0991 72.7364 92.7868 74.5434C92.4745 76.3504 96.5533 99.6156 98.9787 101.469C101.404 103.322 113.331 101.017 113.976 98.6119C114.62 96.2064 119.272 61.0146 112.123 64.5994Z" fill="#FDE580"/>
<path d="M53.3487 15.011C57.6185 16.1851 61.2504 19.0005 63.4519 22.8427C65.6534 26.6849 66.2456 31.2419 65.0995 35.5192C64.0144 39.5682 61.4522 43.064 57.9177 45.3176C54.3831 47.5712 50.1327 48.4192 46.004 47.6946C44.2524 49.0731 41.9203 50.1534 39.4296 49.1937C35.5191 47.6869 39.3048 48.2409 41.7373 46.3394C38.1867 44.6611 35.3378 41.7899 33.6873 38.2263C32.0368 34.6627 31.6895 30.6329 32.706 26.8394C33.857 22.5438 36.6673 18.8813 40.5187 16.6577C44.37 14.4342 48.947 13.8316 53.2426 14.9826C53.278 14.9919 53.3134 15.0014 53.3487 15.011Z" fill="#FD6B6A"/>
<path d="M57.8767 25.6622C57.6093 25.6003 57.2904 25.6069 56.9534 25.7002C55.6781 26.053 49.3376 29.0208 45.4522 31.4349C44.6092 30.0568 43.2693 28.0413 42.4345 27.1928C41.4534 26.1956 40.0367 26.5502 40.5669 28.2711C40.5669 28.2711 40.9009 32.7445 42.6864 35.5361C42.7646 35.6584 42.8478 35.7673 42.9326 35.8705C43.2081 36.366 43.709 36.6992 44.3499 36.7465C44.3503 36.7466 44.3506 36.7467 44.3509 36.7468C44.7529 36.81 45.1483 36.7397 45.4929 36.5532C45.6151 36.5061 45.7388 36.4534 45.8653 36.3879C48.8073 34.863 58.0321 27.5679 58.0321 27.5679C59.0219 26.649 58.6789 25.8479 57.8767 25.6622Z" fill="white"/>
<path d="M103.274 19.898C100.73 19.2163 98.0768 19.0424 95.4654 19.3863C92.854 19.7301 90.3359 20.5849 88.0549 21.9019C85.7739 23.2189 83.7746 24.9723 82.1712 27.062C80.5679 29.1516 79.3918 31.5367 78.7102 34.0809C77.6225 38.141 77.8379 42.4403 79.326 46.3714C80.8142 50.3026 83.4997 53.6668 87.0034 55.9889C86.8993 62.2448 92.6521 65.279 95.082 65.93C99.0128 66.9833 94.3123 64.6319 93.9979 58.9072C99.0131 59.9507 104.237 59.0356 108.599 56.3498C112.961 53.6639 116.13 49.4108 117.456 44.4629C118.138 41.9187 118.312 39.2652 117.968 36.6538C117.625 34.0424 116.77 31.5243 115.453 29.2432C114.136 26.9622 112.383 24.9628 110.293 23.3594C108.204 21.7559 105.819 20.5798 103.274 19.898Z" fill="#80D092"/>
<path d="M78.5154 34.8721C77.6239 38.8375 77.9582 42.9802 79.474 46.7514C80.9898 50.5226 83.6156 53.7442 87.0035 55.9896C86.8994 62.2455 92.6522 65.2796 95.0821 65.9307C99.0129 66.984 94.3124 64.6325 93.998 58.9079C98.525 59.8497 103.238 59.1984 107.34 57.0641C103.988 56.4152 100.401 55.4359 96.6064 53.9995C86.1818 50.0532 81.0205 42.3076 78.5154 34.8721Z" fill="black"/>
<path d="M100.903 26.6645C100.711 26.613 100.511 26.5998 100.315 26.6256C100.118 26.6515 99.9278 26.7159 99.7558 26.8151C99.5838 26.9144 99.433 27.0465 99.3121 27.204C99.1912 27.3616 99.1025 27.5414 99.0511 27.7332L98.6748 29.1375C98.0773 29.226 97.4606 29.4114 96.8434 29.7063C95.3137 30.437 94.2703 31.4746 93.7683 32.6496C93.2663 33.8247 93.3224 35.0225 93.5649 35.9985C94.0226 37.8409 95.1053 39.1307 95.2291 39.2744C95.263 39.319 95.2994 39.3617 95.338 39.4023C95.338 39.4023 97.2431 41.4149 98.3745 43.4972C98.9402 44.5383 99.2457 45.5745 99.2065 46.1392C99.1673 46.7038 99.1418 46.9279 98.0758 47.2985C95.6449 48.1436 94.7583 47.4565 94.0118 46.6067C93.2653 45.7568 92.9856 44.647 92.9856 44.647C92.9424 44.453 92.8613 44.2695 92.747 44.1069C92.6327 43.9443 92.4875 43.8058 92.3196 43.6994C92.1518 43.5929 91.9646 43.5207 91.7688 43.4867C91.573 43.4527 91.3724 43.4576 91.1785 43.5012C90.7877 43.5888 90.4477 43.828 90.2331 44.1661C90.0184 44.5042 89.9467 44.9136 90.0337 45.3046C90.0337 45.3046 90.3981 47.0746 91.7398 48.6022C92.1129 49.027 92.5898 49.4221 93.1514 49.7512L92.7889 51.1042C92.7374 51.2961 92.7242 51.4962 92.7501 51.6931C92.776 51.8901 92.8404 52.08 92.9397 52.252C93.039 52.4241 93.1713 52.5748 93.3289 52.6957C93.4865 52.8166 93.6664 52.9053 93.8583 52.9566C94.0501 53.008 94.2502 53.0211 94.4471 52.9951C94.644 52.9692 94.8338 52.9047 95.0057 52.8053C95.1777 52.706 95.3284 52.5738 95.4492 52.4162C95.5701 52.2586 95.6587 52.0787 95.71 51.8869L96.0523 50.6094C96.9708 50.6592 97.9824 50.5332 99.0694 50.1553C100.939 49.5052 102.116 47.9215 102.225 46.3503C102.334 44.779 101.734 43.348 101.03 42.0516C99.684 39.575 97.7551 37.5563 97.5804 37.3754C97.5674 37.3587 96.7662 36.3362 96.5008 35.268C96.3671 34.7295 96.3678 34.2584 96.5478 33.8369C96.7278 33.4153 97.1056 32.9313 98.1475 32.4336C99.0669 31.9944 99.5774 32.0335 100.008 32.1806C100.438 32.3278 100.857 32.6772 101.227 33.1739C101.967 34.1673 102.329 35.5347 102.329 35.5347C102.374 35.7278 102.458 35.9101 102.574 36.071C102.69 36.2319 102.837 36.3683 103.006 36.4725C103.175 36.5767 103.363 36.6465 103.559 36.6781C103.755 36.7096 103.956 36.7023 104.149 36.6564C104.342 36.6105 104.524 36.527 104.685 36.4106C104.846 36.2943 104.982 36.1473 105.087 35.9782C105.191 35.8091 105.261 35.6211 105.292 35.4251C105.323 35.229 105.316 35.0286 105.27 34.8354C105.27 34.8354 104.871 33.0034 103.654 31.3686C103.169 30.7178 102.523 30.0672 101.676 29.6207L101.972 28.5159C102.076 28.1287 102.022 27.7161 101.821 27.3689C101.621 27.0217 101.291 26.7682 100.903 26.6645Z" fill="white"/>
<path d="M32.5852 27.3184C31.7004 31.0576 32.1266 34.9873 33.7926 38.4499C35.4586 41.9124 38.2633 44.6978 41.7373 46.3398C39.3047 48.2413 35.5191 47.6873 39.4295 49.1941C41.9203 50.1538 44.2523 49.0735 46.0039 47.695C49.3203 48.2771 52.7351 47.8472 55.8038 46.4615C58.8725 45.0757 61.453 42.7982 63.2092 39.9254C59.9939 41.6179 54.7707 42.5845 46.4323 40.3502C38.3603 38.1874 34.4463 32.7188 32.5852 27.3184Z" fill="black"/>
<path d="M23.9371 75.8731C23.8567 76.1732 23.7179 76.4545 23.5288 76.701C23.3397 76.9475 23.1038 77.1543 22.8348 77.3096C22.5657 77.465 22.2687 77.5658 21.9607 77.6064C21.6527 77.6469 21.3397 77.6264 21.0396 77.546C20.7395 77.4656 20.4581 77.3268 20.2117 77.1377C19.9652 76.9486 19.7584 76.7128 19.603 76.4437C19.4477 76.1746 19.3469 75.8776 19.3063 75.5696C19.2658 75.2616 19.2863 74.9486 19.3667 74.6485C19.5291 74.0424 19.9256 73.5257 20.469 73.2119C21.0124 72.8982 21.6581 72.8132 22.2642 72.9756C22.8703 73.138 23.387 73.5345 23.7007 74.0779C24.0145 74.6213 24.0995 75.267 23.9371 75.8731Z" fill="white"/>
<path d="M43.6161 109.464L38.3392 112.777C38.3392 112.777 39.5944 111.093 40.8623 110.53C42.1303 109.968 43.6161 109.464 43.6161 109.464Z" fill="black"/>
<path d="M39.2146 104.938C39.2146 104.938 34.1091 107.67 33.0968 107.559C32.0846 107.448 35.0108 105.267 36.6778 105.22C38.3449 105.172 39.2146 104.938 39.2146 104.938Z" fill="black"/>
<path d="M35.2021 100.082C35.2021 100.082 33.4148 100.8 32.758 100.044C32.1012 99.2881 33.9938 97.3599 33.9938 97.3599L35.2021 100.082Z" fill="black"/>
<path d="M60.4414 83.6738C60.4414 83.6738 60.5009 83.8266 60.5171 83.8692C60.7713 84.0065 60.9779 84.1459 61.1132 84.2813C62.0245 85.1927 67.2318 92.2479 68.6356 93.8491C69.2672 94.5695 72.0268 97.1315 74.8644 99.7282C75.8191 98.8555 76.5209 97.4962 77.3929 96.2206C79.2331 93.5289 84.6972 92.4112 78.218 91.5358C71.7387 90.6604 60.4414 83.6738 60.4414 83.6738Z" fill="black"/>
</svg>
