<svg width="132" height="127" viewBox="0 0 132 127" fill="none" xmlns="http://www.w3.org/2000/svg">
<rect width="132" height="127" fill="#1E1E1E"/>
<g id="Home" clip-path="url(#clip0_0_1)">
<rect width="1920" height="13767" transform="translate(-218 -11238)" fill="#FCFFF5"/>
<rect id="Rectangle 15" width="1920" height="1305" transform="matrix(1 0 0 -1 -218 697)" fill="white"/>
<g id="Group 173">
<g id="Group 172">
<g id="Group 157">
<rect id="Rectangle 19" x="-0.5" y="0.5" width="336" height="266" rx="29.5" transform="matrix(-1 0 0 1 236 -31)" fill="#FCFFF5" stroke="black"/>
<g id="Group 149">
<g id="Group 148">
<g id="Gym_Suit">
<g id="Group">
<g id="Group_2">
<g id="Group_3">
<path id="Vector" d="M58.6118 22.6606C58.6055 22.6589 58.5991 22.6572 58.5906 22.6549C57.995 22.484 57.6506 21.8595 57.8222 21.2618L60.8371 10.7907C61.0087 10.193 61.6116 9.89508 62.2287 10.0195C62.8265 10.191 63.1709 10.8155 62.9999 11.4111L59.9838 21.8865C59.8145 22.4757 59.2018 22.8187 58.6118 22.6606Z" fill="black"/>
</g>
<g id="Group_4">
<path id="Vector_2" d="M106.235 122.064C105.932 123.652 104.066 124.478 102.309 123.884C97.2299 122.131 91.8042 121.119 86.5712 121.313C84.51 121.399 82.8422 119.65 83.2567 117.92C84.5189 112.66 85.6978 105.511 85.1566 100.749C85.0855 100.19 84.3568 100.068 84.124 100.571C82.0609 104.88 78.8904 111.397 76.7613 115.86C76.1946 117.059 74.6829 117.661 73.1998 117.239C67.0615 115.496 61.2784 113.161 55.5599 110.401C54.1048 109.691 53.4344 108.161 54.0194 106.894C61.0359 91.4832 66.9002 80.4343 74.3615 66.991C74.6937 66.3927 75.4061 66.1168 76.052 66.3636C87.2968 70.3233 97.1465 72.9283 107.798 74.9925C109.432 75.3078 110.645 76.7377 110.617 78.4001C110.621 78.4709 110.557 80.6697 110.555 80.7406C110.215 94.1057 108.758 109.259 106.235 122.064Z" fill="#3A97D4"/>
</g>
<g id="Group_5">
<path id="Vector_3" d="M110.555 80.7406C96.6149 81.4393 85.054 80.7827 71.9763 71.3119C72.3883 70.5331 73.9477 67.7371 74.3618 66.9909C74.694 66.3926 75.4064 66.1168 76.0523 66.3636C87.2967 70.3232 96.9998 72.8998 107.798 74.9925C109.433 75.3078 110.646 76.7377 110.617 78.4001C110.622 78.4709 110.558 80.6697 110.555 80.7406Z" fill="#5BD9C3"/>
</g>
<g id="Group_6">
<path id="Vector_4" d="M92.9204 65.7011C92.3325 65.5436 91.9744 64.9449 92.1182 64.3489C93.5466 58.4747 95.0855 52.5618 96.6931 46.7742C96.8592 46.1796 97.4716 45.8297 98.0679 45.9894L98.0785 45.9923C98.6752 46.159 99.0277 46.7788 98.8604 47.3777C97.2596 53.1398 95.727 59.0293 94.3048 64.8802C94.1566 65.4842 93.5504 65.854 92.9458 65.7079C92.9373 65.7056 92.9289 65.7033 92.9204 65.7011Z" fill="black"/>
</g>
<g id="Group_7">
<path id="Vector_5" d="M76.3328 69.2912C76.3166 69.7199 76.3472 70.2156 76.69 70.4736C78.1155 71.5465 80.4582 67.1591 79.8267 63.5421C79.7679 63.205 79.6834 62.8614 79.4813 62.5852C79.2793 62.3091 78.9344 62.1136 78.5983 62.1774C77.8282 62.3234 77.3258 64.1075 77.1173 64.7621C76.6513 66.2246 76.3909 67.758 76.3328 69.2912Z" fill="#FFC372"/>
</g>
<g id="Group_8">
<path id="Vector_6" d="M104.4 76.8098C104.384 77.2385 104.414 77.7342 104.757 77.9922C106.183 79.065 108.525 74.6776 107.894 71.0607C107.835 70.7236 107.751 70.38 107.548 70.1038C107.346 69.8277 107.002 69.6322 106.665 69.6959C105.895 69.842 105.393 71.6261 105.184 72.2806C104.718 73.7431 104.458 75.2765 104.4 76.8098Z" fill="#FFC372"/>
</g>
<g id="Group_9">
<g id="Group_10">
<path id="Vector_7" d="M109.926 72.0899C106.508 71.1741 122.377 75.7978 74.635 61.5835C73.3783 61.2084 72.6651 59.8878 73.0373 58.6327C73.4064 57.3983 74.6882 56.6867 75.9232 57.0176C79.3411 57.9334 63.4715 53.3097 111.214 67.5241C112.471 67.8992 113.184 69.2197 112.812 70.4748C112.443 71.7092 111.161 72.4208 109.926 72.0899Z" fill="#E2D2F6"/>
</g>
</g>
<g id="Group_11">
<g id="Group_12">
<path id="Vector_8" d="M44.2347 27.6936C43.201 27.4166 42.4502 26.4601 42.4785 25.3431C42.5129 24.0334 43.6029 22.9994 44.9109 23.0309C48.257 23.117 51.4954 21.3853 52.787 18.8203C53.2572 17.8888 54.2778 17.3733 55.303 17.5473C58.4398 18.0833 61.3047 18.8557 63.685 19.5391C64.4862 19.7706 65.1099 20.4053 65.3233 21.2106C66.0097 23.7949 67.4178 26.057 69.5089 27.9362C70.483 28.8111 70.5629 30.312 69.688 31.2862C68.8114 32.2575 67.3133 32.3356 66.338 31.4652C63.3172 28.7694 63.6383 27.5792 61.7604 26.9328C58.1476 25.6894 55.7033 24.3945 51.027 26.514C49.0859 27.3938 46.9229 27.8424 44.7906 27.7754C44.598 27.7694 44.4114 27.741 44.2347 27.6936Z" fill="#E2D2F6"/>
</g>
</g>
<g id="Group_13">
<path id="Vector_9" d="M85.0458 61.8492C81.7679 62.4439 78.2944 63.0359 75.0864 63.9196C73.9769 64.2116 72.8792 63.4511 72.737 62.3324C72.555 61.1785 72.1775 60.0216 71.5676 58.9988C66.7974 72.0362 63.1005 85.5578 61.5271 99.4025C61.3373 101.12 59.6323 102.259 57.9554 101.736C45.5144 97.7641 33.1759 93.5003 20.7349 89.5283C19.3497 89.108 18.5341 87.6617 18.8918 86.2351C21.9632 74.3141 25.4258 62.3996 29.1784 50.6855C28.4539 51.0069 27.6651 51.3851 26.893 51.7921C25.7373 52.4399 24.3089 52.18 23.4455 51.1873C21.2499 48.6591 19.0711 46.1602 16.7884 43.6823C15.7035 42.5077 15.8326 40.6515 17.0866 39.6368C21.9408 35.6338 26.4501 31.268 30.5213 26.6128C30.9436 26.1367 31.4955 25.8181 32.0899 25.7073C38.0795 24.5533 42.7407 23.3859 49.2716 22.159C45.0281 28.9604 52.0078 37.7098 60.7079 35.929C64.426 35.1574 68.1301 30.7725 68.5619 27.3278C73.2031 30.3475 77.7835 34.688 79.4362 35.8645C79.7262 36.0648 79.9519 36.3219 80.0845 36.6521C81.2134 39.3121 86.6773 53.1025 86.6187 60.0112C86.5976 60.9144 85.9291 61.6681 85.0458 61.8492Z" fill="#FF5F6E"/>
</g>
<g id="Group_14">
<path id="Vector_10" d="M71.4336 29.3498C69.5457 35.1339 64.5385 39.8747 58.4285 39.7631C48.2707 39.592 42.7949 31.7927 45.4621 22.9063C46.709 22.6511 47.979 22.4021 49.2718 22.1592C45.0283 28.9606 52.008 37.7101 60.7081 35.9293C64.4263 35.1577 68.1303 30.7727 68.5622 27.3281C69.5241 27.9539 70.4904 28.6549 71.4336 29.3498Z" fill="#FFC372"/>
</g>
<g id="Group_15">
<path id="Vector_11" d="M57.6132 102.808C52.4048 101.144 47.2164 99.4307 42.0276 97.7106C41.4383 97.5163 41.1181 96.8778 41.3145 96.2891C41.511 95.7003 42.14 95.3389 42.7361 95.576C47.9164 97.2938 53.0963 99.0047 58.2983 100.667C59.469 100.938 60.2994 100.203 60.4072 99.2647C61.5837 88.9492 63.958 78.3565 67.6699 66.8803C67.8599 66.2898 68.4309 65.8651 69.0852 66.1564C69.6757 66.3465 70.0013 66.9818 69.8091 67.5717C66.1471 78.9043 63.8018 89.3547 62.6406 99.5197C62.3585 102.01 59.8481 103.575 57.6132 102.808Z" fill="black"/>
</g>
<g id="Group_16">
<path id="Vector_12" d="M29.3985 50.6299C29.3942 50.6288 29.39 50.6276 29.3857 50.6265C29.0882 50.54 28.9171 50.228 29.0042 49.9284C30.4861 44.8645 31.2999 39.6034 31.4233 34.2961C31.4312 33.9866 31.6879 33.7415 32.0001 33.7478C32.3053 33.7546 32.5547 34.0124 32.5484 34.3246C32.4217 39.7289 31.5914 45.0856 30.0839 50.245C29.9985 50.5382 29.6934 50.7089 29.3985 50.6299Z" fill="black"/>
</g>
<g id="Group_17">
<path id="Vector_13" d="M70.8685 59.5666C71.4177 54.8009 73.358 50.3011 76.48 46.5524C76.6786 46.3122 77.0393 46.2815 77.2705 46.4799C77.5107 46.6784 77.5431 47.0328 77.343 47.2703C74.3634 50.8526 72.5096 55.1481 71.9844 59.6972C71.9499 60.0042 71.6696 60.227 71.3611 60.1898C71.0705 60.1616 70.8315 59.8889 70.8685 59.5666Z" fill="black"/>
</g>
<g id="Group_18">
<path id="Vector_14" d="M26.8532 87.1732C25.4823 86.2373 24.6211 84.494 24.5522 82.5104C24.4921 80.7908 24.9828 79.1209 25.4881 77.5573C25.5832 77.2621 25.9251 77.1149 26.1972 77.1946C26.4918 77.2917 26.6549 77.6084 26.5599 77.9036C26.0843 79.3728 25.6226 80.9345 25.6773 82.4707C25.7325 84.0981 26.4101 85.5079 27.4891 86.2428C27.7446 86.4182 27.8102 86.7678 27.6364 87.026C27.4734 87.2639 27.1387 87.3573 26.8532 87.1732Z" fill="black"/>
</g>
<g id="Group_19">
<path id="Vector_15" d="M72.4571 113.184C72.172 113.06 72.0422 112.73 72.1663 112.445C74.0162 108.189 76.1782 104.042 78.5944 100.118C78.9937 99.476 79.9393 100.082 79.5512 100.706C77.1651 104.586 75.0268 108.687 73.1969 112.894C73.0717 113.181 72.7377 113.308 72.4571 113.184Z" fill="black"/>
</g>
<g id="Group_20">
<path id="Vector_16" d="M49.9777 57.2782L50.9618 62.2177C51.0121 62.47 51.1833 62.6814 51.4197 62.7831L56.0466 64.7726C56.6418 65.0286 56.6852 65.856 56.1199 66.1728L51.7264 68.6351C51.5019 68.7609 51.3537 68.989 51.3301 69.2452L50.8677 74.2605C50.8082 74.9057 50.0347 75.2026 49.5588 74.7629L45.8593 71.3453C45.6703 71.1707 45.4075 71.1003 45.1566 71.157L40.2439 72.267C39.6119 72.4098 39.0905 71.7659 39.3616 71.1774L41.4687 66.6029C41.5764 66.3692 41.5621 66.0975 41.4307 65.8763L38.8569 61.5471C38.5258 60.9902 38.977 60.2953 39.6205 60.3713L44.6223 60.9617C44.8778 60.9919 45.1318 60.8944 45.3015 60.701L48.6234 56.9154C49.0508 56.4284 49.8511 56.6428 49.9777 57.2782Z" fill="white"/>
</g>
<g id="Group_21">
<path id="Vector_17" d="M98.2338 106.685C99.3929 110.041 99.3048 110.028 99.6565 110.126L102.832 111.005C103.241 111.118 103.342 111.651 103.004 111.906C100.171 114.046 100.155 113.958 100.171 114.323L100.316 117.614C100.335 118.038 99.8598 118.299 99.5124 118.056C96.6023 116.023 96.6809 115.981 96.3391 116.109L93.2531 117.264C92.8561 117.413 92.461 117.042 92.5846 116.636C93.6192 113.24 93.6831 113.302 93.4558 113.016L91.4037 110.438C91.1397 110.107 91.3706 109.616 91.7944 109.608C95.3439 109.543 95.3048 109.623 95.5061 109.319L97.3238 106.57C97.5576 106.217 98.0954 106.285 98.2338 106.685Z" fill="white"/>
</g>
</g>
</g>
</g>
</g>
</g>
</g>
</g>
</g>
</g>
<defs>
<clipPath id="clip0_0_1">
<rect width="1920" height="13767" fill="white" transform="translate(-218 -11238)"/>
</clipPath>
</defs>
</svg>
