<svg width="119" height="127" viewBox="0 0 119 127" fill="none" xmlns="http://www.w3.org/2000/svg">
<path d="M11.7737 104.805L76.5512 113.904C77.2582 114.003 77.9118 113.511 78.0111 112.804L89.8474 28.539C89.9467 27.832 89.4541 27.1784 88.7471 27.0791L23.9696 17.9801C23.2627 17.8808 22.609 18.3734 22.5097 19.0804L10.6735 103.345C10.5742 104.052 11.0668 104.706 11.7737 104.805Z" fill="#E73F46"/>
<mask id="mask0_94_455" style="mask-type:luminance" maskUnits="userSpaceOnUse" x="10" y="17" width="80" height="97">
<path d="M11.774 104.805L76.5514 113.904C77.2584 114.003 77.912 113.511 78.0114 112.804L89.8476 28.539C89.9469 27.832 89.4543 27.1784 88.7473 27.0791L23.9699 17.9801C23.2629 17.8808 22.6093 18.3734 22.51 19.0804L10.6737 103.345C10.5744 104.052 11.067 104.706 11.774 104.805Z" fill="white"/>
</mask>
<g mask="url(#mask0_94_455)">
<path d="M27.706 16.3609C27.706 16.3609 10.3843 96.5765 48.0823 112.279L6.56281 111.621L-3.90007 61.0264L14.3652 8.00687L27.706 16.3609Z" fill="#CC3745"/>
</g>
<path d="M18.0282 95.645L73.1562 103.415L83.5693 29.4729L28.4503 21.7054C23.0229 46.0369 19.5379 70.7613 18.0282 95.645Z" fill="#C6C6C6"/>
<path d="M24.2713 94.3829L79.8563 100.798C75.4458 77.1052 77.7253 52.848 86.6087 29.8951L28.6604 21.326C24.2232 45.4081 22.7492 69.9427 24.2713 94.3829Z" fill="#EDEDED"/>
<path d="M44.8123 27.6729L66.1196 30.6658C66.7807 30.7587 67.3919 30.298 67.4848 29.6369L68.3725 23.3172C68.4654 22.6561 68.0047 22.0448 67.3436 21.952L46.0363 18.959C45.3752 18.8662 44.764 19.3268 44.6711 19.988L43.7834 26.3077C43.6906 26.9688 44.1512 27.5801 44.8123 27.6729Z" fill="#EFBD42"/>
<path d="M43.2276 36.0282C43.1367 36.0096 43.0569 35.9556 43.0058 35.8782C42.9547 35.8008 42.9364 35.7062 42.955 35.6153C42.9736 35.5244 43.0275 35.4446 43.105 35.3935C43.1824 35.3424 43.277 35.3241 43.3679 35.3427L65.4545 38.4554C65.5468 38.4686 65.6301 38.518 65.686 38.5927C65.742 38.6673 65.7659 38.7611 65.7527 38.8535C65.7395 38.9458 65.6901 39.0291 65.6155 39.085C65.5408 39.1409 65.447 39.1649 65.3546 39.1517C42.2867 35.8966 43.2613 36.0372 43.2276 36.0282Z" fill="#2D1929"/>
<path d="M31.3852 43.4204C31.3402 43.4112 31.2974 43.3932 31.2594 43.3674C31.2213 43.3417 31.1887 43.3087 31.1634 43.2704C31.1381 43.2321 31.1206 43.1891 31.1118 43.144C31.1031 43.0989 31.1034 43.0525 31.1126 43.0075C31.1218 42.9625 31.1398 42.9197 31.1655 42.8817C31.1913 42.8436 31.2242 42.811 31.2626 42.7857C31.3009 42.7604 31.3439 42.7429 31.389 42.7342C31.4341 42.7254 31.4805 42.7257 31.5255 42.7349L38.6674 43.74C38.7592 43.7536 38.8419 43.8027 38.8978 43.8768C38.9537 43.9508 38.9783 44.0438 38.9663 44.1358C38.9598 44.1812 38.9445 44.2249 38.9211 44.2644C38.8977 44.3039 38.8668 44.3384 38.8301 44.366C38.7934 44.3935 38.7517 44.4136 38.7072 44.425C38.6627 44.4364 38.6165 44.4389 38.5711 44.4324C31.0156 43.3695 31.4189 43.4294 31.3852 43.4204Z" fill="#2D1929"/>
<path d="M41.9749 44.9118C41.9299 44.9026 41.8872 44.8846 41.8491 44.8588C41.8111 44.8331 41.7784 44.8001 41.7531 44.7618C41.7278 44.7235 41.7103 44.6805 41.7016 44.6354C41.6929 44.5903 41.6931 44.5439 41.7023 44.4989C41.7116 44.4539 41.7295 44.4111 41.7553 44.3731C41.781 44.335 41.814 44.3024 41.8523 44.2771C41.8907 44.2518 41.9336 44.2343 41.9787 44.2256C42.0238 44.2168 42.0702 44.2171 42.1152 44.2263L72.631 48.5323C72.7233 48.5455 72.8066 48.5949 72.8625 48.6695C72.9184 48.7442 72.9424 48.838 72.9292 48.9303C72.916 49.0227 72.8666 49.106 72.7919 49.1619C72.7173 49.2178 72.6235 49.2418 72.5311 49.2286C41.3354 44.8248 42.0087 44.9208 41.9749 44.9118Z" fill="#2D1929"/>
<path d="M30.5271 49.5159C30.4362 49.4973 30.3564 49.4434 30.3053 49.3659C30.2542 49.2885 30.2359 49.1939 30.2545 49.103C30.2731 49.0121 30.3271 48.9324 30.4045 48.8812C30.4819 48.8301 30.5765 48.8119 30.6674 48.8305L71.7747 54.6247C71.8671 54.6376 71.9506 54.6868 72.0068 54.7613C72.063 54.8358 72.0873 54.9295 72.0744 55.0219C72.0614 55.1144 72.0123 55.1979 71.9378 55.2541C71.8633 55.3103 71.7695 55.3346 71.6771 55.3216C29.2635 49.3388 30.5609 49.525 30.5271 49.5159Z" fill="#2D1929"/>
<path d="M29.6929 55.4349C29.602 55.4163 29.5222 55.3623 29.4711 55.2849C29.42 55.2074 29.4017 55.1129 29.4203 55.022C29.4389 54.9311 29.4929 54.8513 29.5703 54.8002C29.6477 54.7491 29.7423 54.7308 29.8332 54.7494L70.9405 60.5437C71.0329 60.5566 71.1164 60.6057 71.1726 60.6802C71.2288 60.7547 71.2531 60.8485 71.2401 60.9409C71.2272 61.0333 71.1781 61.1168 71.1036 61.173C71.0291 61.2292 70.9353 61.2535 70.8429 61.2406C28.4286 55.26 29.7289 55.4445 29.6929 55.4349Z" fill="#2D1929"/>
<path d="M29.787 61.0662C29.6961 61.0476 29.6163 60.9936 29.5652 60.9162C29.5141 60.8388 29.4958 60.7442 29.5144 60.6533C29.533 60.5624 29.5869 60.4826 29.6644 60.4315C29.7418 60.3804 29.8364 60.3621 29.9273 60.3807L51.8747 63.473C51.9671 63.4862 52.0503 63.5356 52.1063 63.6102C52.1622 63.6849 52.1862 63.7787 52.173 63.871C52.1597 63.9633 52.1104 64.0466 52.0357 64.1026C51.9611 64.1585 51.8672 64.1825 51.7749 64.1693C28.7987 60.9315 29.8207 61.0752 29.787 61.0662Z" fill="#2D1929"/>
<path d="M54.7298 88.8987C54.6389 88.88 54.5591 88.8261 54.5079 88.7487C54.4568 88.6712 54.4386 88.5767 54.4572 88.4858C54.4758 88.3949 54.5297 88.3151 54.6071 88.264C54.6846 88.2129 54.7791 88.1946 54.87 88.2132L73.0293 90.7724C73.1217 90.7857 73.205 90.835 73.2609 90.9097C73.3168 90.9843 73.3408 91.0782 73.3276 91.1705C73.3143 91.2628 73.265 91.3461 73.1903 91.4021C73.1157 91.458 73.0219 91.482 72.9295 91.4687C53.8739 88.7826 54.7635 88.9077 54.7298 88.8987Z" fill="#2D1929"/>
<path d="M65.3296 87.1163C65.1101 87.0567 64.895 86.9822 64.6856 86.8932C64.3133 86.7356 63.8883 86.3879 63.6826 85.6266C62.5532 85.9916 61.5288 85.9919 60.6241 85.6265C58.9605 84.9542 58.3565 83.2956 58.321 83.2211C58.2897 83.1338 58.2945 83.0376 58.3341 82.9538C58.3737 82.8699 58.4451 82.8052 58.5324 82.774C58.6197 82.7427 58.7159 82.7474 58.7997 82.7871C58.8836 82.8267 58.9482 82.8981 58.9795 82.9854C58.9759 82.9989 59.5199 84.4317 60.893 84.9828C61.6637 85.2905 62.5625 85.2734 63.56 84.9237C63.335 81.5446 66.5467 74.9915 68.2266 74.2896C68.7038 74.0921 69.1414 74.2937 69.3725 74.7895C70.1938 76.5906 68.6661 83.2455 64.7387 85.1841C64.5997 85.2529 64.462 85.3172 64.3261 85.3748C64.4318 85.8257 64.639 86.1167 64.9478 86.2476C67.4503 87.3062 68.5592 85.2727 68.6064 85.1865C68.6494 85.1044 68.7234 85.0428 68.8119 85.0152C68.9004 84.9876 68.9963 84.9963 69.0784 85.0394C69.1605 85.0825 69.2221 85.1564 69.2497 85.245C69.2773 85.3335 69.2685 85.4293 69.2255 85.5114C68.8572 86.1838 68.2698 86.7098 67.5609 87.0018C66.8521 87.2938 66.0646 87.3342 65.3296 87.1163ZM68.5127 74.9399C67.2707 75.4555 64.2317 81.3824 64.2632 84.647L64.4454 84.5608C68.0761 82.7668 69.3659 76.4242 68.7549 75.0795C68.6644 74.8866 68.6083 74.898 68.5127 74.9399Z" fill="#2D1929"/>
<path d="M35.9154 84.0673C34.6963 83.7388 33.5979 83.0654 32.7522 82.1279C31.9064 81.1904 31.3493 80.0287 31.1477 78.7823C30.9461 77.5359 31.1086 76.2578 31.6156 75.1014C32.1227 73.9451 32.9527 72.9598 34.0061 72.2637C35.0595 71.5676 36.2915 71.1904 37.554 71.1774C38.8165 71.1643 40.056 71.5161 41.1235 72.1903C42.1911 72.8645 43.0413 73.8325 43.5721 74.9781C44.1028 76.1237 44.2917 77.3982 44.1158 78.6485C43.9846 79.568 43.6599 80.4493 43.1631 81.2341C42.6664 82.0189 42.0088 82.6895 41.2339 83.2016C40.459 83.7137 39.5842 84.0556 38.6675 84.2048C37.7507 84.354 36.8127 84.3072 35.9154 84.0673ZM33.812 72.6773C32.8127 73.4297 32.0589 74.4615 31.646 75.6423C31.2331 76.8231 31.1795 78.0998 31.4921 79.311C31.8047 80.5222 32.4694 81.6135 33.4022 82.447C34.3349 83.2804 35.4939 83.8186 36.7325 83.9935C37.9711 84.1683 39.2337 83.972 40.3608 83.4294C41.4878 82.8867 42.4287 82.022 43.0644 80.9447C43.7 79.8674 44.002 78.6258 43.9321 77.3768C43.8622 76.1279 43.4236 74.9277 42.6716 73.9281C42.1721 73.264 41.5467 72.7049 40.8311 72.2827C40.1155 71.8604 39.3237 71.5833 38.5009 71.4672C37.6782 71.351 36.8406 71.3981 36.0361 71.6057C35.2315 71.8134 34.4758 72.1775 33.812 72.6773Z" fill="#2D1929"/>
<path d="M35.2612 86.5562C35.0363 86.4959 34.9386 86.1588 34.8458 85.8038C34.788 85.5786 34.7074 85.2678 34.6092 85.2294C34.511 85.1911 34.2274 85.3681 34.0284 85.4811C33.7191 85.673 33.4298 85.8534 33.2153 85.7453C33.0008 85.6372 32.9989 85.2848 32.9937 84.9171C32.9933 84.6759 32.9878 84.3635 32.9008 84.3017C32.8137 84.2398 32.5038 84.3351 32.2795 84.4075C31.9343 84.5175 31.6044 84.6243 31.4293 84.4593C31.2542 84.2943 31.3249 83.9493 31.4171 83.6053C31.4774 83.3804 31.5431 83.063 31.4733 82.9816C31.4036 82.9003 31.0825 82.9203 30.8467 82.9366C30.4832 82.9622 30.1411 82.9886 30.0056 82.7836C29.8701 82.5786 30.0283 82.2763 30.1947 81.9521C30.2999 81.7393 30.4458 81.4554 30.3972 81.3581C30.3486 81.2607 30.0327 81.2074 29.8001 81.1667C29.4409 81.1042 29.1087 81.0489 29.0188 80.8176C28.929 80.5862 29.1502 80.3274 29.3987 80.0565C29.5531 79.8762 29.7655 79.6318 29.7414 79.5241C29.7172 79.4164 29.4228 79.2918 29.2092 79.1984C28.8752 79.051 28.5624 78.9142 28.5337 78.6703C28.505 78.4264 28.7884 78.2324 29.0827 78.0245C29.2765 77.886 29.5434 77.6996 29.5441 77.5889C29.5448 77.4783 29.2963 77.2815 29.1105 77.1474C28.8189 76.9222 28.5429 76.7109 28.5702 76.4652C28.5975 76.2194 28.9249 76.095 29.2671 75.9602C29.4826 75.8757 29.7816 75.7582 29.8064 75.6564C29.8313 75.5546 29.6329 75.2966 29.4853 75.11C29.2596 74.8278 29.0444 74.5605 29.1351 74.3389C29.2258 74.1174 29.5672 74.0667 29.93 74.0169C30.162 73.9874 30.4796 73.9448 30.5314 73.8502C30.5833 73.7557 30.4482 73.4592 30.3513 73.2452C30.1987 72.9151 30.0554 72.6044 30.1948 72.4079C30.3342 72.2115 30.6809 72.2489 31.0439 72.2884C31.2778 72.3149 31.5963 72.3496 31.6682 72.2701C31.7401 72.1905 31.6828 71.8739 31.6387 71.6427C31.5685 71.2841 31.5047 70.9465 31.6886 70.7909C31.8725 70.6353 32.1958 70.7508 32.5382 70.8763C32.7576 70.9568 33.0607 71.067 33.1515 71.0069C33.2423 70.9469 33.2539 70.6246 33.2709 70.3906C33.2888 70.0266 33.3077 69.6774 33.5235 69.5737C33.7393 69.4701 34.0241 69.6573 34.3262 69.8611C34.5205 69.9903 34.7902 70.171 34.892 70.1332C34.9937 70.0954 35.0852 69.7897 35.1522 69.5667C35.2581 69.2166 35.3555 68.8981 35.5904 68.8309C35.8253 68.7637 36.0552 69.0301 36.2986 69.3002C36.4588 69.4757 36.67 69.7131 36.7859 69.7032C36.9018 69.6932 37.055 69.4185 37.1741 69.2167C37.3596 68.9024 37.5385 68.6033 37.783 68.6086C38.2142 68.6181 38.4577 69.6884 38.7324 69.7427C38.8439 69.7581 39.0726 69.5253 39.2386 69.3553C39.4909 69.0975 39.7293 68.8553 39.9615 68.9152C40.1977 68.9784 40.2857 69.3153 40.3769 69.6676C40.437 69.8933 40.5176 70.2041 40.6157 70.2425C40.7139 70.2809 40.9945 70.115 41.1943 69.9902C41.5036 69.7983 41.7929 69.618 42.0074 69.7261C42.2219 69.8341 42.2255 70.1894 42.229 70.5543C42.2294 70.7954 42.2371 71.1084 42.3236 71.1725C42.41 71.2366 42.7212 71.1368 42.9455 71.0644C43.2907 70.9544 43.6183 70.847 43.7957 71.0126C43.973 71.1782 43.9 71.5226 43.8078 71.8667C43.7476 72.0915 43.6796 72.4083 43.7516 72.4903C43.8236 72.5723 44.1425 72.5516 44.376 72.5347C44.7395 72.5092 45.0839 72.4833 45.2171 72.6877C45.3503 72.8922 45.1944 73.195 45.0303 73.5198C44.9228 73.732 44.7769 74.0159 44.8277 74.1139C44.8786 74.2118 45.1917 74.2668 45.4226 74.3046C45.784 74.3677 46.1134 74.4246 46.2039 74.6537C46.2943 74.8828 46.0613 75.1409 45.824 75.4148C45.6697 75.5951 45.4684 75.8425 45.4836 75.9478C45.4987 76.0531 45.7999 76.1796 46.0135 76.2729C46.3498 76.4209 46.6597 76.5594 46.6906 76.8039C46.7215 77.0483 46.4343 77.2389 46.14 77.4468C45.9462 77.5853 45.6816 77.7723 45.6786 77.8824C45.6756 77.9924 45.9287 78.1904 46.1145 78.3245C46.406 78.5497 46.6798 78.7604 46.6547 79.0068C46.6237 79.2395 46.2978 79.3763 45.9556 79.5112C45.7401 79.5956 45.4434 79.7137 45.4163 79.8149C45.3891 79.9161 45.5914 80.1776 45.7374 80.3613C45.9653 80.6441 46.1783 80.9109 46.0898 81.133C46.0014 81.3551 45.6549 81.4069 45.2814 81.4515C45.0488 81.4831 44.7335 81.5264 44.6823 81.6187C44.631 81.711 44.7633 82.0091 44.8624 82.2237C45.015 82.5538 45.1583 82.8645 45.0166 83.0604C44.875 83.2562 44.5328 83.22 44.1698 83.1805C43.9359 83.154 43.6174 83.1193 43.5432 83.1982C43.4691 83.2772 43.5309 83.595 43.575 83.8262C43.643 84.1842 43.709 84.5224 43.5251 84.678C43.3412 84.8336 43.0179 84.7181 42.6755 84.5926C42.4561 84.5121 42.1507 84.4014 42.0599 84.4614C41.9692 84.5214 41.9575 84.8437 41.9428 85.0783C41.9249 85.4423 41.906 85.7915 41.6902 85.8952C41.4745 85.9988 41.1896 85.8117 40.8869 85.61C40.6819 85.4756 40.4235 85.2979 40.3195 85.3351C40.2155 85.3723 40.1262 85.6786 40.0592 85.9016C39.9646 86.2547 39.8546 86.5843 39.6211 86.6374C39.3875 86.6905 39.1563 86.4382 38.9123 86.1703C38.7543 85.9954 38.5415 85.7552 38.4256 85.7652C38.3096 85.7751 38.1581 86.0526 38.0396 86.2522C37.8513 86.5681 37.6722 86.8768 37.4307 86.8603C36.9983 86.8553 36.7572 85.7761 36.4791 85.7256C36.3675 85.7102 36.1411 85.9436 35.9751 86.1136C35.809 86.2836 35.5153 86.6243 35.2612 86.5562ZM34.6605 85.0021C34.9146 85.0702 34.9999 85.4715 35.0715 85.7437C35.1299 85.9667 35.218 86.3036 35.3214 86.3313C35.3821 86.3476 35.4893 86.2895 35.8179 85.9534C36.0633 85.7034 36.2954 85.4667 36.523 85.4988C36.7506 85.5309 36.9179 85.8239 37.0771 86.1293C37.1834 86.3265 37.3437 86.6273 37.4493 86.6291C37.5549 86.6309 37.7361 86.3324 37.8518 86.1344C38.0273 85.8392 38.1941 85.5585 38.417 85.5363C38.6399 85.5141 38.8639 85.7573 39.099 86.0131C39.2515 86.1817 39.4821 86.4363 39.5847 86.4132C39.6873 86.3901 39.7884 86.058 39.8548 85.8372C39.9552 85.5074 40.0485 85.195 40.2593 85.1189C40.4701 85.0428 40.7466 85.2254 41.0347 85.4183C41.2252 85.544 41.5088 85.7357 41.6033 85.6887C41.6979 85.6418 41.7088 85.2952 41.7284 85.0691C41.7467 84.7221 41.7618 84.3959 41.9429 84.2685C42.1241 84.1411 42.4294 84.2519 42.7673 84.3762C42.9873 84.4544 43.3033 84.5704 43.3863 84.5035C43.4693 84.4365 43.4016 84.0954 43.358 83.8716C43.2926 83.5312 43.2297 83.2082 43.3849 83.0425C43.5402 82.8769 43.8631 82.9128 44.2076 82.9496C44.4415 82.9762 44.7763 83.0129 44.8404 82.9264C44.9046 82.84 44.7568 82.528 44.6626 82.322C44.507 82.0031 44.3793 81.7062 44.4899 81.5093C44.6005 81.3124 44.9209 81.2681 45.2633 81.2224C45.4908 81.1918 45.8332 81.1462 45.875 81.0441C45.9168 80.942 45.6999 80.6814 45.5572 80.5034C45.3381 80.2326 45.1323 79.9751 45.192 79.7524C45.2516 79.5298 45.5517 79.4174 45.8723 79.2912C46.0986 79.2024 46.4106 79.0812 46.4255 78.9718C46.4403 78.8625 46.1732 78.6632 45.9826 78.5109C45.7089 78.3002 45.4507 78.1033 45.4532 77.8871C45.4557 77.6708 45.7244 77.4777 46.012 77.2679C46.1966 77.1366 46.476 76.9392 46.4654 76.8351C46.4547 76.731 46.1386 76.5885 45.9273 76.4957C45.6122 76.3582 45.3123 76.2273 45.2629 76.0068C45.2135 75.7863 45.4272 75.5374 45.6547 75.273C45.8045 75.101 46.0279 74.8428 45.9923 74.7416C45.9568 74.6405 45.6155 74.5828 45.3897 74.544C45.0491 74.4841 44.7264 74.429 44.6259 74.2285C44.5254 74.028 44.6721 73.7323 44.8298 73.4227C44.932 73.2211 45.0891 72.9137 45.0307 72.8258C44.9723 72.7378 44.6286 72.7614 44.4001 72.7773C44.0542 72.8003 43.7274 72.8236 43.5806 72.6517C43.4338 72.4799 43.5122 72.1514 43.5883 71.8223C43.6486 71.5974 43.7186 71.2643 43.639 71.1924C43.5595 71.1205 43.2353 71.224 43.019 71.2938C42.6868 71.4 42.3751 71.502 42.1893 71.3679C42.0035 71.2338 42.0033 70.9107 41.9995 70.5651C41.996 70.3352 41.9922 69.9895 41.8977 69.9377C41.8031 69.8858 41.5136 70.0758 41.3226 70.1861C41.032 70.3709 40.7439 70.5468 40.5275 70.455C40.311 70.3633 40.2366 70.0565 40.1495 69.7247C40.0934 69.5024 40.0053 69.1655 39.8996 69.1372C39.8389 69.1209 39.7306 69.1835 39.4025 69.5173C39.1572 69.7673 38.9257 70.0017 38.7003 69.9703C38.4749 69.9388 38.3054 69.6451 38.1462 69.3398C38.0383 69.1397 37.8818 68.8423 37.7746 68.8377C37.6674 68.8331 37.4878 69.1344 37.3698 69.3318C37.1937 69.6293 37.0298 69.9083 36.8069 69.9305C36.5841 69.9527 36.3572 69.7112 36.1226 69.4531C35.9702 69.2845 35.7395 69.0299 35.6392 69.0536C35.5388 69.0774 35.4333 69.4082 35.3669 69.629C35.2777 69.9618 35.1754 70.2718 34.9617 70.3496C34.7481 70.4273 34.4767 70.2437 34.1869 70.048C33.9987 69.9228 33.7128 69.7305 33.6183 69.7775C33.5238 69.8245 33.5123 70.1733 33.4955 70.3977C33.4772 70.7447 33.4593 71.0725 33.281 71.1983C33.1027 71.324 32.7833 71.2119 32.4583 71.0935C32.2388 71.013 31.9206 70.8964 31.8392 70.9662C31.7579 71.036 31.8245 71.372 31.8659 71.5952C31.9336 71.9363 31.9943 72.2586 31.8412 72.4249C31.6882 72.5912 31.363 72.5546 31.0186 72.5178C30.7847 72.4913 30.4476 72.454 30.3851 72.5433C30.3226 72.6326 30.4671 72.9388 30.5614 73.1448C30.7169 73.4637 30.8446 73.7606 30.7357 73.9604C30.6267 74.1601 30.3053 74.1994 29.9653 74.236C29.7378 74.2666 29.3923 74.3235 29.3535 74.4143C29.3147 74.5051 29.5287 74.777 29.6692 74.9544C29.8876 75.2274 30.094 75.4828 30.0343 75.7054C29.9747 75.928 29.6746 76.0404 29.3562 76.1672C29.1277 76.2554 28.8173 76.3795 28.8031 76.4866C28.7889 76.5936 29.0532 76.7946 29.2454 76.9497C29.5175 77.1576 29.775 77.3568 29.7725 77.573C29.77 77.7893 29.5013 77.9824 29.2131 78.1944C29.0291 78.3234 28.7497 78.5209 28.7603 78.625C28.771 78.7291 29.0894 78.8722 29.2985 78.9644C29.6158 79.1024 29.9128 79.2351 29.9628 79.4533C30.0128 79.6716 29.7979 79.9249 29.571 80.1871C29.4235 80.3596 29.1994 80.6202 29.2356 80.719C29.2718 80.8179 29.6124 80.8778 29.836 80.916C30.1766 80.976 30.4993 81.0311 30.6015 81.2344C30.7036 81.4378 30.5536 81.7278 30.387 82.035C30.2817 82.2478 30.1299 82.5445 30.1883 82.6325C30.2467 82.7204 30.5898 82.6991 30.816 82.6826C31.1626 82.6573 31.4924 82.6228 31.6378 82.8088C31.7832 82.9948 31.7092 83.2979 31.6306 83.636C31.5704 83.8608 31.5004 84.194 31.5771 84.2675C31.6538 84.3411 31.9837 84.2343 32.2 84.1645C32.5299 84.0577 32.8433 83.9585 33.0274 84.0898C33.2116 84.2211 33.2134 84.5469 33.2172 84.8926C33.2207 85.1225 33.2245 85.4682 33.319 85.52C33.4136 85.5719 33.7031 85.3819 33.8941 85.2716C34.1877 85.1116 34.4536 84.9467 34.6605 85.0021Z" fill="#2D1929"/>
<path d="M93.5795 19.0737C89.245 22.2168 79.2889 28.7101 70.3544 28.854C69.5296 28.874 68.7887 29.5432 68.5519 30.4992L64.3968 47.1753C62.2936 55.6185 64.6216 64.9019 70.6759 72.5834L77.1782 80.833C77.3788 81.1033 77.6534 81.3097 77.9688 81.4271C78.2842 81.5446 78.6269 81.5681 78.9555 81.4949L85.704 79.8036C95.6243 77.3208 103.504 70.6424 106.92 61.2568L113.306 43.7203C113.681 42.6904 113.351 41.6017 112.51 41.0726C103.765 35.5963 98.4682 24.6111 96.4671 19.8016C95.9655 18.6333 94.6515 18.2932 93.5795 19.0737Z" fill="#917EEC"/>
<mask id="mask1_94_455" style="mask-type:luminance" maskUnits="userSpaceOnUse" x="66" y="23" width="44" height="55">
<path d="M72.8826 70.2913C67.4912 63.4817 65.3865 55.2269 67.2556 47.9453L71.257 32.3464C79.6103 31.9335 88.3609 26.9803 93.8532 23.258C96.4886 29.1725 101.492 38.2379 109.305 43.6765L103.558 59.8802C100.652 68.0795 93.7236 74.0319 84.8942 76.3562L78.9298 77.9274L72.8826 70.2913Z" fill="white"/>
</mask>
<g mask="url(#mask1_94_455)">
<path d="M106.03 36.4704C98.1572 60.1496 82.0245 74.0163 66.4546 78.0292L71.205 90.4419L99.0848 80.2723L119.267 46.0859L122.105 33.4434L106.03 36.4704Z" fill="#6D5FDE"/>
</g>
<path d="M84.3718 59.6874L79.1737 50.3844C79.0542 50.1746 79.0121 49.9295 79.0547 49.6918C79.0973 49.4541 79.2219 49.2389 79.4069 49.0837C79.5919 48.9285 79.8255 48.8431 80.067 48.8425C80.3084 48.8418 80.5425 48.9259 80.7283 49.0801L85.9739 53.3127L98.4769 45.2388C98.6926 45.1014 98.9517 45.049 99.2038 45.0919C99.4559 45.1347 99.6831 45.2697 99.8413 45.4707C99.9995 45.6717 100.077 45.9242 100.06 46.1794C100.042 46.4345 99.9305 46.6741 99.7463 46.8515L85.9839 59.9313C85.8698 60.0395 85.7325 60.1201 85.5825 60.1672C85.4325 60.2143 85.2738 60.2266 85.1183 60.203C84.9629 60.1795 84.8148 60.1208 84.6855 60.0315C84.5561 59.9421 84.4489 59.8244 84.3718 59.6874Z" fill="#EDEDED"/>
</svg>
