<svg width="107" height="109" viewBox="0 0 107 109" fill="none" xmlns="http://www.w3.org/2000/svg">
<path d="M53.3574 44.9175C54.509 40.7331 57.5135 31.8328 59.2755 27.8665C60.2719 25.6243 61.3563 23.3574 62.8576 21.4038C68.3046 14.315 78.5537 11.9809 86.4725 16.3963C102.288 25.2147 93.7724 44.3571 89.2237 57.1528L99.0278 59.2047C104.594 43.5476 111.534 25.648 98.0705 11.7691C86.0189 -0.654068 66.0879 0.771741 55.6258 14.3872C50.6576 20.8515 45.6427 35.0588 43.4674 42.964L53.3574 44.9175Z" fill="#3A97D4"/>
<path d="M99.7519 60.4965L100.572 58.1929C106.125 42.6183 112.42 24.9642 98.8688 10.9971C86.3073 -1.95359 65.5832 -0.395576 54.7421 13.7117C49.6692 20.3124 44.6165 34.5911 42.3934 42.6716L42.0758 43.8277L54.1548 46.214L54.4311 45.2166C55.6122 40.9271 58.6097 32.112 60.2933 28.3216C61.1852 26.3139 62.2619 24.0114 63.741 22.0853C68.8942 15.3791 78.6413 13.3093 85.9305 17.3716C100.513 25.5034 93.3721 42.5494 87.7468 57.9852L99.7519 60.4965ZM97.2722 12.548C109.858 25.521 103.809 42.4813 98.4729 57.4457L98.3054 57.9189L90.7051 56.3288C90.9096 55.7589 91.1228 55.1781 91.3381 54.5875C96.0431 41.7015 102.484 24.0517 87.0138 15.4269C78.7806 10.835 67.7848 13.1668 61.9748 20.7279C58.11 25.7588 54.329 37.5636 52.5647 43.6298L44.8644 42.1082C47.0026 34.6096 51.8248 21.1645 56.5084 15.0691C66.5955 1.94509 85.7452 0.666184 97.2722 12.548Z" fill="#3A97D4"/>
<path d="M22.946 82.2401C27.1041 67.5481 32.5044 53.2253 36.8191 38.617C37.4725 36.4057 38.7686 34.0975 40.8633 33.477C42.9585 32.8562 45.5072 34.0733 47.4967 34.5881C50.3217 35.3189 53.1408 36.0712 55.9547 36.8411C61.5827 38.3805 67.1897 39.9955 72.7761 41.6777C82.3578 44.5633 91.7888 48.255 101.413 50.8854C102.885 51.2877 104.384 51.7725 105.532 52.8058C108.435 55.4187 106.283 59.9785 105.416 63.2761C102.655 73.776 99.443 84.1631 95.7915 94.3956C94.4938 98.0329 92.8386 107.14 88.6738 108.274C85.6848 109.087 83.8144 106.998 28.733 89.8852C26.8783 89.3095 24.4727 89.0171 23.2876 87.2435C22.3428 85.8292 22.486 83.8682 22.946 82.2401Z" fill="#3A97D4"/>
<path d="M46.4316 43.3492C47.5832 39.1647 50.5877 30.2645 52.3497 26.2981C53.3461 24.056 54.4305 21.789 55.9318 19.8355C61.3788 12.7467 71.6279 10.4126 79.5467 14.8279C95.3625 23.6464 86.8467 42.7888 82.2979 55.5845L92.102 57.6363C97.6684 41.9793 104.609 24.0797 91.1448 10.2007C79.0931 -2.22243 59.1621 -0.796618 48.7001 12.8189C43.7319 19.2832 38.7169 33.4904 36.5417 41.3956L46.4316 43.3492Z" fill="#FFC372"/>
<path d="M93.046 58.3038C99.3951 40.4988 105.493 23.3918 91.9431 9.42539C79.4981 -3.40763 58.7447 -2.0806 47.8165 12.1401C42.7395 18.7519 37.6953 33.007 35.4677 41.0999L35.1501 42.2561L47.2292 44.6423L47.5054 43.645C48.6866 39.3554 51.684 30.5403 53.3677 26.7511C54.2595 24.7455 55.3341 22.443 56.8154 20.5147C61.9707 13.8074 71.7157 11.7377 79.0049 15.7999C93.6861 23.9868 86.3084 41.1012 80.8212 56.4135C93.7793 59.1502 92.2707 58.8263 93.046 58.3038ZM90.3465 10.9763C102.68 23.6904 97.2429 39.9052 91.3797 56.3472C89.6026 55.9763 85.7677 55.1726 83.7795 54.7571C83.984 54.1872 84.1971 53.6064 84.4125 53.0158C89.1175 40.1298 95.5583 22.4811 80.0881 13.8552C71.8549 9.2666 60.857 11.5963 55.0491 19.1574C51.1897 24.1797 47.4163 35.9559 45.6391 42.0581L37.9388 40.5366C40.081 33.018 44.9113 19.577 49.5828 13.4974C59.6559 0.391465 78.795 -0.928318 90.3465 10.9763Z" fill="#FFC372"/>
<path d="M16.0195 80.6737C20.1775 65.9817 25.5779 51.6589 29.8926 37.0506C30.546 34.8393 31.8421 32.5311 33.9367 31.9106C36.032 31.2898 38.5807 32.5069 40.5701 33.0217C43.3952 33.7525 46.2143 34.5048 49.0282 35.2747C54.6562 36.8141 60.2632 38.4291 65.8496 40.1113C75.4313 42.9969 84.8622 46.6886 94.4862 49.319C95.9584 49.7213 97.4578 50.2061 98.6059 51.2394C101.509 53.8523 99.3568 58.4121 98.4897 61.7097C95.7287 72.2095 92.5165 82.5967 88.865 92.8292C87.5673 96.4665 85.9121 105.573 81.7473 106.707C78.7583 107.521 76.8879 105.431 21.8065 88.3188C19.9518 87.7431 17.5462 87.4506 16.3611 85.6771C15.4163 84.2628 15.5595 82.3018 16.0195 80.6737Z" fill="#5BD9C3"/>
<path d="M19.2578 9.20509C13.6235 11.0874 7.89299 12.6942 2.07327 13.879C1.08089 14.081 0.349186 14.9217 0.305706 15.9334C0.0499153 21.8862 -0.126278 27.8603 0.590942 33.7706C2.33371 48.1327 8.33471 56.2145 19.7533 63.2774C20.0155 63.4396 20.1777 63.5182 20.478 63.3616C27.7854 59.5526 34.8549 54.3352 38.1799 46.7953C41.3645 39.5736 41.8826 24.4539 41.7791 16.6003C41.7658 15.5982 41.0649 14.7286 40.0915 14.4907C29.8417 11.9867 25.0125 11.1381 20.8817 9.29873C20.3671 9.06955 19.7922 9.02652 19.2578 9.20509Z" fill="#FF5F6E"/>
<path d="M26.3313 61.0259C26.5467 61.0259 26.762 60.965 26.9513 60.8366C38.1183 53.3371 40.8165 46.0314 42.0191 34.9417C42.6803 28.8565 42.974 22.6799 42.8935 16.5838C42.8848 15.9748 42.3888 15.4854 41.7798 15.4854H41.7646C41.149 15.4941 40.6574 15.9987 40.6661 16.6143C40.7466 22.6201 40.4551 28.7053 39.8047 34.7002C38.6566 45.2964 36.2347 51.9206 25.7114 58.9877C25.2002 59.3303 25.0632 60.022 25.4069 60.5332C25.6222 60.853 25.9746 61.0259 26.3313 61.0259Z" fill="black"/>
<path d="M56.5326 54.6463C51.6979 57.4127 50.1547 64.1664 54.1135 68.6938C58.5382 73.7542 66.77 72.3849 69.2762 66.2299C70.4499 63.3475 70.0184 58.6691 67.8764 56.2513C65.1049 53.1229 60.0911 52.6103 56.5326 54.6463Z" fill="white"/>
<path d="M51.0472 78.3078C51.0887 78.7522 51.6617 78.9353 52.104 79.0014C53.5064 79.2205 58.9517 80.7022 60.2466 81.2169C60.6866 81.3909 61.2481 81.5166 61.5091 81.1544C61.6922 80.9234 61.6901 81.1427 61.8645 69.798L56.4949 68.3369C54.7506 71.4634 52.9813 74.5831 51.2371 77.7095C51.1317 77.8975 51.0196 78.1107 51.0472 78.3078Z" fill="white"/>
<path d="M17.6531 38.2917C15.6186 36.6827 14.3813 34.8506 12.6015 33.4402C11.873 32.8633 11.7498 31.8043 12.3247 31.0745C12.9035 30.3472 13.9602 30.2211 14.6923 30.7989C16.2619 32.0402 17.3898 33.4465 18.6039 34.638L26.6833 26.2308C27.3222 25.5628 28.3914 25.5401 29.064 26.1847C29.7366 26.8293 29.757 27.8956 29.1121 28.5666L19.9125 38.1373C19.3067 38.7695 18.3288 38.8255 17.6531 38.2917Z" fill="white"/>
<path d="M82.0405 100.43C86.2297 96.6066 85.6573 90.2538 87.9506 85.6446C88.0876 85.3695 87.9767 85.0356 87.7005 84.8985C87.4264 84.7637 87.0914 84.8724 86.9543 85.1487C84.6423 89.7888 85.1074 96.1212 81.2901 99.6074C79.5869 101.164 76.6612 101.885 74.7209 100.396C74.124 99.9509 73.464 100.835 74.0422 101.279C74.9841 102.002 79.923 102.364 82.0405 100.43Z" fill="black"/>
<path d="M19.425 57.4313C19.6077 57.1845 19.5555 56.8353 19.3097 56.6526C13.7977 52.5632 9.27325 47.0599 6.22358 40.7376C6.08872 40.4591 5.75373 40.3428 5.47966 40.4787C5.20123 40.6125 5.08594 40.9453 5.21863 41.2226C8.34878 47.7059 12.9907 53.3506 18.6441 57.5466C18.8902 57.7285 19.2366 57.6807 19.425 57.4313Z" fill="black"/>
<path d="M53.2406 14.8266C56.7862 11.5399 61.1562 9.24608 65.8765 8.19218C66.5873 8.03249 66.3654 6.95195 65.6329 7.10457C60.7212 8.20197 56.175 10.5893 52.4836 14.0087C51.9417 14.5116 52.7023 15.3265 53.2406 14.8266Z" fill="black"/>
</svg>
