<svg width="94" height="108" viewBox="0 0 94 108" fill="none" xmlns="http://www.w3.org/2000/svg">
<rect width="94" height="108" fill="#1E1E1E"/>
<g id="Home" clip-path="url(#clip0_0_1)">
<rect width="1920" height="13767" transform="translate(-1706 -11254)" fill="#FCFFF5"/>
<rect id="Rectangle 15" width="1920" height="1305" transform="matrix(1 0 0 -1 -1706 681)" fill="white"/>
<g id="Group 173">
<g id="Group 164">
<rect id="Rectangle 15_2" x="-0.5" y="0.5" width="336" height="266" rx="29.5" transform="matrix(-1 0 0 1 216 -47)" fill="#FCFFF5" stroke="black"/>
<g id="Group 153">
<g id="Group">
<g id="Group_2">
<g id="Group_3">
<g id="Group_4">
<g id="Group_5">
<path id="Vector" d="M69.8844 53.4642C83.0652 53.4642 93.7503 42.779 93.7503 29.5983C93.7503 16.4175 83.0652 5.73242 69.8844 5.73242C56.7037 5.73242 46.0186 16.4175 46.0186 29.5983C46.0186 42.779 56.7037 53.4642 69.8844 53.4642Z" fill="#FEA8FE"/>
</g>
</g>
<g id="Group_6">
<g id="Group_7">
<path id="Vector_2" d="M0 35.9201L56.7318 0.875L65.9267 21.3469L10.7564 57.9536V56.2187L0 35.9201Z" fill="black"/>
</g>
<g id="Group_8">
<path id="Vector_3" d="M68.7044 33.8404L14.0515 61.0752L7.11541 47.8706L2.67644 39.4208L2.49817 39.0844L2.06489 38.259L1.86627 37.8717L1.38721 36.9644L7.17646 33.5347L52.0444 6.94727L53.3644 7.83396L53.8333 8.14979L55.2552 9.10283L55.7292 9.41889L57.2633 10.4533L57.7421 10.7745L58.6494 11.386H58.6545L59.1335 11.7072L60.7185 12.7723L61.2026 13.0933L64.1891 15.1013L68.7044 33.8404Z" fill="#FFEAE2"/>
</g>
<g id="Group_9">
<g id="Group_10">
<g id="Group_11">
<path id="Vector_4" d="M53.8335 8.14689L2.20772 38.2202C2.16703 38.2457 2.12611 38.2559 2.08033 38.2559H2.06507C1.98345 38.2508 1.90206 38.205 1.86114 38.1285C1.81027 38.0468 1.81536 37.9449 1.86623 37.8686C1.88149 37.833 1.91201 37.8024 1.95293 37.7821L53.3646 7.83105L53.8335 8.14689Z" fill="black"/>
</g>
</g>
<g id="Group_12">
<g id="Group_13">
<path id="Vector_5" d="M55.7294 9.41567L2.86018 39.3922C2.81948 39.4176 2.77348 39.4278 2.73278 39.4278C2.71243 39.4278 2.69717 39.4278 2.67682 39.4176C2.61047 39.4074 2.54943 39.3616 2.50873 39.2953C2.47312 39.2291 2.46804 39.1475 2.49856 39.0812C2.51382 39.0252 2.55474 38.9792 2.60561 38.9487L55.2554 9.09961L55.7294 9.41567Z" fill="black"/>
</g>
</g>
<g id="Group_14">
<g id="Group_15">
<path id="Vector_6" d="M57.742 10.7733L4.15446 40.0467C4.11885 40.067 4.07285 40.0772 4.03215 40.0772C3.94545 40.0772 3.85388 40.0312 3.80788 39.9447C3.74175 39.8224 3.78753 39.6696 3.90984 39.5981L57.2632 10.4521L57.742 10.7733Z" fill="black"/>
</g>
</g>
<g id="Group_16">
<g id="Group_17">
<path id="Vector_7" d="M59.1337 11.7059L5.45411 40.5663C5.4185 40.5867 5.37758 40.5969 5.33688 40.5969C5.2451 40.5969 5.1584 40.5511 5.10753 40.4644C5.0414 40.3421 5.09226 40.1842 5.21457 40.1178L58.6495 11.3848H58.6546L59.1337 11.7059Z" fill="black"/>
</g>
</g>
<g id="Group_18">
<g id="Group_19">
<path id="Vector_8" d="M61.2024 13.0946L6.10112 41.2263C6.06551 41.2415 6.02459 41.2517 5.9839 41.2517C5.89211 41.2517 5.80032 41.2008 5.75963 41.1141C5.6935 40.9867 5.74437 40.8339 5.86668 40.7675L60.7183 12.7734L61.2024 13.0946Z" fill="black"/>
</g>
</g>
</g>
<g id="Group_20">
<path id="Vector_9" d="M12.2578 41.8278C11.8705 44.5951 9.76555 47.0362 7.11566 47.872L1.38745 36.9659L7.17692 33.5361C8.20118 33.9081 9.12879 34.4533 9.81687 35.1109C11.6055 36.808 12.6043 39.3714 12.2578 41.8278Z" fill="#FFB46A"/>
</g>
<g id="Group_21">
<path id="Vector_10" d="M92.2955 87.6204L36.175 107.873L27.7609 105.488L23.9744 95.9936L24.4846 93.3946L21.5485 89.9188L7.75273 55.3403L7.80183 51.0294L4.2668 46.6053L0.0012207 35.9181L9.02183 39.7354L69.2245 11.7158L92.2955 87.6204Z" fill="#7082FF"/>
</g>
<g id="Group_22">
<g id="Group_23">
<g id="Group_24">
<g id="Group_25">
<path id="Vector_11" d="M16.1258 57.5329L7.75254 55.3415L4.2666 46.6064L12.487 48.4106L16.1258 57.5329Z" fill="#FEA8FE"/>
</g>
<g id="Group_26">
<path id="Vector_12" d="M31.8332 96.8693L23.9747 95.9928L21.5488 89.918L29.3003 90.5193L31.8332 96.8693Z" fill="#FEA8FE"/>
</g>
</g>
<g id="Group_27">
<path id="Vector_13" d="M36.1749 108C36.0738 108 35.9781 107.94 35.9382 107.84L8.78484 39.8304C8.73264 39.6994 8.79634 39.5513 8.92683 39.4995C9.05777 39.4477 9.20573 39.511 9.25815 39.6413L36.4116 107.651C36.4638 107.782 36.4001 107.93 36.2696 107.982C36.2384 107.994 36.2065 108 36.1749 108Z" fill="black"/>
</g>
</g>
<g id="Group_28">
<g id="Group_29">
<g id="Group_30">
<g id="Group_31">
<path id="Vector_14" d="M57.5152 89.6643C53.8267 89.6643 50.937 81.8893 50.937 71.9641C50.937 62.0386 53.8267 54.2637 57.5152 54.2637C61.2042 54.2637 64.0936 62.0386 64.0936 71.9641C64.0936 81.8893 61.2039 89.6643 57.5152 89.6643ZM57.5152 54.7644C54.164 54.7644 51.4378 62.4801 51.4378 71.9641C51.4378 81.448 54.1642 89.1635 57.5152 89.1635C60.8664 89.1635 63.5929 81.4478 63.5929 71.9641C63.5929 62.4801 60.8664 54.7644 57.5152 54.7644Z" fill="black"/>
</g>
<g id="Group_32">
<path id="Vector_15" d="M47.4395 85.342C46.4028 85.342 45.5754 85.0549 44.9992 84.479C43.724 83.2039 43.8659 80.696 45.3993 77.4178C46.8969 74.2167 49.5477 70.6273 52.8636 67.3112C59.8812 60.2929 67.4224 56.8399 70.0307 59.4469C72.639 62.0556 69.1849 69.5968 62.1664 76.6147C58.8505 79.9308 55.2613 82.5815 52.0598 84.0791C50.263 84.9196 48.6973 85.342 47.4395 85.342ZM67.5584 59.0631C64.2189 59.0631 58.5077 62.3752 53.2177 67.6657C49.9418 70.9416 47.3264 74.4806 45.8532 77.6305C44.4366 80.6591 44.2543 83.0259 45.3533 84.1249C46.4528 85.2244 48.8196 85.0417 51.8484 83.6253C54.9981 82.152 58.5374 79.5366 61.813 76.2606C68.5188 69.5548 72.0467 62.1715 69.677 59.8016C69.1765 59.3007 68.452 59.0631 67.5584 59.0631Z" fill="black"/>
</g>
<g id="Group_33">
<path id="Vector_16" d="M68.5901 83.1446C64.9807 83.1446 59.4978 81.1195 53.916 77.471C45.608 72.0408 40.6809 65.3684 42.6989 62.2808C43.6856 60.7708 46.1694 60.3961 49.6922 61.2246C53.1326 62.0339 57.189 63.8927 61.1142 66.4583C65.0396 69.0239 68.37 71.993 70.4917 74.8194C72.6646 77.7135 73.3179 80.1386 72.3313 81.6482C71.6691 82.6614 70.3531 83.1446 68.5901 83.1446ZM54.1898 77.0519C62.1282 82.2402 70.0781 84.1788 71.9123 81.3743C72.7625 80.0734 72.099 77.7935 70.0916 75.12C68.0037 72.3389 64.7184 69.4121 60.8406 66.8772C56.9625 64.3426 52.963 62.5081 49.5777 61.7117C46.3226 60.9462 43.9689 61.2527 43.1183 62.5541C41.2847 65.3593 46.2516 71.8629 54.1898 77.0519Z" fill="black"/>
</g>
</g>
<g id="Group_34">
<path id="Vector_17" d="M57.6429 74.4566C58.949 74.4566 60.0079 73.3977 60.0079 72.0916C60.0079 70.7854 58.949 69.7266 57.6429 69.7266C56.3367 69.7266 55.2778 70.7854 55.2778 72.0916C55.2778 73.3977 56.3367 74.4566 57.6429 74.4566Z" fill="black"/>
</g>
</g>
<g id="Group_35">
<path id="Vector_18" d="M71.6832 60.0118C71.6832 60.906 70.9582 61.631 70.064 61.631C69.1696 61.631 68.4446 60.906 68.4446 60.0118C68.4446 59.1174 69.1696 58.3926 70.064 58.3926C70.9582 58.3926 71.6832 59.1176 71.6832 60.0118Z" fill="black"/>
</g>
<g id="Group_36">
<path id="Vector_19" d="M46.7123 84.3868C46.7123 85.281 45.9873 86.006 45.0931 86.006C44.1989 86.006 43.4739 85.281 43.4739 84.3868C43.4739 83.4926 44.1989 82.7676 45.0931 82.7676C45.9873 82.7676 46.7123 83.4924 46.7123 84.3868Z" fill="black"/>
</g>
</g>
<g id="Group_37">
<g id="Group_38">
<path id="Vector_20" d="M18.3459 45.9392L24.2013 58.4305L70.9139 37.4815L65.9695 23.4287L18.3459 45.9392Z" fill="#FFEAE2"/>
</g>
<g id="Group_39">
<g id="Group_40">
<path id="Vector_21" d="M27.0252 52.8225C26.7633 52.6955 26.6012 52.5641 26.5384 52.4299C26.4488 52.2368 26.4791 51.9422 26.63 51.545C26.7187 51.3165 26.843 51.1648 27.0033 51.09C27.2019 50.9973 27.5129 51.0287 27.936 51.1831L28.0061 51.2086C28.047 51.2289 28.1041 51.2528 28.1797 51.2798C28.2549 51.3076 28.3863 51.33 28.5745 51.3479C28.7617 51.3663 28.9264 51.3424 29.0673 51.2767C29.6641 50.9993 29.8487 50.6167 29.6222 50.1294C29.5537 49.9821 29.4141 49.8966 29.2047 49.8731C28.9946 49.8501 28.7577 49.8727 28.4929 49.9408C28.2286 50.0094 27.932 50.0591 27.6036 50.0916C27.2751 50.123 26.9575 50.129 26.6521 50.1071C26.3455 50.0857 26.043 49.9671 25.7433 49.7517C25.4443 49.536 25.1992 49.2226 25.0081 48.8119C24.7458 48.2481 24.727 47.6583 24.9515 47.0432C25.176 46.427 25.6508 45.9512 26.3754 45.6144C26.76 45.4352 27.1338 45.3218 27.4983 45.2729C27.8615 45.2251 28.1284 45.2242 28.2981 45.2698L28.5573 45.3246L28.623 45.341C28.9085 45.4341 29.0799 45.5416 29.1365 45.6635C29.1991 45.798 29.2053 46.0134 29.156 46.3095C29.0868 46.732 28.9375 46.9958 28.7061 47.1033C28.5717 47.1659 28.3753 47.1799 28.1169 47.144C28.0915 47.1405 28.0397 47.1252 27.9612 47.0994C27.8829 47.0735 27.8148 47.0564 27.7566 47.048C27.6978 47.0405 27.6093 47.0465 27.4903 47.0675C27.3709 47.0879 27.2404 47.1308 27.0998 47.1964C26.946 47.2681 26.8231 47.3851 26.7315 47.5488C26.6395 47.712 26.6315 47.8744 26.7061 48.034C26.7956 48.2271 26.9469 48.3397 27.1615 48.3724C27.376 48.4054 27.6133 48.3844 27.8747 48.3092C28.1366 48.2344 28.4301 48.1703 28.7566 48.1161C29.0826 48.0623 29.3936 48.0365 29.6913 48.0385C29.989 48.0405 30.2856 48.146 30.5817 48.355C30.8779 48.5644 31.1247 48.8809 31.3213 49.304C31.512 49.7145 31.598 50.1173 31.5792 50.5119C31.5597 50.9064 31.4578 51.2535 31.2722 51.5496C31.0866 51.8467 30.8721 52.103 30.6288 52.3171C30.3853 52.5321 30.1225 52.7048 29.8405 52.8362C29.5395 52.9766 29.2367 53.0715 28.9333 53.1235C28.6296 53.1757 28.368 53.1876 28.149 53.1609C27.93 53.1346 27.7325 53.0956 27.5567 53.0445C27.3811 52.9937 27.249 52.9421 27.1626 52.8888L27.0252 52.8225Z" fill="black"/>
</g>
<g id="Group_41">
<path id="Vector_22" d="M36.6098 47.2181L36.6496 47.1524C36.8078 46.9231 36.9319 46.7877 37.0219 46.7457C37.2205 46.6532 37.5186 46.7326 37.9168 46.9846C38.162 47.1434 38.318 47.2931 38.3837 47.4344C38.4429 47.5627 38.4505 47.6917 38.4056 47.8217C38.3613 47.952 38.2762 48.1084 38.1503 48.2915C38.1105 48.3567 38.0528 48.4459 37.9767 48.5593C37.9011 48.6728 37.7235 48.857 37.4437 49.1112C37.1645 49.366 36.8613 49.5694 36.5344 49.7218C36.2522 49.8532 35.9366 49.9507 35.5889 50.0153C35.2401 50.0795 34.8572 50.0945 34.4392 50.0587C34.0205 50.0228 33.6165 49.9308 33.2274 49.78C32.8373 49.6296 32.4586 49.3814 32.0901 49.0335C31.7214 48.6861 31.4197 48.2592 31.1844 47.7525C30.9551 47.2588 30.8285 46.7696 30.8058 46.2848C30.7834 45.8006 30.84 45.364 30.9761 44.9774C31.1114 44.5901 31.3036 44.2283 31.5522 43.8899C31.8006 43.5524 32.0649 43.2693 32.3451 43.0417C32.6254 42.8139 32.9131 42.6312 33.2077 42.4938C33.5094 42.3534 33.8372 42.2578 34.1911 42.2061C34.5454 42.1548 34.8252 42.1393 35.0302 42.1607L35.3237 42.1886C35.4719 42.205 35.5876 42.2236 35.6712 42.2432C35.7548 42.2631 35.8424 42.3014 35.9359 42.3598C36.0295 42.418 36.0983 42.4952 36.1429 42.5911C36.2177 42.7513 36.231 42.9554 36.1827 43.2042C36.0936 43.6665 35.9498 43.9447 35.7508 44.0374C35.6353 44.0912 35.4392 44.096 35.162 44.0533C34.7913 43.9609 34.3811 44.0191 33.9323 44.2276C33.7332 44.3201 33.5457 44.4526 33.3679 44.6242C33.1907 44.7969 33.0374 44.9991 32.9069 45.2304C32.7771 45.4629 32.7079 45.7371 32.6988 46.053C32.69 46.3695 32.7601 46.6875 32.9089 47.008C33.0613 47.3353 33.2612 47.5972 33.5085 47.7938C33.7565 47.9909 34.0128 48.1159 34.2784 48.1672C34.5447 48.2189 34.8 48.2309 35.0439 48.2026C35.2888 48.1758 35.5073 48.1165 35.6999 48.027C35.8985 47.9343 36.0741 47.8219 36.2265 47.6879C36.3787 47.555 36.4818 47.445 36.5351 47.3575L36.6098 47.2181Z" fill="black"/>
</g>
<g id="Group_42">
<path id="Vector_23" d="M36.6333 42.0128C36.5647 41.8655 36.5183 41.7524 36.4935 41.6744C36.4692 41.5963 36.4597 41.4965 36.4665 41.3767C36.4729 41.2568 36.5282 41.1493 36.6322 41.0537C36.7357 40.9586 36.891 40.8638 37.096 40.768C37.2628 40.6908 37.4076 40.6426 37.5319 40.6238C37.6553 40.6048 37.7569 40.6048 37.8356 40.6227C37.9141 40.641 37.988 40.6864 38.057 40.7596C38.1262 40.8328 38.1764 40.8989 38.2078 40.9586C38.2397 41.0179 38.2835 41.1084 38.3401 41.2305L40.8276 46.578C40.8993 46.7324 40.9471 46.8468 40.9701 46.922C40.9929 46.9972 41.0019 47.094 40.9949 47.2141C40.9884 47.3347 40.9332 47.4422 40.8292 47.537C40.7252 47.6321 40.5709 47.7277 40.3658 47.8228C40.1986 47.9004 40.0538 47.9493 39.9299 47.9672C39.8054 47.9862 39.7045 47.9867 39.6258 47.9688C39.547 47.9509 39.4736 47.9051 39.4044 47.8319C39.3352 47.7587 39.285 47.6925 39.2531 47.6328C39.2217 47.5735 39.1775 47.4829 39.1206 47.361L36.6333 42.0128Z" fill="black"/>
</g>
<g id="Group_43">
<path id="Vector_24" d="M42.902 44.5722L45.8642 43.1941C46.012 43.1253 46.1246 43.079 46.2026 43.0543C46.2807 43.0293 46.3802 43.0209 46.5003 43.0273C46.6209 43.0341 46.7284 43.089 46.8233 43.1929C46.9184 43.2969 47.0139 43.4517 47.109 43.6563C47.1867 43.8235 47.2349 43.9684 47.2532 44.0929C47.2716 44.2168 47.2722 44.3178 47.2543 44.3966C47.236 44.4751 47.1906 44.5488 47.1174 44.618C47.0442 44.6872 46.9781 44.7374 46.9184 44.7688C46.8591 44.8011 46.768 44.8445 46.6465 44.9013L42.8372 46.6731C42.6705 46.7508 42.5256 46.7994 42.4013 46.8176C42.2775 46.8364 42.1764 46.8364 42.0976 46.8184C42.0191 46.8005 41.9452 46.7552 41.8762 46.6822C41.807 46.609 41.7573 46.5429 41.7254 46.4831C41.6936 46.4239 41.6498 46.333 41.5931 46.2109L39.1051 40.8629C38.9534 40.5364 38.9105 40.2849 38.9773 40.1093C39.0441 39.9346 39.2471 39.7678 39.5875 39.6097L43.3769 37.8469C43.5247 37.7784 43.6372 37.7315 43.7153 37.7072C43.7934 37.6824 43.8929 37.6733 44.013 37.6797C44.1329 37.6861 44.241 37.7419 44.3359 37.8454C44.431 37.9493 44.5259 38.1037 44.6217 38.3092C44.6993 38.476 44.7475 38.6213 44.7659 38.7451C44.7842 38.869 44.7849 38.9705 44.7663 39.0488C44.7484 39.1275 44.7031 39.2012 44.6294 39.2702C44.5567 39.3394 44.4905 39.3901 44.4308 39.4215C44.3715 39.4529 44.2806 39.4967 44.159 39.5533L41.2056 40.9268L41.6575 41.8982L43.5623 41.0124C43.7096 40.9436 43.8226 40.8974 43.9007 40.8724C43.9787 40.8481 44.0783 40.839 44.1984 40.8456C44.3187 40.8527 44.4262 40.9078 44.5208 41.0113C44.6159 41.1148 44.7115 41.2701 44.807 41.4746C44.8847 41.6419 44.9324 41.7872 44.9512 41.911C44.9703 42.0349 44.9703 42.136 44.9523 42.2147C44.9344 42.2932 44.8867 42.368 44.811 42.4381C44.7343 42.5093 44.6666 42.5604 44.6069 42.5918C44.5471 42.6236 44.4567 42.667 44.335 42.7236L42.4497 43.6006L42.902 44.5722Z" fill="black"/>
</g>
<g id="Group_44">
<path id="Vector_25" d="M50.1721 34.6977C50.3318 34.6229 50.4762 34.5758 50.6032 34.5552C50.7302 34.5353 50.8317 34.5349 50.9073 34.5544C50.9825 34.5743 51.0546 34.6201 51.1238 34.6933C51.1931 34.7669 51.2433 34.833 51.2751 34.8928C51.3065 34.952 51.3508 35.0425 51.4069 35.1646L53.8899 40.5029C53.9615 40.657 54.0093 40.7711 54.0323 40.8463C54.0557 40.9215 54.0641 41.0186 54.0571 41.1385C54.0511 41.2591 53.9954 41.3665 53.8914 41.4614C53.7874 41.5565 53.6331 41.6521 53.428 41.7476C53.1777 41.8635 52.9956 41.9248 52.8815 41.9312C52.767 41.9376 52.659 41.9144 52.5562 41.8604C50.2186 40.6077 48.6852 39.7924 47.9546 39.4142L49.4268 42.5786C49.4984 42.7327 49.5462 42.8469 49.569 42.9221C49.5924 42.9973 49.6008 43.0948 49.594 43.2147C49.588 43.3352 49.5323 43.4427 49.4283 43.5372C49.3244 43.6323 49.17 43.7278 48.965 43.8234C48.7659 43.9158 48.5982 43.9702 48.4618 43.987C48.3249 44.0038 48.209 43.9762 48.113 43.9034C48.017 43.8313 47.9462 43.7586 47.9011 43.6865C47.8553 43.6137 47.7985 43.5042 47.7299 43.3565L45.2335 37.9894C45.165 37.8417 45.1205 37.7302 45.1006 37.6535C45.0807 37.5769 45.0732 37.4827 45.0802 37.3697C45.0867 37.2582 45.1415 37.1543 45.2455 37.0592C45.3494 36.9641 45.5042 36.8692 45.7093 36.7734C45.8884 36.6898 46.0428 36.6396 46.1711 36.6226C46.3 36.6058 46.3965 36.6082 46.4606 36.6281C46.5247 36.6496 46.6134 36.6883 46.7253 36.7451L46.8001 36.7805C49.0099 37.9914 50.4789 38.7861 51.2086 39.1645L49.6966 35.9137C49.628 35.7657 49.5836 35.6545 49.5632 35.5777C49.5438 35.501 49.5365 35.4065 49.5433 35.294C49.5493 35.1821 49.6046 35.0785 49.7085 34.9834C49.8125 34.8883 49.9667 34.7932 50.1721 34.6977Z" fill="black"/>
</g>
<g id="Group_45">
<path id="Vector_26" d="M58.6752 36.9559L58.7146 36.8902C58.8734 36.6613 58.9973 36.5255 59.0868 36.4837C59.2859 36.391 59.584 36.4706 59.9822 36.7225C60.2274 36.8813 60.3827 37.0311 60.4484 37.1724C60.5081 37.3009 60.5156 37.4296 60.4707 37.5597C60.426 37.6899 60.3409 37.8463 60.2155 38.0294C60.1757 38.0947 60.118 38.1843 60.0419 38.2971C59.9658 38.4105 59.7886 38.5952 59.5088 38.8491C59.2295 39.1039 58.9265 39.3074 58.5991 39.4598C58.3176 39.5912 58.002 39.6887 57.6534 39.7535C57.305 39.8176 56.9218 39.8327 56.5037 39.7969C56.0853 39.7615 55.6816 39.669 55.2919 39.5182C54.9022 39.3678 54.5231 39.1194 54.1553 38.7717C53.7864 38.4242 53.4849 37.9974 53.2496 37.4907C53.0198 36.997 52.8937 36.5078 52.8709 36.0234C52.8479 35.5388 52.9048 35.1022 53.0406 34.7156C53.1764 34.3283 53.3686 33.9665 53.6174 33.6281C53.8658 33.2906 54.1301 33.0075 54.4103 32.7801C54.6905 32.5521 54.9776 32.3694 55.2729 32.232C55.5746 32.0916 55.9019 31.9967 56.2562 31.9443C56.6106 31.893 56.8904 31.8777 57.0954 31.8989L57.3891 31.9268C57.5375 31.9432 57.653 31.9617 57.7366 31.9816C57.8197 32.0016 57.9078 32.0398 58.0013 32.098C58.0944 32.1562 58.1634 32.2333 58.2083 32.3293C58.2831 32.4895 58.2959 32.694 58.2481 32.9424C58.1586 33.4047 58.0148 33.6829 57.8162 33.7756C57.7007 33.8293 57.5046 33.8349 57.227 33.7915C56.8567 33.6991 56.4467 33.7572 55.9977 33.9658C55.7986 34.0585 55.6111 34.1907 55.4332 34.363C55.2561 34.5353 55.1028 34.7379 54.9723 34.9688C54.8425 35.2013 54.7733 35.476 54.7642 35.7916C54.7553 36.1081 54.8255 36.4262 54.9743 36.7466C55.1265 37.0742 55.3266 37.3358 55.5741 37.5325C55.8214 37.73 56.0782 37.8545 56.344 37.9058C56.6099 37.9576 56.8656 37.9695 57.1095 37.9412C57.3544 37.9144 57.5729 37.8552 57.7655 37.7656C57.9637 37.6731 58.1393 37.5606 58.2915 37.4267C58.4443 37.2938 58.5467 37.1839 58.6 37.0963L58.6752 36.9559Z" fill="black"/>
</g>
<g id="Group_46">
<path id="Vector_27" d="M62.4952 35.4586L65.4578 34.0811C65.6055 34.0123 65.7181 33.9657 65.7962 33.9407C65.8743 33.9157 65.9738 33.9073 66.0939 33.9137C66.2138 33.9208 66.3212 33.9754 66.4164 34.0794C66.5119 34.1833 66.607 34.3381 66.7026 34.5427C66.7802 34.7099 66.828 34.8548 66.847 34.9793C66.8653 35.1036 66.866 35.2043 66.8479 35.283C66.8295 35.3615 66.7842 35.4358 66.7105 35.5048C66.6378 35.5736 66.5712 35.6238 66.5119 35.6552C66.4526 35.6875 66.3615 35.7313 66.2401 35.7877L62.4308 37.5595C62.264 37.6372 62.1191 37.6858 61.9948 37.704C61.871 37.7228 61.7695 37.7234 61.6912 37.7055C61.612 37.6876 61.5388 37.6418 61.4698 37.5686C61.4006 37.4954 61.3503 37.4293 61.3185 37.3696C61.2871 37.3103 61.2429 37.2198 61.1862 37.0977L58.6987 31.7495C58.5463 31.423 58.504 31.1718 58.5704 30.996C58.637 30.8208 58.8407 30.654 59.1806 30.4957L62.9705 28.7333C63.1182 28.6646 63.2308 28.6174 63.3089 28.5929C63.3869 28.5681 63.4865 28.5591 63.6059 28.5655C63.7262 28.5719 63.8339 28.6276 63.9288 28.7311C64.0244 28.8351 64.1195 28.9895 64.215 29.1949C64.2926 29.3617 64.3404 29.507 64.3588 29.6309C64.3771 29.7554 64.3782 29.8562 64.3597 29.9345C64.3417 30.0133 64.2964 30.0874 64.2227 30.1566C64.1495 30.2252 64.0834 30.276 64.0241 30.3074C63.9644 30.3388 63.8737 30.3831 63.7519 30.4393L60.7992 31.813L61.251 32.7844L63.1556 31.8986C63.3029 31.8305 63.4159 31.7836 63.494 31.7588C63.5721 31.7345 63.6711 31.7254 63.7917 31.732C63.912 31.7391 64.0195 31.7942 64.1141 31.8977C64.2093 32.0012 64.3048 32.1565 64.3999 32.3611C64.4775 32.5283 64.5258 32.6736 64.5441 32.7974C64.5629 32.9213 64.5629 33.0224 64.5452 33.1011C64.5273 33.1796 64.48 33.2544 64.4039 33.3251C64.3274 33.3957 64.2597 33.447 64.2004 33.4784C64.1407 33.5103 64.05 33.5541 63.9281 33.6102L62.0428 34.4872L62.4952 35.4586Z" fill="black"/>
</g>
</g>
</g>
</g>
</g>
<g id="Group_47">
<g id="Group_48">
<path id="Vector_28" d="M14.5284 19.8135C13.3285 18.3425 12.7273 16.4775 12.2487 14.6358C12.2467 14.6186 12.2447 14.6018 12.2427 14.5836C12.2419 14.5896 12.2408 14.5958 12.2396 14.602C12.2379 14.5947 12.2357 14.5874 12.2339 14.5801C12.2335 14.6024 12.233 14.6234 12.2326 14.6444C11.9302 16.522 11.5073 18.4338 10.4526 20.0106C9.38074 21.6101 7.45563 22.7213 5.55884 23.013C9.38074 23.911 12.5152 26.8175 13.0036 30.7121C13.0102 30.7154 13.0102 30.7104 13.0142 30.7048C13.1325 26.7814 15.9638 23.5954 19.6837 22.3407C17.7677 22.2292 15.7466 21.3047 14.5284 19.8135Z" fill="#FFB46A"/>
</g>
<g id="Group_49">
<path id="Vector_29" d="M84.4026 56.2464C83.2028 54.7753 82.6014 52.9104 82.123 51.0687C82.121 51.0514 82.119 51.0346 82.117 51.0165C82.1161 51.0224 82.1148 51.0286 82.1139 51.0346C82.1121 51.0273 82.1099 51.02 82.1079 51.0127C82.1075 51.0348 82.1071 51.056 82.1068 51.0771C81.8043 52.9544 81.3816 54.8664 80.3268 56.4432C79.2548 58.0427 77.3299 59.1537 75.4331 59.4456C79.255 60.3436 82.3895 63.2501 82.8779 67.1447C82.8845 67.1481 82.8845 67.143 82.8885 67.1374C83.0068 63.214 85.8381 60.028 89.558 58.7733C87.6417 58.662 85.6206 57.7375 84.4026 56.2464Z" fill="#FFB46A"/>
</g>
<g id="Group_50">
<path id="Vector_30" d="M17.6511 75.7649C16.4513 74.2939 15.8499 72.4289 15.3715 70.5872C15.3695 70.57 15.3675 70.5531 15.3655 70.535C15.3646 70.541 15.3633 70.5472 15.3624 70.5531C15.3604 70.5458 15.3584 70.5385 15.3565 70.5312C15.356 70.5536 15.3556 70.5746 15.3551 70.5956C15.0526 72.4729 14.6299 74.3848 13.5751 75.9617C12.5033 77.5611 10.5782 78.6722 8.6814 78.9642C12.5033 79.8619 15.6378 82.7686 16.1261 86.6633C16.1328 86.6666 16.1328 86.6615 16.1368 86.656C16.2551 82.7326 19.0863 79.5466 22.8063 78.2918C20.8905 78.1806 18.8692 77.2561 17.6511 75.7649Z" fill="#FFB46A"/>
</g>
</g>
</g>
</g>
</g>
</g>
</g>
</g>
</g>
<defs>
<clipPath id="clip0_0_1">
<rect width="1920" height="13767" fill="white" transform="translate(-1706 -11254)"/>
</clipPath>
</defs>
</svg>
