<svg width="109" height="132" viewBox="0 0 109 132" fill="none" xmlns="http://www.w3.org/2000/svg">
<path d="M44.7165 69.9783C44.4832 74.3019 43.4516 80.08 39.2713 82.9716C33.8644 86.7128 27.7506 82.4678 21.0116 84.4814C16.0044 85.9732 9.90022 91.146 5.55071 107.693C11.7435 110.924 18.1334 113.761 24.6828 116.188C42.3212 122.688 60.9151 126.218 79.7083 126.636C80.3051 122.984 80.4914 119.276 80.2636 115.583C79.8842 109.463 79.5378 103.437 75.9516 98.5831C70.7176 91.4978 63.5189 93.5543 60.4401 87.6132C58.8921 84.6258 58.6076 80.0607 62.1447 72.782C56.5011 71.0109 50.6308 70.0665 44.7165 69.9783Z" fill="#FFB08D"/>
<path d="M14.9787 112.25C15.794 107.792 17.8032 103.639 20.7922 100.233C26.4495 102.523 32.2334 104.486 38.1155 106.114C47.8157 108.797 57.7474 110.56 67.7787 111.379C69.2108 116.127 69.4857 121.149 68.5803 126.025C63.6942 125.569 57.1611 124.778 49.5073 123.31C45.9296 122.615 41.44 121.752 35.8913 120.189C28.7083 118.139 21.7123 115.483 14.9787 112.25Z" fill="#AAEEEA"/>
<path d="M39.4805 2.54038L39.3699 2.51073C38.8143 2.36188 38.2433 2.69154 38.0945 3.24705L35.5239 12.8407C35.375 13.3962 35.7047 13.9672 36.2602 14.116L36.3709 14.1457C36.9264 14.2945 37.4974 13.9649 37.6462 13.4093L40.2168 3.81573C40.3657 3.26022 40.036 2.68923 39.4805 2.54038Z" fill="#FFB833"/>
<path d="M32.0826 6.71748L32.053 6.82814C31.9041 7.38365 32.2338 7.95465 32.7893 8.1035L42.3829 10.6741C42.9384 10.8229 43.5094 10.4933 43.6583 9.93777L43.6879 9.82711C43.8368 9.2716 43.5071 8.7006 42.9516 8.55175L33.358 5.98115C32.8025 5.8323 32.2315 6.16197 32.0826 6.71748Z" fill="#FFB833"/>
<path d="M16.9829 68.3627L16.8895 68.3377C16.4209 68.2121 15.9392 68.4902 15.8137 68.9588L13.6431 77.0596C13.5175 77.5282 13.7956 78.0099 14.2642 78.1354L14.3576 78.1605C14.8262 78.286 15.3079 78.0079 15.4334 77.5394L17.604 69.4385C17.7296 68.9699 17.4515 68.4883 16.9829 68.3627Z" fill="#FFB833"/>
<path d="M10.7372 71.8892L10.7122 71.9826C10.5866 72.4512 10.8647 72.9328 11.3333 73.0584L19.4342 75.229C19.9027 75.3546 20.3844 75.0765 20.5099 74.6079L20.535 74.5145C20.6605 74.0459 20.3825 73.5642 19.9139 73.4387L11.813 71.268C11.3445 71.1425 10.8628 71.4206 10.7372 71.8892Z" fill="#FFB833"/>
<path d="M82.6216 84.7866L82.5281 84.7615C82.0596 84.636 81.5779 84.914 81.4523 85.3826L79.2817 93.4835C79.1562 93.9521 79.4343 94.4337 79.9028 94.5593L79.9963 94.5843C80.4649 94.7099 80.9465 94.4318 81.0721 93.9632L83.2427 85.8624C83.3683 85.3938 83.0902 84.9121 82.6216 84.7866Z" fill="#FFB833"/>
<path d="M76.3757 88.314L76.3506 88.4074C76.2251 88.876 76.5032 89.3576 76.9717 89.4832L85.0726 91.6538C85.5412 91.7794 86.0228 91.5013 86.1484 91.0327L86.1734 90.9392C86.299 90.4707 86.0209 89.989 85.5523 89.8635L77.4515 87.6929C76.9829 87.5673 76.5012 87.8454 76.3757 88.314Z" fill="#FFB833"/>
<path d="M34.8246 50.7356C34.6051 50.3842 33.3901 48.5245 31.0958 48.1549C30.7602 48.0993 29.4281 47.8767 28.3438 48.4903C25.5453 50.0811 24.7695 57.0585 28.3062 59.7563C30.275 61.2618 32.8674 60.8731 33.75 60.6878C34.1096 57.3717 34.4678 54.0542 34.8246 50.7356Z" fill="#FF8C5F"/>
<path d="M81.5499 62.0583C81.9073 61.8457 83.8385 60.7473 86.0492 61.4583C86.3741 61.5638 87.6604 61.977 88.3439 63.0168C90.1142 65.7158 87.5991 72.2693 83.2202 73.0492C80.7709 73.4842 78.6555 71.9552 77.9509 71.3974C79.1635 68.2887 80.3631 65.1757 81.5499 62.0583Z" fill="#FF8C5F"/>
<path d="M30.41 57.974C30.3868 57.9666 30.3667 57.952 30.3526 57.9323C29.6134 56.7563 29.4024 55.6744 29.7428 54.7192C30.1958 53.4515 31.4765 52.764 32.0731 52.5048L28.5347 51.8203C28.5223 51.8184 28.5105 51.814 28.4998 51.8074C28.4892 51.8008 28.4801 51.792 28.4729 51.7817C28.4658 51.7714 28.4609 51.7598 28.4584 51.7475C28.456 51.7352 28.4561 51.7225 28.4588 51.7103C28.461 51.6979 28.4657 51.686 28.4726 51.6755C28.4796 51.6649 28.4885 51.6559 28.499 51.6488C28.5095 51.6418 28.5213 51.637 28.5337 51.6346C28.5461 51.6322 28.5588 51.6324 28.5712 51.635L32.4328 52.3824C32.4529 52.3872 32.4711 52.3984 32.4844 52.4143C32.4977 52.4302 32.5056 52.45 32.5069 52.4707C32.5081 52.4914 32.5027 52.512 32.4913 52.5294C32.48 52.5468 32.4633 52.56 32.4438 52.5672C32.4233 52.5749 30.4755 53.2339 29.9213 54.7907C29.6024 55.6858 29.7994 56.7112 30.5097 57.8478C30.522 57.8698 30.5252 57.8957 30.5187 57.9201C30.5121 57.9444 30.4964 57.9653 30.4747 57.9782C30.4534 57.9847 30.4303 57.9832 30.41 57.974Z" fill="#383333"/>
<path d="M82.0276 70.4875C82.0037 70.4806 81.9834 70.4648 81.9709 70.4434C81.9644 70.4326 81.9602 70.4206 81.9585 70.4081C81.9568 70.3956 81.9576 70.383 81.9608 70.3708C81.9641 70.3587 81.9697 70.3473 81.9775 70.3374C81.9852 70.3275 81.9948 70.3192 82.0058 70.313C83.1535 69.64 83.8003 68.8196 83.9261 67.8781C84.1432 66.2414 82.7155 64.7623 82.7009 64.7479C82.6858 64.7333 82.6762 64.714 82.6736 64.6931C82.671 64.6723 82.6757 64.6512 82.6868 64.6334C82.6967 64.6147 82.7127 64.6 82.7322 64.5917C82.7517 64.5835 82.7735 64.5823 82.7938 64.5883L86.571 65.69C86.5952 65.6978 86.6155 65.7147 86.6276 65.7371C86.6398 65.7595 86.6429 65.7857 86.6363 65.8103C86.6327 65.8223 86.6267 65.8336 86.6187 65.8433C86.6107 65.8531 86.6009 65.8611 86.5897 65.867C86.5786 65.8728 86.5663 65.8764 86.5538 65.8774C86.5412 65.8785 86.5286 65.877 86.5166 65.8731L83.0572 64.8644C83.4674 65.3697 84.2934 66.5663 84.1153 67.8998C83.9804 68.9048 83.305 69.7729 82.1068 70.4771C82.0952 70.4848 82.0821 70.4896 82.0684 70.4914C82.0546 70.4932 82.0407 70.4919 82.0276 70.4875Z" fill="#383333"/>
<path d="M52.6058 76.4609C67.5652 80.4692 82.9416 71.5916 86.9499 56.6322C90.9583 41.6728 82.0807 26.2964 67.1213 22.2881C52.1619 18.2797 36.7855 27.1573 32.7771 42.1167C28.7688 57.0761 37.6463 72.4525 52.6058 76.4609Z" fill="#FFB08D"/>
<path d="M32.5031 43.1287C30.1543 59.1051 35.1664 73.3637 45.4745 79.3177C48.9159 81.269 52.8028 82.2986 56.7588 82.3071C68.8042 82.3479 80.3986 72.7789 86.7561 58.2008C86.7488 58.1988 55.857 23.9057 32.5031 43.1287Z" fill="#FFB08D"/>
<path d="M42.8389 47.269C44.5866 46.5596 46.5109 46.4077 48.3483 46.8343C49.5938 47.1048 51.2871 47.4741 51.5725 48.5733C51.6379 48.8124 51.6386 49.0645 51.5744 49.304C51.5103 49.5434 51.3836 49.7614 51.2074 49.9358C50.4377 50.5756 49.1431 49.5144 46.7853 48.9195C43.6766 48.1366 41.3669 48.8278 41.2709 48.3302C41.196 47.9702 42.3729 47.4736 42.8389 47.269Z" fill="#383333"/>
<path d="M74.633 55.1949C73.377 53.7879 71.7158 52.805 69.878 52.3814C68.6417 52.0765 66.9584 51.6598 66.2213 52.5219C66.0576 52.7081 65.9462 52.9344 65.8986 53.1777C65.851 53.4211 65.8689 53.6727 65.9504 53.9069C66.3618 54.821 67.9882 54.4371 70.3697 54.9434C73.5052 55.607 75.2754 57.2437 75.5811 56.8406C75.8016 56.5491 74.9632 55.5759 74.633 55.1949Z" fill="#383333"/>
<path d="M55.8396 62.7583C55.2331 62.5936 54.6353 62.3982 54.0486 62.173C54.0328 62.1671 54.0184 62.1582 54.0061 62.1467C53.9938 62.1352 53.9839 62.1214 53.977 62.1061C53.97 62.0907 53.9662 62.0742 53.9657 62.0573C53.9653 62.0405 53.9681 62.0238 53.9741 62.0081C53.9865 61.9768 54.0107 61.9517 54.0414 61.9383C54.0722 61.9248 54.1071 61.924 54.1384 61.9361C55.1656 62.3326 57.9434 63.2192 58.4404 62.6038C58.9374 61.9884 58.5903 57.8046 58.4013 56.2673C58.3988 56.2508 58.3997 56.2339 58.404 56.2178C58.4082 56.2016 58.4156 56.1864 58.4258 56.1732C58.436 56.1599 58.4487 56.1488 58.4633 56.1406C58.4778 56.1324 58.4939 56.1272 58.5105 56.1253C58.5438 56.1211 58.5774 56.1302 58.604 56.1507C58.6306 56.1711 58.648 56.2012 58.6525 56.2345C58.7237 56.815 59.3259 61.9159 58.6365 62.7671C58.2404 63.2619 56.9561 63.0575 55.8396 62.7583Z" fill="#383333"/>
<path d="M54.4217 71.9361L54.3922 71.9282C53.7817 71.7572 53.2331 71.4144 52.8117 70.9406C52.799 70.9213 52.7935 70.898 52.7965 70.875C52.7994 70.852 52.8105 70.8308 52.8278 70.8153C52.845 70.7999 52.8673 70.7911 52.8904 70.7906C52.9136 70.7901 52.9362 70.798 52.9541 70.8127C53.3614 71.2695 53.8934 71.5973 54.4846 71.7557C55.0757 71.9141 55.7003 71.8962 56.2815 71.7043C56.3056 71.6967 56.3317 71.6989 56.3543 71.7104C56.3768 71.7218 56.394 71.7416 56.4021 71.7656C56.4062 71.7775 56.4079 71.7902 56.407 71.8028C56.4061 71.8154 56.4027 71.8277 56.397 71.8389C56.3913 71.8502 56.3834 71.8602 56.3737 71.8683C56.364 71.8764 56.3528 71.8825 56.3408 71.8862C55.7194 72.0884 55.0527 72.1057 54.4217 71.9361Z" fill="#383333"/>
<path d="M69.8414 25.4071C69.8414 25.4071 67.8832 29.0655 56.2809 28.5714C44.6785 28.0773 38.1556 35.0488 35.6305 40.4689C33.1054 45.889 34.0465 50.0791 28.3465 48.4806C28.3423 45.8345 28.5281 43.1914 28.9026 40.5719C29.9602 33.2113 31.1085 25.1977 36.6996 19.7952C46.4078 10.4192 63.1928 15.0327 66.4728 17.9702C67.6991 19.0715 68.6635 20.4332 69.2955 21.9554C69.6946 23.061 69.8799 24.2323 69.8414 25.4071Z" fill="#AAEEEA"/>
<path d="M67.4529 21.6304C67.1849 23.0587 67.1919 24.5251 67.4735 25.9508C68.5344 31.1694 72.913 32.535 78.8443 39.5858C82.3295 43.7248 83.6131 45.84 84.0967 48.3735C84.7512 51.8331 83.7554 54.782 83.3247 57.5107C82.5718 62.288 88.3432 63.02 88.3432 63.02C90.8208 58.1986 92.4914 53.0037 93.2888 47.6419C94.0143 42.7307 94.7814 37.5169 93.0737 32.8235C87.911 18.5562 61.9949 14.4956 61.1065 16.5323C60.8881 17.0326 62.0096 18.3163 67.4529 21.6304Z" fill="#AAEEEA"/>
<path d="M66.6295 27.5961C66.6019 27.5883 66.5776 27.5716 66.5605 27.5486C66.5406 27.5215 66.5322 27.4877 66.5371 27.4544C66.5421 27.4212 66.56 27.3913 66.5869 27.3712C68.9152 25.6465 69.9784 23.9018 69.7486 22.1823C69.2622 18.5674 63.2092 16.1811 63.1497 16.1572C63.134 16.1514 63.1197 16.1425 63.1075 16.131C63.0954 16.1195 63.0856 16.1057 63.0789 16.0903C63.0722 16.075 63.0686 16.0585 63.0684 16.0418C63.0682 16.025 63.0714 16.0084 63.0777 15.993C63.0901 15.9617 63.1143 15.9366 63.1451 15.9231C63.1758 15.9097 63.2107 15.9089 63.242 15.921C64.3513 16.3773 65.4145 16.9385 66.4172 17.5968C68.5507 19.0093 69.7897 20.5828 70.0005 22.147C70.2453 23.968 69.1474 25.7931 66.7379 27.575C66.7227 27.5868 66.705 27.5948 66.6862 27.5985C66.6674 27.6022 66.6479 27.6013 66.6295 27.5961Z" fill="#383333"/>
<path d="M57.0536 25.6859C57.0243 25.6777 56.9989 25.6593 56.982 25.634C56.965 25.6087 56.9578 25.5781 56.9615 25.5479C56.9633 25.5314 56.9684 25.5154 56.9764 25.5009C56.9845 25.4864 56.9954 25.4737 57.0084 25.4634C57.0215 25.4532 57.0365 25.4456 57.0525 25.4412C57.0685 25.4368 57.0852 25.4357 57.1017 25.4378C64.8615 26.4021 69.7948 23.0217 69.8436 22.9873C69.8711 22.9724 69.9031 22.9682 69.9335 22.9754C69.964 22.9826 69.9907 23.0008 70.0086 23.0264C70.0264 23.0521 70.0343 23.0834 70.0305 23.1145C70.0268 23.1455 70.0118 23.1741 69.9883 23.1948C69.9389 23.2316 64.9274 26.6676 57.0708 25.6905L57.0536 25.6859Z" fill="#383333"/>
<path d="M82.2994 25.9135C82.2789 25.9078 82.26 25.8974 82.2443 25.883C78.9087 22.7988 75.5513 21.5275 73.328 21.0109C72.002 20.6746 70.6326 20.5414 69.2666 20.6159C69.2494 20.619 69.2317 20.6186 69.2146 20.6146C69.1976 20.6106 69.1815 20.6032 69.1675 20.5927C69.1534 20.5822 69.1417 20.569 69.133 20.5538C69.1243 20.5386 69.1189 20.5217 69.117 20.5043C69.1151 20.4869 69.1169 20.4693 69.1221 20.4526C69.1273 20.4359 69.136 20.4204 69.1475 20.4072C69.1589 20.394 69.173 20.3833 69.1888 20.3757C69.2046 20.3682 69.2218 20.364 69.2393 20.3634C69.3043 20.3571 75.9548 19.7168 82.4179 25.6975C82.4384 25.7169 82.4519 25.7425 82.4563 25.7703C82.4606 25.7981 82.4557 25.8266 82.4421 25.8513C82.4286 25.876 82.4072 25.8955 82.3814 25.9068C82.3555 25.9181 82.3267 25.9204 82.2994 25.9135Z" fill="#383333"/>
<path d="M91.6142 55.043C91.5832 55.0348 91.5565 55.0152 91.5393 54.9881C91.5221 54.961 91.5158 54.9284 91.5216 54.8969C92.9515 46.8454 89.5264 44.1247 89.4917 44.0969C89.4766 44.0876 89.4637 44.0751 89.4537 44.0604C89.4437 44.0458 89.4369 44.0292 89.4338 44.0117C89.4306 43.9942 89.4311 43.9763 89.4353 43.9591C89.4394 43.9418 89.4472 43.9256 89.4579 43.9115C89.4687 43.8974 89.4823 43.8858 89.4979 43.8772C89.5135 43.8687 89.5307 43.8635 89.5483 43.8621C89.566 43.8606 89.5838 43.8628 89.6006 43.8686C89.6174 43.8744 89.6328 43.8836 89.6457 43.8957C89.7927 44.0063 93.2308 46.7278 91.7734 54.9407C91.7673 54.9743 91.7483 55.0042 91.7203 55.0238C91.6923 55.0435 91.6578 55.0513 91.6241 55.0456L91.6142 55.043Z" fill="#383333"/>
<path d="M29.6123 35.8662C29.5805 35.8577 29.5533 35.8372 29.5362 35.8091C29.5192 35.7809 29.5137 35.7473 29.521 35.7152C31.1201 28.7633 36.6647 27.1545 36.7194 27.1375C36.7522 27.1289 36.7871 27.1335 36.8166 27.1502C36.8461 27.167 36.8678 27.1947 36.8772 27.2273C36.8818 27.2433 36.8832 27.2601 36.8812 27.2767C36.8792 27.2933 36.8738 27.3093 36.8655 27.3238C36.8572 27.3383 36.8461 27.351 36.8328 27.3611C36.8195 27.3712 36.8043 27.3785 36.7881 27.3826C36.7335 27.3996 31.3538 28.9735 29.7669 35.7811C29.7632 35.7974 29.7564 35.8129 29.7467 35.8265C29.7371 35.8402 29.7248 35.8518 29.7107 35.8608C29.6966 35.8697 29.6808 35.8758 29.6643 35.8786C29.6478 35.8815 29.6309 35.881 29.6146 35.8773L29.6123 35.8662Z" fill="#383333"/>
<path d="M51.1967 81.8868C48.2678 81.095 45.5216 79.7395 43.1116 77.8964C43.0976 77.8863 43.0857 77.8734 43.0769 77.8586C43.0681 77.8437 43.0624 77.8272 43.0603 77.81C43.0583 77.7928 43.0598 77.7754 43.0648 77.7588C43.0697 77.7423 43.0781 77.727 43.0894 77.7138C43.1113 77.6877 43.1425 77.6713 43.1764 77.6681C43.2104 77.6648 43.2442 77.675 43.2706 77.6965C43.3412 77.7576 50.522 83.667 59.4034 82.0193C59.4197 82.016 59.4364 82.016 59.4526 82.0193C59.4689 82.0226 59.4843 82.0291 59.498 82.0384C59.5117 82.0477 59.5234 82.0597 59.5324 82.0736C59.5415 82.0875 59.5476 82.103 59.5506 82.1193C59.5538 82.1357 59.5538 82.1527 59.5505 82.1691C59.5472 82.1855 59.5406 82.2011 59.5313 82.215C59.5219 82.2289 59.5099 82.2408 59.496 82.2501C59.482 82.2593 59.4663 82.2657 59.4499 82.2689C56.7049 82.7605 53.8845 82.6299 51.1967 81.8868Z" fill="#383333"/>
<path fill-rule="evenodd" clip-rule="evenodd" d="M65.7927 57.7998C65.7927 57.7998 68.0223 61.2835 72.8238 59.6838C72.8238 59.6838 74.4031 60.3705 74.4289 60.5303C74.4546 60.6901 73.1136 60.6286 72.2446 60.8122C71.3757 60.9959 66.4336 60.8578 65.7927 57.7998Z" fill="#383333"/>
<path fill-rule="evenodd" clip-rule="evenodd" d="M50.4001 53.6752C50.4001 53.6752 46.7274 55.5774 43.369 51.7912C43.369 51.7912 41.6579 51.5963 41.5434 51.7185C41.429 51.8408 42.6333 52.4613 43.294 53.0548C43.9548 53.6483 48.3161 56.0031 50.4001 53.6752Z" fill="#383333"/>
<path fill-rule="evenodd" clip-rule="evenodd" d="M66.225 61.5083C66.225 61.5083 67.4922 63.1236 70.4309 63.5183C73.3695 63.913 75.2272 62.4496 76.3842 64.2305C77.5413 66.0113 73.0057 71.9207 67.9433 70.5985C62.881 69.2763 62.5057 62.4728 63.2312 61.2307C63.9568 59.9886 64.6169 59.6989 66.225 61.5083Z" fill="#FF832F"/>
<path fill-rule="evenodd" clip-rule="evenodd" d="M48.9632 56.8832C48.9632 56.8832 47.058 57.6485 44.3158 56.521C41.5735 55.3934 40.6977 53.1924 38.8089 54.1624C36.92 55.1324 37.8896 62.5116 42.9349 63.8977C47.9801 65.2838 51.7069 59.5795 51.6996 58.141C51.6923 56.7025 51.2605 56.1203 48.9632 56.8832Z" fill="#FF832F"/>
<path d="M54.7272 69.8616C53.0702 69.402 51.6137 68.4033 50.5877 67.0233C50.5682 66.9955 50.5604 66.9612 50.5659 66.9277C50.5714 66.8942 50.5899 66.8642 50.6172 66.8441C50.6307 66.8342 50.6459 66.827 50.6622 66.8231C50.6784 66.8191 50.6953 66.8185 50.7117 66.8212C50.7282 66.8239 50.744 66.8299 50.7581 66.8388C50.7723 66.8477 50.7845 66.8593 50.794 66.873C51.8059 68.2341 53.2514 69.2099 54.8921 69.6396C56.4726 70.031 58.1382 69.8868 59.6279 69.2295C59.643 69.2224 59.6594 69.2184 59.6761 69.2178C59.6928 69.2171 59.7094 69.2198 59.725 69.2257C59.7407 69.2316 59.755 69.2406 59.767 69.2522C59.7791 69.2637 59.7888 69.2775 59.7954 69.2929C59.8091 69.3239 59.81 69.3591 59.7981 69.3909C59.7861 69.4227 59.7622 69.4485 59.7314 69.4629C58.1897 70.139 56.4672 70.2847 54.8338 69.877L54.7272 69.8616Z" fill="#383333"/>
<path d="M40.1168 19.4837C39.9948 19.452 39.885 19.3846 39.8015 19.2901C39.7179 19.1957 39.6644 19.0785 39.6478 18.9535C39.6313 18.8285 39.6523 18.7015 39.7083 18.5885C39.7643 18.4755 39.8527 18.3818 39.9622 18.3194C40.2741 18.1394 47.6306 13.9295 56.4529 15.6898C56.6187 15.7231 56.7646 15.8208 56.8583 15.9616C56.9521 16.1024 56.9861 16.2747 56.9528 16.4406C56.9196 16.6064 56.8218 16.7523 56.681 16.846C56.5402 16.9398 56.3679 16.9738 56.2021 16.9405C47.8476 15.2739 40.677 19.3702 40.6027 19.4214C40.4553 19.5056 40.2806 19.528 40.1168 19.4837Z" fill="white"/>
<path d="M44.3252 76.3463C44.2806 76.3343 44.2373 76.3174 44.1964 76.296C38.8695 73.5507 35.3288 64.4151 35.1821 64.0279C35.1388 63.9484 35.1129 63.8606 35.1061 63.7704C35.0994 63.6801 35.1119 63.5894 35.143 63.5044C35.1741 63.4194 35.2229 63.342 35.2863 63.2774C35.3496 63.2127 35.4261 63.1623 35.5104 63.1296C35.5948 63.0968 35.6852 63.0824 35.7756 63.0874C35.866 63.0923 35.9542 63.1165 36.0345 63.1582C36.1148 63.2 36.1853 63.2584 36.2413 63.3296C36.2972 63.4007 36.3373 63.483 36.3589 63.5709C36.3933 63.6592 39.867 72.6319 44.7688 75.1631C44.9075 75.2355 45.0146 75.3564 45.0698 75.5028C45.1249 75.6492 45.1243 75.8107 45.0679 75.9567C45.0115 76.1026 44.9034 76.2226 44.7641 76.2939C44.6249 76.3652 44.4643 76.3826 44.3129 76.343L44.3252 76.3463Z" fill="white"/>
<path d="M13.4901 94.3829C13.4486 94.3724 13.4084 94.3573 13.3704 94.3376C13.2944 94.3014 13.2263 94.2505 13.1701 94.1879C13.1139 94.1252 13.0706 94.052 13.0429 93.9725C13.0152 93.893 13.0035 93.8087 13.0085 93.7247C13.0136 93.6406 13.0353 93.5584 13.0723 93.4828C13.8993 91.9359 14.9462 90.5171 16.1805 89.2706C18.8813 86.5493 22.0082 85.2969 25.214 85.6683C25.2972 85.6778 25.3776 85.7035 25.4508 85.7441C25.524 85.7846 25.5885 85.8392 25.6405 85.9047C25.6926 85.9702 25.7313 86.0453 25.7544 86.1257C25.7774 86.2061 25.7844 86.2903 25.775 86.3734C25.7655 86.4566 25.7398 86.537 25.6992 86.6102C25.6586 86.6834 25.6041 86.7479 25.5386 86.7999C25.4731 86.852 25.398 86.8907 25.3176 86.9138C25.2371 86.9369 25.153 86.9439 25.0698 86.9344C18.2474 86.1606 14.2511 93.9726 14.2043 94.0391C14.1416 94.1688 14.0369 94.2733 13.9072 94.3357C13.7775 94.3982 13.6305 94.4148 13.4901 94.3829Z" fill="white"/>
<path d="M76.5772 111.288C76.4395 111.251 76.3184 111.168 76.2331 111.053C76.1477 110.939 76.1031 110.799 76.1061 110.656C76.3863 100.314 68.107 96.8229 68.028 96.7832C67.9499 96.7516 67.8789 96.7049 67.8189 96.6458C67.7589 96.5867 67.7111 96.5163 67.6783 96.4387C67.6454 96.3612 67.6282 96.2779 67.6276 96.1937C67.627 96.1095 67.6429 96.0259 67.6746 95.9479C67.7062 95.8698 67.7529 95.7988 67.812 95.7388C67.8711 95.6787 67.9415 95.631 68.0191 95.5982C68.0966 95.5653 68.1799 95.5481 68.2641 95.5475C68.3483 95.5468 68.4319 95.5628 68.5099 95.5945C68.6001 95.6318 77.6902 99.4618 77.3848 110.675C77.3788 110.842 77.3069 111.001 77.1848 111.116C77.0627 111.232 76.9001 111.294 76.7322 111.29C76.6806 111.295 76.6287 111.294 76.5772 111.288Z" fill="white"/>
<path d="M45.2185 111.012C40.8656 109.846 36.6002 108.176 36.3276 108.081C36.1693 108.02 36.042 107.898 35.9737 107.742C35.9054 107.587 35.9016 107.411 35.9633 107.252C36.0249 107.094 36.1469 106.967 36.3023 106.898C36.4578 106.83 36.6341 106.826 36.7923 106.888C36.8956 106.916 46.6709 110.726 51.5717 110.861C51.659 110.858 51.7461 110.873 51.8274 110.905C51.9087 110.937 51.9826 110.985 52.0444 111.047C52.1062 111.109 52.1547 111.183 52.1867 111.264C52.2187 111.346 52.2337 111.433 52.2306 111.52C52.2275 111.607 52.2064 111.693 52.1688 111.772C52.1311 111.851 52.0776 111.921 52.0116 111.978C51.9455 112.036 51.8684 112.079 51.7851 112.105C51.7017 112.131 51.6138 112.14 51.5269 112.13C49.7785 112.094 47.4859 111.62 45.2185 111.012Z" fill="white"/>
<path d="M55.5633 111.064C54.4714 110.772 54.1804 112.507 55.2674 112.798C56.3544 113.09 56.6503 111.356 55.5633 111.064Z" fill="white"/>
<path d="M33.5296 106.12C32.4377 105.827 32.1473 107.56 33.2343 107.852C34.3213 108.143 34.6093 106.409 33.5296 106.12Z" fill="white"/>
<path d="M30.0481 86.05C30.0857 85.8239 30.0345 85.592 29.9052 85.4028C29.7628 85.2159 29.5586 85.0855 29.329 85.0349L29.2479 85.0132C29.018 84.9743 28.782 85.0282 28.5917 85.1629C28.4015 85.2977 28.2724 85.5025 28.2328 85.7323C28.1965 85.9583 28.2476 86.1897 28.3757 86.3794C28.5202 86.564 28.7239 86.6931 28.9526 86.7449L29.0337 86.7666C29.2633 86.8061 29.4991 86.7527 29.6893 86.6183C29.8795 86.484 30.0086 86.2795 30.0481 86.05Z" fill="white"/>
<path d="M12.3467 95.7355C11.2547 95.4429 10.9612 97.1777 12.0482 97.4689C13.1352 97.7602 13.4337 96.0267 12.3467 95.7355Z" fill="white"/>
<path d="M65.0143 93.0291C63.9223 92.7365 63.632 94.4695 64.719 94.7608C65.806 95.0521 66.1013 93.3204 65.0143 93.0291Z" fill="white"/>
<path d="M76.2668 112.515C75.1749 112.222 74.8821 113.955 75.9691 114.246C77.0561 114.537 77.3538 112.806 76.2668 112.515Z" fill="white"/>
<path d="M48.9227 77.2996C47.8308 77.007 47.5397 78.7425 48.6267 79.0338C49.7137 79.325 50.0097 77.5909 48.9227 77.2996Z" fill="white"/>
<path d="M60.0514 16.5721C58.9595 16.2795 58.6691 18.0125 59.7561 18.3038C60.8431 18.595 61.1384 16.8633 60.0514 16.5721Z" fill="white"/>
<path d="M37.065 21.0457C35.9731 20.7531 35.6827 22.4861 36.7697 22.7774C37.8567 23.0687 38.1619 21.3396 37.065 21.0457Z" fill="white"/>
</svg>
