<svg width="109" height="108" viewBox="0 0 109 108" fill="none" xmlns="http://www.w3.org/2000/svg">
<g id="Group">
<path id="Vector" d="M31.5713 19.9286H10.2142C8.64273 19.9286 7.42847 21.2143 7.42847 22.7143V44.0714C7.42847 45.6429 8.71416 46.8572 10.2142 46.8572H31.5713C33.1428 46.8572 34.3571 45.5714 34.3571 44.0714V22.7143C34.3571 21.2143 33.1428 19.9286 31.5713 19.9286Z" fill="#FCFFF5"/>
<path id="Vector_2" d="M72.0002 65.7857V87.1429C72.0002 88.7143 73.286 89.9286 74.786 89.9286H96.1432C97.7146 89.9286 98.9288 88.6429 98.9288 87.1429V65.7857C98.9288 64.2143 97.6432 63 96.1432 63H74.786C73.286 63 72.0002 64.2143 72.0002 65.7857Z" fill="#FCFFF5"/>
<path id="Vector_3" d="M42.0716 63H20.7144C19.143 63 17.9287 64.2857 17.9287 65.7857V87.1429C17.9287 88.7143 19.2144 89.9286 20.7144 89.9286H42.0716C43.643 89.9286 44.8573 88.6429 44.8573 87.1429V65.7857C44.8573 64.2143 43.643 63 42.0716 63Z" fill="#FCFFF5"/>
<path id="Vector_4" d="M85.2142 19.9286H63.857C62.2856 19.9286 61.0713 21.2143 61.0713 22.7143V44.0714C61.0713 45.6429 62.357 46.8572 63.857 46.8572H85.2142C86.7856 46.8572 87.9999 45.5714 87.9999 44.0714V22.7143C87.9999 21.2143 86.7856 19.9286 85.2142 19.9286Z" fill="#FCFFF5"/>
<path id="Vector_5" d="M71.3576 54.7857L54.9291 71.2142C54.4291 71.7142 54.1433 72.4286 54.1433 73.2143V88.7143V89.8571V105.214C54.1433 106.786 55.429 108 56.929 108H89.1433C89.8576 108 90.5719 107.714 91.1434 107.143L107.429 90.6428C107.929 90.1428 108.215 89.4286 108.215 88.6428V56.7142C108.215 55.1428 106.929 53.9286 105.429 53.9286H90.3576H89.2148H73.429C72.5719 54 71.8576 54.2857 71.3576 54.7857ZM96.1434 63C97.7148 63 98.9291 64.2857 98.9291 65.7857V87.1429C98.9291 88.7143 97.6434 89.9285 96.1434 89.9285H74.7862C73.2148 89.9285 72.0005 88.6429 72.0005 87.1429V65.7857C72.0005 64.2143 73.2862 63 74.7862 63H96.1434Z" fill="#05C7AA"/>
<path id="Vector_6" d="M54.0715 72.0714V54H36.1429H35H19.2143C18.5 54 17.7857 54.2857 17.2143 54.7857L0.785741 71.2143C0.285741 71.7143 0 72.4286 0 73.2143V105.143C0 106.714 1.28573 107.929 2.78573 107.929H35C35.7143 107.929 36.4286 107.643 37 107.071L53.2858 90.5715C53.7858 90.0715 54.0715 89.3572 54.0715 88.5715V73.0714V72.0714ZM44.8572 87.1429C44.8572 88.7143 43.5715 89.9286 42.0715 89.9286H20.7143C19.1429 89.9286 17.9286 88.6429 17.9286 87.1429V65.7857C17.9286 64.2143 19.2143 63 20.7143 63H42.0715C43.6429 63 44.8572 64.2857 44.8572 65.7857V87.1429Z" fill="#030728"/>
<path id="Vector_7" d="M105.357 0H73.2854C72.5711 0 71.8568 0.285697 71.2853 0.785697L54.8567 17.2143C54.3567 17.7143 54.071 18.4286 54.071 19.2143V34.7143V35.8571V54H72.1425H73.2854H89.0711C89.7854 54 90.4996 53.7143 91.0711 53.1429L107.357 36.6429C107.857 36.1429 108.143 35.4286 108.143 34.7143V2.78569C108.143 1.28569 106.928 0 105.357 0ZM87.9996 44.1429C87.9996 45.7143 86.7139 46.9286 85.2139 46.9286H63.8568C62.2853 46.9286 61.071 45.6429 61.071 44.1429V22.7857C61.071 21.2143 62.3568 20 63.8568 20H85.2139C86.7853 20 87.9996 21.2857 87.9996 22.7857V44.1429Z" fill="#030728"/>
<path id="Vector_8" d="M37 53.1429L53.2858 36.6429C53.7858 36.1429 54.0715 35.4286 54.0715 34.7143V19.2143V18.0714V2.78569C54.0715 1.21426 52.7857 0 51.2857 0H19.2143C18.5 0 17.7857 0.285697 17.2143 0.785697L0.785741 17.2143C0.285741 17.7143 0 18.4286 0 19.2143V51.1429C0 52.7143 1.28573 53.9286 2.78573 53.9286H18.0714H19.2143H35C35.7857 54 36.5 53.7143 37 53.1429ZM34.3572 44.1429C34.3572 45.7143 33.0715 46.9286 31.5715 46.9286H10.2143C8.64285 46.9286 7.42859 45.6429 7.42859 44.1429V22.7857C7.42859 21.2143 8.71428 20 10.2143 20H31.5715C33.1429 20 34.3572 21.2857 34.3572 22.7857V44.1429Z" fill="#05C7AA"/>
</g>
</svg>
