<svg width="159" height="141" viewBox="0 0 159 141" fill="none" xmlns="http://www.w3.org/2000/svg">
<path d="M139.961 51.3135C139.927 51.3046 139.894 51.2929 139.861 51.2784C139.071 50.9253 120.509 42.5426 119.788 34.531C119.589 32.3209 120.711 30.3645 123.123 28.716C125.74 26.9265 128.31 26.5134 130.755 27.4849C138.758 30.6646 142.571 47.7574 142.729 48.4837C142.807 48.8409 142.581 49.1936 142.223 49.2716C141.866 49.3494 141.513 49.1233 141.435 48.766C141.398 48.595 137.616 31.635 130.265 28.7154C128.227 27.9046 126.132 28.2624 123.87 29.8089C121.855 31.1858 120.952 32.6915 121.106 34.412C121.757 41.6552 140.215 49.9859 140.401 50.0694C140.735 50.2186 140.884 50.6104 140.735 50.9442C140.601 51.245 140.27 51.3963 139.961 51.3135Z" fill="black"/>
<path d="M151.36 59.5402C151.25 58.4485 151.005 57.4036 150.641 56.4206C150.503 56.0478 149.944 55.8218 149.773 55.4675C149.559 55.0233 149.725 54.4561 149.463 54.0441C148.746 52.916 147.856 51.9145 146.834 51.0726C146.547 50.8356 145.978 51.0008 145.671 50.7898C145.317 50.5469 145.22 49.9324 144.842 49.7265C143.878 49.2013 142.842 48.7994 141.756 48.5392C141.324 48.4359 140.738 48.9021 140.292 48.8446C139.847 48.7872 139.542 48.2066 139.085 48.1975C138.582 48.1876 138.074 48.2076 137.562 48.259C136.073 48.4085 134.672 48.8109 133.396 49.4195C133.035 49.5921 132.947 50.0006 132.606 50.205C132.349 50.3594 131.834 50.3032 131.589 50.475C130.546 51.2073 129.623 52.0923 128.85 53.0939C128.596 53.4227 128.729 53.9589 128.508 54.3118C128.287 54.6646 127.712 54.8338 127.527 55.2081C126.819 56.6365 126.375 58.2112 126.254 59.8619L124.373 60.2709L121.442 60.9084L116.125 62.063C115.355 62.229 114.832 62.9479 114.911 63.7326L115.962 74.2008C116.047 75.0534 116.808 75.6749 117.66 75.5893L133.892 73.9601L135.145 73.424L136.486 73.7L140.868 73.2599L140.865 73.2318C141.571 73.1164 142.254 72.9436 142.912 72.7187C143.311 72.582 143.649 72.0089 144.028 71.8348C144.432 71.6495 144.876 71.8605 145.254 71.6359C146.308 71.0096 147.258 70.2358 148.08 69.3458C148.261 69.149 148.31 68.5263 148.479 68.3184C148.817 67.902 149.255 67.8845 149.538 67.4279C150.174 66.4027 150.665 65.2827 150.986 64.0993C151.098 63.6885 150.737 63.2562 150.807 62.8314C150.875 62.4135 151.375 62.0034 151.4 61.5746C151.441 60.9069 151.429 60.2273 151.36 59.5402Z" fill="#FF8CD0"/>
<path d="M119.625 63.9971C119.502 63.2552 120.004 62.554 120.746 62.4312C121.488 62.3083 122.189 62.8102 122.312 63.5521C122.435 64.2941 121.933 64.9953 121.191 65.1181C120.449 65.2409 119.748 64.7391 119.625 63.9971Z" fill="#FFE6B3"/>
<path d="M141.757 48.5384C141.619 49.0312 141.208 49.426 140.667 49.5161C139.925 49.6392 139.224 49.1374 139.1 48.3946C139.088 48.3285 139.084 48.2619 139.085 48.1966C139.998 48.2145 140.892 48.3313 141.757 48.5384Z" fill="#FFE6B3"/>
<path d="M132.271 50.5372C132.034 50.5773 131.8 50.5529 131.589 50.4745C132.154 50.0772 132.757 49.7253 133.389 49.4225C133.297 49.9794 132.86 50.4409 132.271 50.5372Z" fill="#FFE6B3"/>
<path d="M143.428 55.6625C143.551 56.4044 143.049 57.1057 142.307 57.2285C141.566 57.3513 140.864 56.8494 140.741 56.1075C140.619 55.3656 141.121 54.6643 141.862 54.5415C142.605 54.4188 143.306 54.9206 143.428 55.6625Z" fill="#FFE6B3"/>
<path d="M132.89 58.6751C133.62 58.8589 134.36 58.4167 134.544 57.6874C134.728 56.9581 134.285 56.2178 133.556 56.034C132.827 55.8502 132.087 56.2924 131.903 57.0217C131.719 57.751 132.161 58.4913 132.89 58.6751Z" fill="#FFE6B3"/>
<path d="M127.972 55.2114C127.821 55.2363 127.671 55.2344 127.528 55.2096C127.902 54.4553 128.346 53.7444 128.862 53.0827C128.977 53.2446 129.057 53.4353 129.094 53.6444C129.217 54.3873 128.712 55.0876 127.972 55.2114Z" fill="#FFE6B3"/>
<path d="M136.947 53.6106C137.676 53.7945 138.417 53.3522 138.6 52.6229C138.784 51.8936 138.342 51.1534 137.613 50.9696C136.883 50.7857 136.143 51.2279 135.959 51.9573C135.776 52.6866 136.218 53.4268 136.947 53.6106Z" fill="#FFE6B3"/>
<path d="M128.833 63.7386C129.563 63.9224 130.303 63.4802 130.487 62.7509C130.671 62.0215 130.228 61.2813 129.499 61.0975C128.77 60.9137 128.029 61.3559 127.846 62.0852C127.662 62.8145 128.104 63.5548 128.833 63.7386Z" fill="#FFE6B3"/>
<path d="M150.631 56.3991C150.617 56.4008 150.602 56.405 150.588 56.4067C149.845 56.5298 149.144 56.028 149.021 55.2852C148.942 54.8054 149.126 54.3441 149.463 54.0439C149.93 54.7779 150.325 55.5662 150.631 56.3991Z" fill="#FFE6B3"/>
<path d="M145.697 52.2764C144.956 52.4002 144.255 51.8984 144.132 51.1555C144.032 50.5608 144.337 49.9928 144.843 49.7269C145.548 50.1098 146.211 50.5604 146.827 51.0723C146.769 51.6681 146.316 52.1748 145.697 52.2764Z" fill="#FFE6B3"/>
<path d="M145.548 59.7032C145.425 58.9613 145.927 58.26 146.669 58.1372C147.411 58.0144 148.112 58.5163 148.235 59.2582C148.358 60.0001 147.856 60.7014 147.114 60.8242C146.372 60.947 145.671 60.4451 145.548 59.7032Z" fill="#FFE6B3"/>
<path d="M127.116 67.1352C127.239 67.8771 126.737 68.5783 125.995 68.7011C125.253 68.824 124.552 68.3221 124.429 67.5802C124.306 66.8382 124.808 66.137 125.55 66.0142C126.292 65.8914 126.993 66.3932 127.116 67.1352Z" fill="#FFE6B3"/>
<path d="M118.194 69.2732C118.445 68.564 118.073 67.7859 117.364 67.5353C116.655 67.2846 115.877 67.6562 115.626 68.3654C115.375 69.0745 115.747 69.8526 116.456 70.1033C117.165 70.354 117.943 69.9823 118.194 69.2732Z" fill="#FFE6B3"/>
<path d="M123.726 72.0883C123.849 72.8302 123.347 73.5315 122.605 73.6543C121.863 73.7771 121.162 73.2752 121.039 72.5333C120.916 71.7913 121.418 71.0901 122.16 70.9673C122.902 70.8445 123.603 71.3463 123.726 72.0883Z" fill="#FFE6B3"/>
<path d="M144.843 64.1986C144.965 64.9406 144.463 65.6418 143.722 65.7646C142.98 65.8874 142.278 65.3856 142.156 64.6436C142.033 63.9017 142.535 63.2005 143.277 63.0776C144.018 62.9548 144.719 63.4566 144.843 64.1986Z" fill="#FFE6B3"/>
<path d="M135.979 65.6664C136.102 66.4083 135.6 67.1096 134.858 67.2324C134.117 67.3552 133.415 66.8533 133.293 66.1114C133.17 65.3695 133.672 64.6682 134.413 64.5454C135.155 64.4226 135.857 64.9245 135.979 65.6664Z" fill="#FFE6B3"/>
<path d="M145.242 71.6424C144.511 72.0772 143.732 72.439 142.909 72.7181C142.834 72.01 143.325 71.3581 144.039 71.2409C144.499 71.1648 144.944 71.3278 145.242 71.6424Z" fill="#FFE6B3"/>
<path d="M136.486 73.6995L133.891 73.9597C133.993 73.4163 134.424 72.9694 135.004 72.8736C135.642 72.766 136.25 73.1255 136.486 73.6995Z" fill="#FFE6B3"/>
<path d="M131.922 70.7309C132.045 71.4728 131.543 72.174 130.801 72.2968C130.059 72.4197 129.358 71.9178 129.235 71.1759C129.113 70.4339 129.614 69.7327 130.356 69.6099C131.098 69.4871 131.799 69.9889 131.922 70.7309Z" fill="#FFE6B3"/>
<path d="M141.452 69.1518C141.575 69.8937 141.073 70.5949 140.331 70.7177C139.589 70.8406 138.888 70.3387 138.765 69.5968C138.643 68.8548 139.144 68.1536 139.886 68.0308C140.628 67.908 141.329 68.4098 141.452 69.1518Z" fill="#FFE6B3"/>
<path d="M150.991 64.0823C150.654 63.8853 150.403 63.5453 150.335 63.1283C150.215 62.4054 150.691 61.7193 151.401 61.5739C151.348 62.4334 151.208 63.2722 150.991 64.0823Z" fill="#FFE6B3"/>
<path d="M149.535 67.4298C149.11 68.1186 148.617 68.7648 148.068 69.3575C147.515 69.2612 147.059 68.8249 146.962 68.2392C146.839 67.4964 147.34 66.7954 148.083 66.6723C148.697 66.572 149.282 66.8952 149.535 67.4298Z" fill="#FFE6B3"/>
<path d="M137.298 66.4789C140.436 67.3196 143.661 65.4577 144.501 62.3201C145.342 59.1826 143.48 55.9576 140.343 55.1169C137.205 54.2762 133.98 56.1382 133.139 59.2757C132.299 62.4132 134.161 65.6382 137.298 66.4789Z" fill="#9264FF"/>
<path d="M124.373 60.2712L124.684 63.3697C124.766 64.1884 124.167 64.9179 123.349 65C122.531 65.0822 121.801 64.4859 121.719 63.6675L121.442 60.909L124.373 60.2712Z" fill="black"/>
<path d="M128.281 114.089C128.228 114.285 128.762 114.643 128.705 114.838C127.32 119.559 124.668 123.581 121.221 126.631C121.049 126.784 120.585 126.152 120.408 126.3C120.252 126.43 120.383 127.342 120.224 127.468C114.32 132.177 106.389 134.19 98.5291 132.296C98.3173 132.245 98.2823 131.547 98.0707 131.491C97.8582 131.434 97.4701 132.018 97.2604 131.956C89.5238 129.67 83.6709 123.98 80.9048 116.97C80.8367 116.798 81.038 116.256 80.9734 116.082C80.8856 115.844 80.5336 115.973 80.4528 115.732C78.9903 111.376 78.6977 106.576 79.8465 101.801C79.8979 101.587 80.6586 101.561 80.7159 101.347C80.7732 101.133 80.127 100.733 80.1893 100.522C81.5724 95.8438 84.2 91.8547 87.6113 88.8204C87.7712 88.6781 88.2713 88.8954 88.4344 88.7575C88.6267 88.595 88.4827 88.0781 88.6796 87.9217C94.5801 83.2288 102.497 81.2238 110.344 83.1118C110.558 83.1634 110.616 83.8037 110.829 83.861C111.043 83.9183 111.412 83.3923 111.623 83.4545C119.373 85.7463 125.233 91.4537 127.992 98.4816C128.078 98.7015 127.559 99.1794 127.639 99.4021C127.706 99.5894 128.374 99.5211 128.438 99.71C129.894 104.069 130.18 108.87 129.024 113.644C128.975 113.846 128.335 113.886 128.281 114.089Z" fill="#9264FF"/>
<path d="M128.869 114.25C128.926 114.035 128.981 113.822 129.032 113.609L120.708 111.378C122.247 106.136 125.158 101.932 128.433 99.708C128.296 99.2874 128.145 98.8711 127.983 98.4604C124.319 100.829 121.089 105.36 119.429 111.035L105.251 107.236L111.624 83.452C111.413 83.3899 111.202 83.3305 110.987 83.2729C110.772 83.2153 110.559 83.161 110.345 83.1092L103.972 106.893L89.7914 103.094C91.191 97.3487 90.6622 91.8108 88.673 87.9273C88.3254 88.2016 87.986 88.4863 87.6578 88.7796C89.3845 92.3434 89.803 97.4431 88.5149 102.752L80.1878 100.521C80.1258 100.731 80.0663 100.943 80.0087 101.158C79.9512 101.373 79.8968 101.586 79.845 101.8L88.1721 104.031C86.6333 109.273 83.721 113.48 80.4437 115.703C80.5831 116.124 80.7355 116.538 80.8968 116.949C84.5615 114.58 87.7888 110.046 89.4485 104.373L103.629 108.173L97.2568 131.955C97.4676 132.017 97.6794 132.076 97.8944 132.134C98.1091 132.191 98.3222 132.246 98.536 132.297L104.908 108.516L119.086 112.315C117.687 118.057 118.218 123.598 120.204 127.481C120.552 127.207 120.892 126.922 121.221 126.626C119.496 123.063 119.077 117.966 120.365 112.658L128.69 114.888C128.752 114.677 128.811 114.465 128.869 114.25Z" fill="black"/>
<path d="M106.701 51.3244C106.554 51.0686 106.787 50.7523 106.621 50.5125C105.338 48.6638 103.512 47.2978 101.367 46.5894C101.175 46.5259 100.307 46.7741 100.11 46.7214C99.684 46.6072 99.928 46.2142 99.4978 46.1548C98.3021 45.9904 97.0986 46.0364 95.9335 46.2864L97.9876 40.0878L97.9835 38.9853L99.0858 39.4893L100.149 39.7742C101.56 40.1524 103.013 39.3158 103.392 37.902C103.476 37.5887 103.501 37.2706 103.471 36.9649C103.469 36.9508 103.467 36.9393 103.461 36.9296C103.392 36.7608 102.953 36.788 102.891 36.6046C102.808 36.364 103.137 35.8872 102.989 35.6781C102.646 35.1957 102.136 34.8244 101.52 34.6593L95.5056 33.0478L94.0517 32.9312L93.692 32.5618L85.4642 30.3572L84.0688 30.2563L83.6938 29.8828L75.4556 27.6754L74.1494 27.5984L73.6776 27.199L65.4498 24.9943L64.0213 24.8846L63.6285 24.5063L55.3855 22.2976L54.2015 22.2534L53.5973 21.8185L45.3822 19.6172L44.2492 19.5867L43.5966 19.1388L36.9023 17.345C35.4885 16.9662 34.0376 17.8061 33.6595 19.2173C33.2807 20.631 34.118 22.0812 35.5317 22.46L37.106 22.8818L38.0099 22.881L37.1197 24.4199L35.9266 30.2076C34.7218 29.1203 33.2722 28.3251 31.6623 27.8937C31.5171 27.8548 31.3712 27.8185 31.2265 27.7879C30.7014 27.669 30.2167 27.8886 29.6915 27.8516C29.4282 27.8357 29.1243 27.5331 28.8613 27.5364C27.0936 27.5514 25.3508 28.0236 23.7753 28.9311C22.1759 29.8567 20.8771 31.1577 19.9758 32.7181C19.7913 33.04 20.0846 33.3616 19.933 33.7032C19.7747 34.0594 19.1767 34.437 19.059 34.815C19.0131 34.9556 18.9717 35.1001 18.9335 35.2427C18.3581 37.3901 18.4806 39.6125 19.262 41.6484C19.3448 41.859 19.7486 41.8907 19.8436 42.0964C19.9405 42.3053 19.7287 42.6881 19.8379 42.892C19.882 42.9721 19.9267 43.0496 19.9708 43.1297C20.7192 44.4223 22.015 46.0363 23.5521 47.6358C23.7187 47.8088 24.2166 47.7238 24.3883 47.8981C24.5537 48.0653 24.3937 48.4893 24.5623 48.6546C25.4964 49.5601 26.4891 50.4404 27.4796 51.2272C28.1676 51.7774 28.8336 52.2671 29.4827 52.6977C29.7281 52.8617 30.314 52.713 30.5527 52.8615C30.7503 52.98 30.6018 53.4016 30.7938 53.5104C31.8932 54.1353 32.9265 54.5788 33.8919 54.8374C34.1084 54.8955 34.3219 54.9445 34.533 54.9819C34.8095 55.9062 35.1292 56.8153 35.4905 57.7055C35.5866 57.942 36.2214 57.954 36.3231 58.1879C36.3965 58.357 35.9358 58.7487 36.0124 58.9164C36.8491 60.7486 37.8645 62.4939 39.0423 64.1252C39.1729 64.3062 39.7419 64.2594 39.8765 64.4375C40.0088 64.6124 39.7067 65.0122 39.8427 65.1844C41.1231 66.8046 42.5702 68.2989 44.1667 69.6383C44.3401 69.7858 45.0806 69.6399 45.2579 69.783C45.284 69.8039 45.0686 70.3468 45.2409 70.4995C45.2498 70.5073 45.2611 70.5158 45.27 70.5237C47.0194 71.8606 48.9268 73.016 50.9752 73.9608L50.9041 74.2259L51.0822 74.7768L50.4211 76.0286L48.2319 84.1986L48.5761 84.91L47.7373 86.0446L45.5372 94.2556L45.6352 95.1705C42.6484 95.8164 40.2744 97.8119 38.0653 100.081C37.481 101.017 37.0236 102.054 36.7232 103.175L58.7598 109.079C59.134 107.683 59.2317 106.278 59.0866 104.922C59.0622 104.694 58.5656 104.514 58.5275 104.288C58.4863 104.044 58.902 103.754 58.8452 103.513C58.3766 101.536 57.3853 99.7152 55.9872 98.2479C55.8966 98.1529 55.5156 98.2829 55.4215 98.1908C55.3179 98.0893 55.5009 97.766 55.3936 97.6684L57.7952 88.7052L57.5994 88.1125L58.2788 86.9005L60.4833 78.6732L60.2767 77.9905L60.9625 76.8848L61.0243 76.6542C61.12 76.6629 61.2155 76.6713 61.3108 76.6791C61.6734 76.7088 62.4944 76.347 62.856 76.3639C63.322 76.3853 63.3284 76.7813 63.7922 76.7813C71.6512 76.7827 79.1461 73.727 84.7532 68.4386C84.9547 68.5118 85.1641 68.5761 85.3806 68.6341C86.4905 68.9315 87.7992 69.0634 89.3032 69.0291C89.8209 69.0174 90.653 68.4521 91.2169 68.4009C91.6772 68.3591 91.8619 68.8375 92.3531 68.7692C92.4806 68.7515 92.6094 68.7328 92.739 68.7135C96.6389 68.1285 100.978 66.7903 103.288 65.4545C105.517 64.1679 107.156 62.1514 107.957 59.7294C108.021 59.5365 107.671 59.4115 107.724 59.2135C107.829 58.8241 108.318 58.3619 108.377 57.9692C108.701 55.7993 108.331 53.6016 107.304 51.6395C107.236 51.5111 106.775 51.4513 106.701 51.3244ZM30.3266 46.7156C29.9821 46.4322 29.6428 46.1393 29.3152 45.844C29.1607 45.7071 28.6726 45.7456 28.524 45.6074C28.3338 45.4309 28.4856 45.0784 28.3037 44.9013C26.5312 43.1815 25.1359 41.4807 24.5603 40.4801C24.5037 40.3858 24.451 40.287 24.4034 40.1896C24.3112 40.0038 23.8751 39.9197 23.8092 39.7274C23.7279 39.5008 24.0195 39.1667 23.9729 38.9331C23.8213 38.1744 23.8448 37.3835 24.0509 36.6142C24.4031 35.2998 25.2462 34.2016 26.4251 33.5209C27.6039 32.8403 28.9766 32.6593 30.291 33.0115C31.0603 33.2176 31.7551 33.5895 32.3338 34.0994C32.5191 34.2638 33.0245 34.0689 33.1845 34.2564C33.3149 34.4115 33.1045 34.9421 33.2168 35.1141C33.2754 35.2009 33.3327 35.2927 33.3843 35.3856C33.6833 35.8999 34.032 36.6977 34.3846 37.674L33.8888 40.0748C33.7662 40.6688 33.6617 41.2627 33.5752 41.8555C33.52 42.2325 34.0896 42.1375 34.0489 42.5137C34.0286 42.7013 33.3924 43.3608 33.3755 43.5482C33.2143 45.3451 33.2142 47.1285 33.3664 48.8816C32.5478 48.4111 31.5372 47.7199 30.3266 46.7156ZM100.64 60.8657C99.2839 61.6489 95.981 62.7979 92.529 63.3827C90.9784 63.6471 89.7576 63.7404 88.8134 63.7386C89.3128 63.0244 89.7833 62.285 90.2237 61.522C90.4174 61.1862 90.2973 60.8979 90.479 60.5529C90.6856 60.1608 91.1919 59.7109 91.3825 59.3073C91.9066 58.1971 92.3691 57.0438 92.7647 55.8505L93.5357 53.5235C94.3293 52.8543 95.0301 52.3377 95.5462 52.0419C96.7226 51.3606 98.0977 51.1803 99.4121 51.5325C100.438 51.8073 101.332 52.3811 101.999 53.18C102.186 53.4048 102.648 53.2781 102.798 53.5372C102.871 53.6635 102.646 54.1615 102.707 54.2918C103.219 55.3788 103.33 56.5988 103.015 57.7723C102.662 59.0869 101.819 60.1851 100.64 60.8657Z" fill="#FFCB00"/>
<path d="M103.465 36.9247C103.461 36.9291 99.0433 39.4776 99.0433 39.4776L98.2588 39.2673L97.9872 40.0873L45.2697 70.5238C45.2609 70.516 45.2495 70.5074 45.2407 70.4996C45.0771 70.3766 44.9148 70.2485 44.7526 70.1204C44.7324 70.1041 44.7122 70.0877 44.692 70.0714C44.5146 69.9283 44.3398 69.7859 44.1664 69.6384L102.988 35.6776C103.248 36.0447 103.417 36.4723 103.465 36.9247Z" fill="#C5552E"/>
<path d="M95.5054 33.0467L39.8423 65.1838C39.5666 64.8369 39.3007 64.4844 39.0426 64.1231L93.7044 32.5641L95.5054 33.0467Z" fill="#C5552E"/>
<path d="M85.4793 30.3608L36.0175 58.9176C35.8279 58.5146 35.6557 58.108 35.4924 57.6984L83.6784 29.8782L85.4793 30.3608Z" fill="#C5552E"/>
<path d="M75.4559 27.6745L30.7516 53.4845C30.3372 53.2479 29.9156 52.9875 29.4836 52.6943L73.6549 27.1919L75.4559 27.6745Z" fill="#C5552E"/>
<path d="M28.3063 44.9008C28.6317 45.2146 28.9681 45.5286 29.3159 45.8402L24.5228 48.6075C24.193 48.2898 23.8703 47.9658 23.5584 47.642L28.3063 44.9008Z" fill="#C5552E"/>
<path d="M65.4321 24.9886L33.3824 43.4926C33.4299 42.9483 33.4941 42.4031 33.5749 41.8569L63.6286 24.5054L65.4321 24.9886Z" fill="#C5552E"/>
<path d="M23.9743 38.9275C24.0591 39.3652 24.2067 39.7924 24.409 40.1988L19.8162 42.8505C19.6047 42.458 19.4202 42.0564 19.262 41.6481L23.9743 38.9275Z" fill="#C5552E"/>
<path d="M55.4058 22.302L33.2168 35.1129C32.966 34.7344 32.6698 34.393 32.3331 34.1007L53.6049 21.8195L55.4058 22.302Z" fill="#C5552E"/>
<path d="M29.0276 27.5363C29.7613 27.5391 30.4981 27.6218 31.2291 27.7877L19.059 34.814C19.2809 34.0981 19.5776 33.4186 19.9421 32.7819C19.9428 32.7793 29.0251 27.5356 29.0251 27.5356L29.0276 27.5363Z" fill="#C5552E"/>
<path d="M45.3822 19.6168L37.13 24.3812L37.4218 22.966L37.0958 22.8786L43.5813 19.1342L45.3822 19.6168Z" fill="#C5552E"/>
<path d="M59.0826 104.898L54.0344 107.813L52.2334 107.331L58.8449 103.513C58.9524 103.968 59.0336 104.429 59.0826 104.898Z" fill="#C5552E"/>
<path d="M55.9647 98.225L44.0085 105.126L42.2101 104.644L55.5946 96.9164L55.3932 97.6678C55.5911 97.8464 55.7811 98.0339 55.9647 98.225Z" fill="#C5552E"/>
<path d="M58.281 86.8911L57.7985 88.692L38.0641 100.086C38.9641 98.6423 40.1685 97.4388 41.5666 96.5411L42.5355 95.9817C43.4189 95.5277 44.3643 95.1886 45.3441 94.976L45.5393 94.2475L58.281 86.8911Z" fill="#C5552E"/>
<path d="M108.132 59.1433C108.079 59.342 108.021 59.5393 107.955 59.7346L92.2931 68.7768C91.1903 68.929 90.166 69.0122 89.2196 69.0289L108.376 57.9691C108.317 58.3602 108.237 58.7536 108.132 59.1433Z" fill="#C5552E"/>
<path d="M48.2251 84.2239L60.9668 76.8674L60.4842 78.6684L47.7425 86.0248L48.2251 84.2239Z" fill="#C5552E"/>
<path d="M91.3823 59.3074C91.0287 60.0563 90.648 60.7843 90.2408 61.4888L63.7593 76.7779C62.9424 76.7801 62.1216 76.7458 61.2995 76.6757L91.3823 59.3074Z" fill="#C5552E"/>
<path d="M107.304 51.6371L102.705 54.2925C102.644 54.1616 102.578 54.0319 102.505 53.906C102.356 53.6476 102.187 53.4029 101.999 53.1778L106.617 50.5112C106.786 50.7501 106.945 51.0003 107.092 51.2555C107.165 51.3814 107.235 51.5093 107.304 51.6371Z" fill="#C5552E"/>
<path d="M101.367 46.5899L50.429 75.9989L50.9109 74.2005L99.4852 46.1539C99.9198 46.2131 100.353 46.299 100.783 46.4144C100.979 46.4669 101.177 46.5253 101.367 46.5899Z" fill="#C5552E"/>
<path d="M62.8144 122.19L26.6565 112.501C26.2724 112.398 26.0443 112.003 26.1472 111.619L28.9169 101.283C29.0198 100.898 29.4148 100.67 29.7989 100.773L65.9568 110.462C66.3409 110.565 66.569 110.96 66.4661 111.344L63.6964 121.68C63.5935 122.064 63.1985 122.292 62.8144 122.19Z" fill="#FF8CD0"/>
<path d="M59.1383 117.273L32.2987 110.082C31.9276 109.982 31.7073 109.601 31.8068 109.23L32.6232 106.183C32.7226 105.812 33.1041 105.591 33.4752 105.691L60.3148 112.882C60.6859 112.982 60.9062 113.363 60.8067 113.734L59.9903 116.781C59.8909 117.152 59.5094 117.373 59.1383 117.273Z" fill="#C5552E"/>
<path d="M60.0325 60.2544C66.1388 61.8906 72.4154 58.2668 74.0516 52.1604C75.6878 46.0541 72.064 39.7775 65.9577 38.1413C59.8513 36.5051 53.5747 40.1289 51.9385 46.2353C50.3023 52.3416 53.9261 58.6182 60.0325 60.2544Z" fill="white"/>
<path d="M64.4858 45.6405C64.779 45.7191 65.007 45.8588 65.1694 46.0596C65.3318 46.2604 65.4303 46.5521 65.4655 46.9345C65.5027 47.3081 65.4812 47.8009 65.4007 48.413C65.3201 49.0248 65.1671 49.7526 64.9412 50.5958C64.7987 51.1274 64.6282 51.6537 64.4295 52.1752C64.2308 52.6969 64.0306 53.1688 63.829 53.5912C63.6273 54.0136 63.4416 54.3398 63.2723 54.5691C63.0273 54.8966 62.7942 55.1167 62.5725 55.2287C62.3509 55.3413 62.1071 55.3617 61.8412 55.2905C61.548 55.2119 61.3299 55.0629 61.1876 54.8429C61.045 54.6231 60.9795 54.3083 60.9912 53.8989C60.9957 53.6251 61.0316 53.308 61.0989 52.9478C61.1659 52.5877 61.2534 52.206 61.3615 51.8025C61.4843 51.3442 61.6422 50.8732 61.8357 50.3897C62.029 49.9064 62.2459 49.4365 62.4858 48.9801C62.7263 48.5239 62.9629 48.1158 63.1971 47.7562L63.3602 47.9178C63.0241 48.1816 62.6737 48.3627 62.3081 48.4613C61.9429 48.56 61.6226 48.5722 61.3478 48.4985C61.091 48.4297 60.912 48.301 60.8104 48.1118C60.7088 47.9224 60.696 47.6856 60.7722 47.4016C60.8508 47.1081 61.0223 46.8347 61.2867 46.5817C61.5509 46.3282 61.8656 46.1157 62.2312 45.9434C62.5965 45.771 62.9764 45.6544 63.3713 45.5931C63.7662 45.5313 64.1376 45.5472 64.4858 45.6405Z" fill="black"/>
<path d="M54.9954 98.0752L45.4848 95.5268C45.1315 95.4321 44.9219 95.0691 45.0166 94.7158C45.1113 94.3625 45.4743 94.1529 45.8276 94.2476L55.3382 96.7959C55.6915 96.8906 55.9011 97.2536 55.8064 97.6069C55.7118 97.9602 55.3485 98.1698 54.9954 98.0752Z" fill="black"/>
<path d="M55.7151 76.3765C54.4448 76.0361 53.1997 75.5799 52.0092 75.0182C51.6786 74.8622 51.5367 74.4676 51.693 74.1368C51.8491 73.8063 52.2428 73.6644 52.5744 73.8207C53.8015 74.3999 55.0918 74.8583 56.4041 75.187C57.486 75.457 58.598 75.6406 59.7094 75.7325C60.0734 75.7629 60.3448 76.0827 60.3146 76.447C60.2844 76.8113 59.9644 77.0824 59.6001 77.0522C58.4177 76.9543 57.2349 76.7589 56.0838 76.472C55.9607 76.4412 55.8377 76.4094 55.7151 76.3765Z" fill="black"/>
<path d="M98.0797 39.9331L37.2441 23.6323C36.8908 23.5376 36.6812 23.1746 36.7759 22.8213C36.8705 22.468 37.2336 22.2584 37.5869 22.353L98.4225 38.6539C98.7758 38.7485 98.9854 39.1116 98.8907 39.4649C98.796 39.8182 98.4327 40.0277 98.0797 39.9331Z" fill="black"/>
<path d="M93.3652 54.1589C93.3527 54.1555 93.3403 54.1519 93.328 54.1478C92.9825 54.0331 92.795 53.6599 92.9094 53.3144L95.3085 46.0757C95.4233 45.7299 95.7947 45.5379 96.1419 45.6574C96.4874 45.7721 96.6749 46.1453 96.5605 46.4909L94.1614 53.7295C94.0506 54.0627 93.7001 54.2486 93.3652 54.1589Z" fill="black"/>
<path d="M84.5821 69.0749C84.4891 69.05 84.4001 69.004 84.3223 68.9367C84.0468 68.6985 84.0163 68.2825 84.2545 68.007L88.3158 63.3058C88.554 63.0303 88.9705 62.9994 89.2456 63.238C89.5212 63.4762 89.5516 63.8922 89.3135 64.1678L85.2521 68.8689C85.0812 69.0666 84.8187 69.1383 84.5821 69.0749Z" fill="black"/>
<path d="M34.0465 38.2647C34.059 38.2681 34.0716 38.2712 34.0842 38.2738C34.4408 38.3472 34.7898 38.1177 34.8634 37.7612L36.4051 30.2928C36.4786 29.936 36.2529 29.584 35.8925 29.5139C35.536 29.4405 35.187 29.6699 35.1133 30.0264L33.5716 37.4948C33.5011 37.8387 33.7118 38.1751 34.0465 38.2647Z" fill="black"/>
<path d="M34.1954 55.5734C34.2884 55.5983 34.3884 55.603 34.4894 55.5837C34.8471 55.5152 35.0816 55.1701 35.0131 54.8124L33.8464 48.7104C33.7779 48.3527 33.4327 48.1177 33.0751 48.1868C32.7174 48.2553 32.4829 48.6003 32.5514 48.9581L33.7181 55.06C33.7673 55.3167 33.9588 55.51 34.1954 55.5734Z" fill="black"/>
</svg>
