<svg width="828" height="152" viewBox="0 0 828 152" fill="none" xmlns="http://www.w3.org/2000/svg">
<path d="M217.217 119.666L181.975 35.7803H197.117L223.248 98.4933L249.244 35.7803H264.52L229.278 119.666H217.217Z" fill="#030233"/>
<path d="M280.468 47.7052C278.056 47.7052 276.046 46.9012 274.304 45.1592C272.562 43.4172 271.758 41.4071 271.758 38.9951C271.758 36.5831 272.562 34.573 274.304 32.965C276.046 31.223 278.056 30.4189 280.468 30.4189C282.88 30.4189 285.024 31.223 286.632 32.965C288.24 34.707 289.178 36.7171 289.178 38.9951C289.178 41.4071 288.374 43.5512 286.632 45.1592C284.89 46.9012 282.88 47.7052 280.468 47.7052ZM273.902 119.664V60.5695H286.9V119.664H273.902Z" fill="#030233"/>
<path d="M323.213 120.87C317.719 120.87 313.029 119.798 308.741 117.788C304.587 115.644 301.505 112.562 299.361 108.408L308.875 101.574C310.081 104.12 311.957 106.13 314.503 107.604C317.049 109.078 319.997 109.748 323.079 109.748C325.492 109.748 327.502 109.212 329.11 108.14C330.718 107.068 331.522 105.46 331.522 103.584C331.522 101.842 330.852 100.368 329.512 99.2957C328.172 98.2237 325.76 97.1517 322.409 95.9457L317.183 94.4716C306.731 91.6576 301.505 85.6275 301.639 76.3814C301.639 71.2893 303.649 67.1352 307.669 64.0531C311.689 60.9711 316.781 59.4971 322.811 59.4971C331.924 59.4971 338.624 62.8471 342.778 69.5472L333.8 76.3814C330.852 72.3613 327.1 70.3513 322.543 70.3513C320.399 70.3513 318.523 70.8873 317.049 71.8253C315.441 72.7633 314.637 74.2373 314.637 75.8454C314.637 77.4534 315.173 78.7934 316.111 79.8654C317.183 80.9374 318.925 82.0094 321.605 82.8134L327.636 84.5555C333.13 86.1635 337.284 88.4416 340.098 91.2556C342.912 94.0696 344.252 97.8217 344.252 102.512C344.252 108.14 342.242 112.562 338.222 115.912C334.604 119.262 329.378 120.87 323.213 120.87Z" fill="#030233"/>
<path d="M379.227 120.869C372.392 120.869 367.032 118.591 363.146 114.035C359.26 109.479 357.25 103.449 357.25 95.9449V60.5684H370.248V93.8009C370.248 98.491 371.32 102.243 373.331 104.923C375.341 107.603 378.289 108.943 382.041 108.943C386.463 108.943 389.947 107.335 392.627 103.985C395.173 100.635 396.513 95.8109 396.513 89.6468V60.5684H409.511V119.663H396.513V111.623C393.029 117.787 387.267 120.869 379.227 120.869Z" fill="#030233"/>
<path d="M451.186 120.87C443.146 120.87 436.446 117.922 430.951 111.892C425.457 105.862 422.777 98.6257 422.777 90.1836C422.777 81.6074 425.457 74.3713 430.951 68.4752C436.446 62.4451 443.146 59.4971 451.186 59.4971C455.206 59.4971 458.958 60.4351 462.308 62.1771C465.658 63.9191 468.338 66.0632 470.08 68.6092V60.7031H483.078V119.798H470.08V111.892C468.204 114.438 465.658 116.582 462.308 118.324C458.958 119.932 455.206 120.87 451.186 120.87ZM441.002 103.584C444.352 107.202 448.506 109.078 453.598 109.078C458.69 109.078 462.978 107.202 466.194 103.584C469.544 99.9657 471.152 95.4097 471.152 90.0496C471.152 84.6895 469.544 80.1334 466.194 76.5154C462.844 72.8973 458.69 71.0213 453.598 71.0213C448.506 71.0213 444.218 72.8973 441.002 76.5154C437.652 80.1334 436.044 84.6895 436.044 90.0496C435.91 95.5437 437.652 99.9657 441.002 103.584Z" fill="#030233"/>
<path d="M500.767 119.663V30.9541H513.765V119.663H500.767Z" fill="#030233"/>
<path d="M570.85 121.138C558.789 121.138 548.605 116.984 540.163 108.542C531.721 100.1 527.567 89.9156 527.567 77.7214C527.567 65.5272 531.721 55.343 540.163 46.9009C548.605 38.4587 558.789 34.3047 570.85 34.3047C582.91 34.3047 593.094 38.4587 601.536 46.9009C609.978 55.343 614.132 65.5272 614.132 77.5874C614.132 87.1015 611.318 95.5437 605.824 103.182L624.45 119.53H605.154L596.712 112.294C589.476 118.19 580.766 121.138 570.85 121.138ZM570.85 107.738C576.478 107.738 581.704 106.264 586.528 103.182L573.53 91.7916L581.838 82.2775L595.372 94.2036C598.588 89.1116 600.062 83.6175 600.062 77.7214C600.062 69.4132 597.248 62.3111 591.486 56.415C585.858 50.5189 578.89 47.7049 570.716 47.7049C562.407 47.7049 555.439 50.653 549.811 56.415C544.183 62.3111 541.235 69.2792 541.235 77.7214C541.235 86.0295 544.049 93.1316 549.811 99.0277C555.573 104.79 562.541 107.738 570.85 107.738Z" fill="#030233"/>
<path d="M651.385 120.869C644.551 120.869 639.191 118.591 635.304 114.035C631.418 109.479 629.408 103.449 629.408 95.9449V60.5684H642.407V93.8009C642.407 98.491 643.479 102.243 645.489 104.923C647.499 107.603 650.447 108.943 654.199 108.943C658.621 108.943 662.105 107.335 664.785 103.985C667.331 100.635 668.671 95.8109 668.671 89.6468V60.5684H681.669V119.663H668.671V111.623C665.187 117.787 659.425 120.869 651.385 120.869Z" fill="#030233"/>
<path d="M731.117 120.87C727.097 120.87 723.345 119.932 719.995 118.19C716.511 116.447 713.965 114.303 712.089 111.757V119.664H699.09V30.9541H712.089V68.4747C713.965 65.9287 716.511 63.7846 719.995 62.0426C723.479 60.3006 727.097 59.3625 731.117 59.3625C739.157 59.3625 745.857 62.3106 751.351 68.3407C756.845 74.3708 759.525 81.6069 759.525 90.0491C759.525 98.6252 756.845 105.861 751.351 111.757C745.991 117.921 739.157 120.87 731.117 120.87ZM728.839 109.077C733.931 109.077 738.219 107.201 741.435 103.583C744.785 99.9652 746.393 95.4091 746.393 90.0491C746.393 84.689 744.785 80.1329 741.435 76.5148C738.085 72.8968 733.931 71.0207 728.839 71.0207C723.613 71.0207 719.325 72.8968 716.109 76.5148C712.759 80.1329 711.151 84.689 711.151 90.0491C711.151 95.4091 712.759 99.9652 716.109 103.583C719.325 107.201 723.613 109.077 728.839 109.077Z" fill="#030233"/>
<path d="M799.592 120.87C790.614 120.87 783.243 118.056 777.481 112.294C771.719 106.532 768.771 99.1619 768.771 90.1838C768.771 81.4736 771.719 74.1035 777.481 68.2074C783.377 62.3113 790.748 59.3633 799.592 59.3633C807.766 59.3633 814.6 61.9093 819.96 67.1354C825.32 72.3615 828 79.4636 828 88.7098C828 90.3178 828 91.6578 827.866 92.9978H781.367C781.635 97.8219 783.511 101.708 786.862 104.656C790.212 107.604 794.5 109.078 799.458 109.078C806.962 109.078 812.59 106.13 816.342 100.1L826.258 107.202C820.898 116.314 811.92 120.87 799.592 120.87ZM782.037 83.4837H814.868C814.198 79.3296 812.322 76.1136 809.374 73.8355C806.426 71.5575 802.942 70.3515 799.056 70.3515C794.902 70.3515 791.284 71.5575 788.068 73.8355C784.985 76.1136 782.975 79.3296 782.037 83.4837Z" fill="#030233"/>
<path d="M77.0512 99.9653C76.3812 100.635 75.8452 101.707 75.8452 102.779V126.096V147.536C75.8452 149.68 77.5872 151.422 79.7313 151.422H124.89C125.962 151.422 126.9 151.02 127.704 150.216L150.484 127.168C151.154 126.498 151.556 125.426 151.556 124.354V79.597C151.556 77.453 149.814 75.7109 147.67 75.7109H126.498H102.78C101.708 75.7109 100.77 76.1129 99.9656 76.9169L77.0512 99.9653ZM138.826 92.1932V122.076C138.826 124.22 137.084 125.962 134.94 125.962H105.058C102.914 125.962 101.172 124.22 101.172 122.076V92.1932C101.172 90.0492 102.914 88.3071 105.058 88.3071H134.94C137.084 88.3071 138.826 90.0492 138.826 92.1932Z" fill="#05C7AA"/>
<path d="M75.8452 75.7109H50.7868H27.0684C25.9964 75.7109 25.0584 76.1129 24.2544 76.9169L1.20601 99.9653C0.536 100.635 0 101.707 0 102.779V147.536C0 149.68 1.74202 151.422 3.88605 151.422H49.0448C50.1168 151.422 51.0548 151.02 51.8589 150.216L74.6392 127.168C75.3092 126.498 75.7112 125.426 75.7112 124.354V101.037V75.7109H75.8452ZM59.095 126.096H29.2125C27.0684 126.096 25.3264 124.354 25.3264 122.21V92.3272C25.3264 90.1832 27.0684 88.4411 29.2125 88.4411H59.095C61.239 88.4411 62.981 90.1832 62.981 92.3272V122.21C62.981 124.354 61.239 126.096 59.095 126.096Z" fill="#030233"/>
<path d="M147.804 0H102.914C101.842 0 100.904 0.401998 100.1 1.20601L77.0512 24.2544C76.3812 24.9244 75.8452 25.9964 75.8452 27.0684V50.3848V75.7112H101.172H124.89C125.962 75.7112 126.9 75.3092 127.704 74.5052L150.484 51.4568C151.154 50.7868 151.556 49.7148 151.556 48.6428V3.88605C151.69 1.87602 149.948 0 147.804 0ZM119.53 65.7951H89.6474C87.5034 65.7951 85.7614 64.053 85.7614 61.909V32.0265C85.7614 29.8825 87.5034 28.1405 89.6474 28.1405H119.53C121.674 28.1405 123.416 29.8825 123.416 32.0265V61.909C123.416 64.053 121.674 65.7951 119.53 65.7951Z" fill="#030233"/>
<path d="M74.7732 51.4568C75.4432 50.7868 75.8452 49.7148 75.8452 48.6428V25.3264V3.88605C75.8452 1.74202 74.1032 0 71.9592 0H27.0684C25.9964 0 25.0584 0.401998 24.2544 1.20601L1.20601 24.2544C0.536 24.9244 0 25.9964 0 27.0684V71.8252C0 73.9692 1.74202 75.7112 3.88605 75.7112H25.3264H49.0448C50.1168 75.7112 51.0548 75.3092 51.8589 74.5052L74.7732 51.4568ZM44.3547 65.7951H14.4722C12.3282 65.7951 10.5862 64.053 10.5862 61.909V32.0265C10.5862 29.8825 12.3282 28.1405 14.4722 28.1405H44.3547C46.4988 28.1405 48.2408 29.8825 48.2408 32.0265V61.909C48.2408 64.053 46.4988 65.7951 44.3547 65.7951Z" fill="#05C7AA"/>
</svg>
