<svg width="285" height="52" viewBox="0 0 285 52" fill="none" xmlns="http://www.w3.org/2000/svg">
<path d="M74.5946 41.0938L62.4919 12.2867H67.692L76.6654 33.823L85.5928 12.2867H90.8388L78.7362 41.0938H74.5946Z" fill="#030233"/>
<path d="M96.3154 16.3823C95.4871 16.3823 94.7968 16.1062 94.1986 15.508C93.6003 14.9097 93.3242 14.2195 93.3242 13.3912C93.3242 12.5628 93.6003 11.8726 94.1986 11.3204C94.7968 10.7221 95.4871 10.446 96.3154 10.446C97.1437 10.446 97.88 10.7221 98.4322 11.3204C98.9844 11.9186 99.3065 12.6089 99.3065 13.3912C99.3065 14.2195 99.0304 14.9557 98.4322 15.508C97.834 16.1062 97.1437 16.3823 96.3154 16.3823ZM94.0605 41.0938V20.8H98.5242V41.0938H94.0605Z" fill="#030233"/>
<path d="M110.995 41.508C109.108 41.508 107.497 41.1398 106.025 40.4496C104.598 39.7133 103.54 38.6549 102.803 37.2283L106.071 34.8814C106.485 35.7557 107.129 36.446 108.003 36.9522C108.878 37.4584 109.89 37.6885 110.949 37.6885C111.777 37.6885 112.467 37.5044 113.019 37.1363C113.572 36.7681 113.848 36.2159 113.848 35.5717C113.848 34.9734 113.618 34.4673 113.157 34.0991C112.697 33.731 111.869 33.3628 110.719 32.9487L108.924 32.4425C105.334 31.4761 103.54 29.4053 103.586 26.2301C103.586 24.4814 104.276 23.0549 105.657 21.9965C107.037 20.938 108.786 20.4319 110.857 20.4319C113.986 20.4319 116.287 21.5823 117.713 23.8832L114.63 26.2301C113.618 24.8496 112.329 24.1593 110.765 24.1593C110.028 24.1593 109.384 24.3434 108.878 24.6655C108.326 24.9876 108.049 25.4938 108.049 26.046C108.049 26.5982 108.234 27.0584 108.556 27.4266C108.924 27.7947 109.522 28.1628 110.442 28.4389L112.513 29.0372C114.4 29.5894 115.826 30.3717 116.793 31.3381C117.759 32.3044 118.219 33.5929 118.219 35.2035C118.219 37.1363 117.529 38.6549 116.149 39.8053C114.906 40.9558 113.111 41.508 110.995 41.508Z" fill="#030233"/>
<path d="M130.23 41.508C127.883 41.508 126.043 40.7257 124.708 39.1611C123.374 37.5965 122.683 35.5257 122.683 32.9487V20.8H127.147V32.2124C127.147 33.823 127.515 35.1115 128.205 36.0319C128.896 36.9522 129.908 37.4124 131.197 37.4124C132.715 37.4124 133.912 36.8602 134.832 35.7098C135.706 34.5593 136.167 32.9027 136.167 30.7859V20.8H140.63V41.0938H136.167V38.3328C134.97 40.4496 132.991 41.508 130.23 41.508Z" fill="#030233"/>
<path d="M154.942 41.508C152.181 41.508 149.88 40.4956 147.993 38.4248C146.106 36.354 145.186 33.869 145.186 30.9699C145.186 28.0248 146.106 25.5398 147.993 23.515C149.88 21.4442 152.181 20.4319 154.942 20.4319C156.322 20.4319 157.611 20.754 158.761 21.3522C159.912 21.9504 160.832 22.6867 161.43 23.5611V20.846H165.894V41.1398H161.43V38.4248C160.786 39.2991 159.912 40.0354 158.761 40.6336C157.611 41.1858 156.322 41.508 154.942 41.508ZM151.444 35.5717C152.595 36.8142 154.021 37.4584 155.77 37.4584C157.519 37.4584 158.991 36.8142 160.096 35.5717C161.246 34.3292 161.798 32.7646 161.798 30.9239C161.798 29.0832 161.246 27.5186 160.096 26.2761C158.945 25.0336 157.519 24.3894 155.77 24.3894C154.021 24.3894 152.549 25.0336 151.444 26.2761C150.294 27.5186 149.742 29.0832 149.742 30.9239C149.696 32.8106 150.294 34.3292 151.444 35.5717Z" fill="#030233"/>
<path d="M171.968 41.0938V10.6301H176.432V41.0938H171.968Z" fill="#030233"/>
<path d="M196.036 41.6C191.894 41.6 188.397 40.1734 185.498 37.2743C182.598 34.3752 181.172 30.8779 181.172 26.6903C181.172 22.5026 182.598 19.0053 185.498 16.1062C188.397 13.2071 191.894 11.7805 196.036 11.7805C200.177 11.7805 203.675 13.2071 206.574 16.1062C209.473 19.0053 210.899 22.5026 210.899 26.6442C210.899 29.9115 209.933 32.8106 208.046 35.4336L214.443 41.0478H207.816L204.917 38.5628C202.432 40.5876 199.441 41.6 196.036 41.6ZM196.036 36.9982C197.968 36.9982 199.763 36.492 201.42 35.4336L196.956 31.5221L199.809 28.2549L204.457 32.3504C205.561 30.6017 206.067 28.715 206.067 26.6903C206.067 23.8372 205.101 21.3982 203.122 19.3734C201.19 17.3487 198.797 16.3823 195.99 16.3823C193.136 16.3823 190.744 17.3947 188.811 19.3734C186.878 21.3982 185.866 23.7911 185.866 26.6903C185.866 29.5433 186.832 31.9823 188.811 34.0071C190.79 35.9858 193.182 36.9982 196.036 36.9982Z" fill="#030233"/>
<path d="M223.692 41.508C221.345 41.508 219.504 40.7257 218.17 39.1611C216.835 37.5965 216.145 35.5257 216.145 32.9487V20.8H220.609V32.2124C220.609 33.823 220.977 35.1115 221.667 36.0319C222.357 36.9522 223.37 37.4124 224.658 37.4124C226.177 37.4124 227.373 36.8602 228.294 35.7098C229.168 34.5593 229.628 32.9027 229.628 30.7859V20.8H234.092V41.0938H229.628V38.3328C228.432 40.4496 226.453 41.508 223.692 41.508Z" fill="#030233"/>
<path d="M251.073 41.508C249.692 41.508 248.404 41.1859 247.253 40.5876C246.057 39.9894 245.183 39.2531 244.538 38.3788V41.0938H240.075V10.6301H244.538V23.5151C245.183 22.6407 246.057 21.9044 247.253 21.3062C248.45 20.708 249.692 20.3858 251.073 20.3858C253.834 20.3858 256.135 21.3982 258.022 23.469C259.908 25.5398 260.829 28.0248 260.829 30.9239C260.829 33.869 259.908 36.354 258.022 38.3788C256.181 40.4956 253.834 41.508 251.073 41.508ZM250.291 37.4584C252.039 37.4584 253.512 36.8142 254.616 35.5717C255.767 34.3292 256.319 32.7646 256.319 30.9239C256.319 29.0832 255.767 27.5186 254.616 26.2761C253.466 25.0336 252.039 24.3894 250.291 24.3894C248.496 24.3894 247.023 25.0336 245.919 26.2761C244.769 27.5186 244.216 29.0832 244.216 30.9239C244.216 32.7646 244.769 34.3292 245.919 35.5717C247.023 36.8142 248.496 37.4584 250.291 37.4584Z" fill="#030233"/>
<path d="M274.588 41.508C271.505 41.508 268.974 40.5416 266.995 38.5628C265.016 36.5841 264.004 34.0531 264.004 30.9699C264.004 27.9788 265.016 25.4478 266.995 23.423C269.02 21.3982 271.551 20.3858 274.588 20.3858C277.395 20.3858 279.742 21.2602 281.583 23.0549C283.423 24.8496 284.344 27.2885 284.344 30.4637C284.344 31.0159 284.344 31.4761 284.298 31.9363H268.33C268.422 33.5929 269.066 34.9274 270.216 35.9398C271.367 36.9522 272.839 37.4584 274.542 37.4584C277.119 37.4584 279.052 36.446 280.34 34.3752L283.745 36.8142C281.905 39.9434 278.822 41.508 274.588 41.508ZM268.56 28.669H279.834C279.604 27.2425 278.96 26.1381 277.947 25.3558C276.935 24.5735 275.738 24.1593 274.404 24.1593C272.977 24.1593 271.735 24.5735 270.63 25.3558C269.572 26.1381 268.882 27.2425 268.56 28.669Z" fill="#030233"/>
<path d="M26.4603 34.3292C26.2302 34.5593 26.0461 34.9274 26.0461 35.2956V43.3027V50.6655C26.0461 51.4018 26.6444 52 27.3807 52H42.8886C43.2568 52 43.5789 51.8619 43.855 51.5858L51.678 43.6708C51.9081 43.4407 52.0461 43.0726 52.0461 42.7044V27.3345C52.0461 26.5982 51.4479 26 50.7116 26H43.4408H35.2957C34.9276 26 34.6054 26.1381 34.3293 26.4142L26.4603 34.3292ZM47.6745 31.6602V41.9221C47.6745 42.6584 47.0762 43.2566 46.34 43.2566H36.078C35.3417 43.2566 34.7435 42.6584 34.7435 41.9221V31.6602C34.7435 30.9239 35.3417 30.3257 36.078 30.3257H46.34C47.0762 30.3257 47.6745 30.9239 47.6745 31.6602Z" fill="#05C7AA"/>
<path d="M26.046 26H17.4407H9.29557C8.92743 26 8.60531 26.1381 8.32921 26.4142L0.414156 34.3292C0.184068 34.5593 0 34.9274 0 35.2956V50.6655C0 51.4018 0.598227 52 1.33451 52H16.8425C17.2106 52 17.5327 51.8619 17.8089 51.5858L25.6319 43.6708C25.8619 43.4407 26 43.0726 26 42.7044V34.6973V26H26.046ZM20.2938 43.3027H10.0319C9.29558 43.3027 8.69734 42.7044 8.69734 41.9681V31.7062C8.69734 30.9699 9.29558 30.3717 10.0319 30.3717H20.2938C21.0301 30.3717 21.6283 30.9699 21.6283 31.7062V41.9681C21.6283 42.7044 21.0301 43.3027 20.2938 43.3027Z" fill="#030233"/>
<path d="M50.7576 0H35.3417C34.9736 0 34.6515 0.13805 34.3753 0.414156L26.4603 8.32921C26.2302 8.55929 26.0461 8.92743 26.0461 9.29557V17.3027V26H34.7435H42.8886C43.2568 26 43.5789 25.8619 43.855 25.5858L51.678 17.6708C51.9081 17.4407 52.0461 17.0726 52.0461 16.7044V1.33451C52.0922 0.644245 51.4939 0 50.7576 0ZM41.0479 22.5947H30.786C30.0497 22.5947 29.4514 21.9965 29.4514 21.2602V10.9982C29.4514 10.2619 30.0497 9.66372 30.786 9.66372H41.0479C41.7842 9.66372 42.3824 10.2619 42.3824 10.9982V21.2602C42.3824 21.9965 41.7842 22.5947 41.0479 22.5947Z" fill="#030233"/>
<path d="M25.6779 17.6708C25.908 17.4407 26.046 17.0726 26.046 16.7044V8.69734V1.33451C26.046 0.598227 25.4478 0 24.7115 0H9.29557C8.92743 0 8.60531 0.13805 8.32921 0.414156L0.414156 8.32921C0.184068 8.55929 0 8.92743 0 9.29557V24.6655C0 25.4018 0.598227 26 1.33451 26H8.69734H16.8425C17.2106 26 17.5327 25.8619 17.8089 25.5858L25.6779 17.6708ZM15.2319 22.5947H4.96991C4.23363 22.5947 3.6354 21.9965 3.6354 21.2602V10.9982C3.6354 10.2619 4.23363 9.66372 4.96991 9.66372H15.2319C15.9681 9.66372 16.5664 10.2619 16.5664 10.9982V21.2602C16.5664 21.9965 15.9681 22.5947 15.2319 22.5947Z" fill="#05C7AA"/>
</svg>
